<mxfile host="app.diagrams.net" agent="Mozilla/5.0 (Windows NT 10.0; Win64; x64) AppleWebKit/537.36 (KHTML, like Gecko) Chrome/138.0.0.0 Safari/537.36" version="28.0.1">
  <diagram name="第 1 页" id="4Ms6sGEgk0JwZqu_WHtw">
    <mxGraphModel dx="7107" dy="4706" grid="1" gridSize="10" guides="1" tooltips="1" connect="1" arrows="1" fold="1" page="1" pageScale="1" pageWidth="4681" pageHeight="3300" math="0" shadow="0">
      <root>
        <mxCell id="0" />
        <mxCell id="1" parent="0" />
        <mxCell id="ggL9RPnJAEUtzASAG6NK-1" value="&lt;font style=&quot;font-size: 45px;&quot;&gt;离线数据读取&lt;/font&gt;" style="rounded=1;whiteSpace=wrap;html=1;fillColor=#dae8fc;strokeColor=#6c8ebf;" vertex="1" parent="1">
          <mxGeometry x="-750" y="440" width="300" height="60" as="geometry" />
        </mxCell>
        <mxCell id="ggL9RPnJAEUtzASAG6NK-2" value="&lt;span style=&quot;font-size: 45px;&quot;&gt;瞬态噪声检测与辨识系统&lt;/span&gt;" style="rounded=1;whiteSpace=wrap;html=1;fillColor=#dae8fc;strokeColor=#6c8ebf;" vertex="1" parent="1">
          <mxGeometry x="55" y="930" width="520" height="60" as="geometry" />
        </mxCell>
        <mxCell id="ggL9RPnJAEUtzASAG6NK-5" value="" style="rounded=1;whiteSpace=wrap;html=1;strokeColor=none;" vertex="1" parent="1">
          <mxGeometry x="200" y="390" width="120" height="20" as="geometry" />
        </mxCell>
        <mxCell id="ggL9RPnJAEUtzASAG6NK-6" value="" style="rounded=1;whiteSpace=wrap;html=1;strokeColor=none;" vertex="1" parent="1">
          <mxGeometry x="320" y="110" width="120" height="10" as="geometry" />
        </mxCell>
        <mxCell id="ggL9RPnJAEUtzASAG6NK-7" value="" style="rounded=1;whiteSpace=wrap;html=1;strokeColor=none;" vertex="1" parent="1">
          <mxGeometry x="-280" y="140" width="10" height="10" as="geometry" />
        </mxCell>
        <mxCell id="ggL9RPnJAEUtzASAG6NK-9" value="" style="shape=image;verticalLabelPosition=bottom;labelBackgroundColor=default;verticalAlign=top;aspect=fixed;imageAspect=0;image=data:image/png,iVBORw0KGgoAAAANSUhEUgAAA94AAAFUCAIAAABdu3PrAAAgAElEQVR4Aey9C3hU1b3/vY1aW1+lp0qsFQWsVbyfileCKKLV1kuPT+3xff60tdfk/N/zr3+fg31ea4tU1JrUtghqW9SgFCQqPWK9RYEEwiVy+afSkESLKQMzCCFAQEIyA8kk+31/67bXvszOJMzs7Jn57mc9mbXXXuv3+63P2rP3d69ZMzHOHjsGCQRAIHgCY8eOyUIaiw0EQCCnCJw9dqwj8fAdhWezUnchSmwExow92ydx1D4Vxsix8K+DoyCQVQJG8IoEHkEABBSBjKpzT0HifgDwrIZCEACBgAnompK71kt4PlW5uyZKiIC/YBpQmqvHJH87OAoCWSVgmNhAAARAAARAAARAAARAAARCQADSPASDgBBAAARAAARAAARAAARAwDQhzXEWgAAIgAAIgAAIgAAIgEAoCECah2IYEAQIgAAIgAAIgAAIgAAIGH19faAAAiAAAiAAAiAAAiAAAiAw7ASMjo6OYQ8CAYAACIAACIAACIAACIBAlggYKbYsufM0axhGQ0OD+1BDQ4NhWMtYjF27drkr2Uqqy0pmt9pK3Dvp1JGtqss4Hi+rPnaqy4yyamGjuszwaC0NO+lrVVtnlygjMh7Xa+vsEsuVqZpQsSi3wvTyyTw4D2hulUWXZ1lAja2o9Z6bVjyyclheLSipI0qnjmwtCVog5BHT9LGj08J5YiFDDgRAAARAAAQKl4CufRUFz0J1NOOZhoaG40/4rEOduwuHKM2ZTHVKYNt+yexWS1tVk6qVmyZSnb1unV3iJcSoWnVZSVmZZkVao1fRxlOv6SYdUZdVywiZMYcVKfFUI1tk0pd8VT2RzWwHhBgXx5Q0V6b1zlBeR6R3gHmhVrZYlO9UGaubnu3UYc+jqYy6ym09FkdT9lD1GOeJRn2YzxPXkKIABEAABEAABHKdgFIcjoxpmgFLc9M0HULcsctRpyXNLano0oliwLxkGZ/aFC1aZ5fR1LtUpVLAmkoWOoDJXSFSU/m1nS+pbAntI20o3/rkqzjoNFFWrUImVzJ8yleXUWyujkvrtgMpJJcVPfnVJJp1gAAxBs7IBCDvRlp7W4hkRJf9vEvSs8dRm6EBdmSkVE2ydjaxUZEHWaFogfOEnVRslPSzTbDK5nkihwOvIAACIAACIJBHBDz1Ny/0PJTtris5rjIOjx7SXJ/pJOWn5IB9ulavJoW0fOWCkRrSxvaU9CqhyWpPRUlVysqYhLdHqRx7+lRa09OsJRJlODJIwygrU4FY1Wyuq8vKZmtrYNweXCVSoDq9cR3vIblYRdUHIZalgBbqjPrNqqiMLcr0d1wrPGwGbTsDGqXacsN5kl/nyYCDjwogAAIgAAIgkBsEPPX3MEpzNXfuXtzCgXpIc0VazfWWlHARpgtIVSt1hslWpnlnC5EulZx41e0pWegSyVwCeor51L5THuHWhGebfpZPEHqQVM9WqaxaKFIRj480L5ldLVW9IumQ5sKW7tG2nMVyTYHoZPS81Veyp0DZdngdsqdDZ53TClzK3TLtk1O9w3miRjLc54nPYOIQCIAACIAACGSGgLonemYy4yMNK/kkzYXiYms2qj0WgXvrSuKvZCsfjJLZs9XsNGdIU8vWbDQzxISsaCkKxHdPaeWIUMCeLvmiE89x1wuFuOXalGleTZOqodUlr5wAVwetjFLklni2fCm7kqBsJww6i/lhKZtbW+3fuZUR+XqSHug5QtAnVioSOs7g2Up4mVZktVYGB87I7hATnCd2XqE9T+xhYg8EQAAEQAAE8pVA2KS5WseiMg7yKWfNpSKUa5WtfWlBSjLaVxJEn9tlhbyd0tRlZdoEuvgepprndc4L6yrfqiT9e7xqYbiPMu07W1uFYYlpay5ZBcoPllWrxd5c2qqnDmdG+uPy22FGdMRbmgvNrRQy7aveOh4PxK5lSFXU/LMyikCZtMUua7JXu30vaa4eCVyumAHrvODwrX3pB+eJ/Q3CuXDww3eeyNHBKwiAAAiAAAjkNYFU0pwLvYC77pDjjl0eTApprgs7qXepTJdnblkhta6oJaU5K6YyKmCLPOyCUGFJUawpG6UTpSt9/UfKgCyJShpV2xOetUJdWfJwlEu975KJCt0zo/ojrIp9y52yrXVHZTkxucu9C7/KsIdbLq8d/dBUur2JTYzro26vlmpPbyGZUJnOKuWwyFqsoazFe43zhC9gEudqNs6TVEOKchAAARAAARDIJwKppHnwffQU4u5CT2lOSsASsFJyMYVsTejq4k/vnlUuBQXTaUx60dIWqTXllDiTmaqRJRWtnE2a66KPR2RFqoeh8nYZKxWgFgXLSiOO4/qsOV8TwityJvznRFSgKiN8W56FGBcFljRXQVJGMRCl2soWioocS4vy1dMS2SkrU79CKds6fQlhrB12xm9r4bWD80SeRrl4nniNKMpAAARAAARAIM8IyFu18zX4bg79Xw45FJpDMUo55qjl1UFN07PvUlqqWkpLttCCNKfDidi1ZKM0JV+VO2VJlTgyjjhTiVlNmqswuW3dg3LPnzr4+njZlBxLOnwVt8OSjEyPgbpoiWRqwEyrluw4r2DRcEl0aZm/sjYqKh6qdkIK3nLOmo0BP6za2O2l2HOTVVFrJBy1vGwpqqKZZUaxl33HeaLeK0d/nniNBcpAAARAAARAAASGlYDR1taWKgAp6iyppGoqzaRK/DIueeZuLn1JCenwKdWbsxpVdwlKeyW7JS51pRfrVRoR2k+YYG1t5ng9XsvVLcaAHZvNv42pvPEglCW2yw7aPcgouFxmnzEoh0pKkxdlSbXw45/lYzIY3kmbM/dA2w47dlxA3c2lLzlyDp84T+yLiRSuMJwnjtHGLgiAAAiAAAiAgJuAEY/H3aWhK7Ekl0uLuaV56KJHQEERwHkSFGn4AQEQAAEQAAEQyAYBIxtGYRMEQAAEQAAEQAAEQAAEQGCwBCDNB0sM9UEABEAABEAABEAABEAgKwQgzbOCFUZBAARAAARAAARAAARAYLAEIM0HSwz1QQAEQAAEQAAEQAAEQCArBCDNs4IVRkEABEAABEAABEAABEBgsASMw0d6kEAABEAABEAABEAABEAABIadAKQ5nkxAAARAAARAAARAAARAIBQEIM1DMQzD/oiGAEAABEAABEAABEAABIadAKQ5pDkIgAAIgAAIgAAIgAAIhIIApHkohmHYH9EQAAiAAAiAAAiAAAiAwLATgDSHNAcBEAABEAABEAABEACBUBCANA/FMAz7IxoCAAEQAAEQAAEQAAEQGHYCkOaQ5iAAAiAAAiAAAiAAAiAQCgKQ5qEYhmF/REMAIAACIAACIAACIAACw04A0hzSHARAAARAAARAAARAAARCQcD4Q8OR2RuRwk7gDw1HFmw+snJbT9vBtM6btoM9K7f1LNh8BOObE6c3xjcnhmnIQQ52fId9zgYBgAAIgAAIDBcBY8g3GzQcFgJzNh5ZtrXnQHdKgX6gu2fZ1p45eNzKTQIY32F5WwXmdMDxHa47AfyCAAiAAAiEhIBx3txDZ/+hEynkBM6be+jqF7t+9Haca4g//u3Ip17q/NPunj/+TXwC8ObHPY3tya2f9kUPIoWdwNZP+xrbk29+3IPxzcvTNc3xDcldAWGAAAiAAAgMIwFj7DMHkXKIwC0vH5rF5oOXbvWYOF+6lbTdnP9zZO0nvdsP9iHlHIG1n/TO+T/0cIXxzbmxSydg//EdxjsBXIMACIAACISEgDH26U+RcovALVWHSH9vPOJYd952UKxjqd/Ru+3TPqQcJbB2Ry/GN0fHLp2wU41vSG4JCAMEQAAEQGB4CRhjnzqAlHMEfvRW1+yN9K1Q/exZuY2mzP+6pSdyoA8ppwn8dQsNJcY3pwfRJ3jP8dXfy8iDAAiAAAgULAFj7Jz9SDlH4OrKT2dvpN9s0U/cBZtpIcQHbcmtB/qQcprAB21JjG9Oj6B/8J7jq7+XkQcBEAABEChYAsbY2R1IOUfg3Kf3z9545I9/s0lz/juJWzr6/rkfKbcJbOnow/jm8WnsOb4FexNCx0EABEAABHQCxpgn9yHlIgH+Ux76WPKSj/f3IeUBAYxvHgyiTxfc46u/l5EHARAAARAoWALGmFl7kXKRgPvWzku2dPQh5QEBjG8eDKJPF9zjW7A3IXQcBEAABEBAJ2CM+f0epFwk4L6185J/dCSR8oAAxjcPBtGnC+7x1a/LyIMACIAACBQsAWPM79qRcpGA+9bOSz7al0TKAwIY3zwYRJ8uuMe3YG9C6DgIgAAIgIBOwBj9293DlD6tMfnW++x8Zwy3r+s1TbPmLWc5C3Xfsx2maSbu55HP74qYptnRdbujI7xcuHC+WJbfSjgccdeRdfssLGRKunN4+e3u0cyRZdBdITsl7ls7L/lwbzIcafc9pXXFlDbO+NAZ0tLFG4tL6+5Z5SxnkXfOeKiuuLR5Hu/Ih5FrS+uKH4osdfSLlwsX3JH1V1lmjlgAq5pZMFYd2uVm3aY0d5YFRwBZ3sX40rinSGJ8aeDkeeIeDjasVNM+vvcsZmeU3fK1izsDfte4x1e/LiMPAiAAAiBQsASM0b9ty25i2pdL45p1h0hGiy1xv+5aqyYrOF9r3uKhHiBN//EBGfZeptR7n51v78h85suqJo5K0S8rC2kud3kr8qwZnH+ghj0MPMseGFRYIh7WRMYm7ehdy07efWvnJS17k4EmTfLeszgy0VI8zZV6JFo1H73FImea/pndshedD5FS3/jQh/Z+fch8WdXEUSX6uamHnmmmkB6KLGUBTFzcaTPLJHgLMyUPMXcPRZbKQi7Nnd71rmUnj/GlgfMf3w9338Oe4h5iT3rqvLpnFTsZ2AhSXg5lCzsH+Fkqh9t+UmVnKOUpZ/PlHt+CvQmh4yAAAiAAAjoBY/QTu7KbSPsm7n9ifw3NgtPfyPt7bn+/l7Tvi7tYJnG/PQZWaEY6aOI88v4eR3j8aM37uspXapllOg7d/sSu0S+yClv2ezd/S/ZaSHO+u0fMx7NoWdiymigxTW5c6w6PpEYZtPfF4T2Du/zWnjjSoxIvad6TDDTVNReXNj+/h/T0PXX0d+LizvdIKm18qCXJMs3P20NihXUTH6KJ84mLOx3R8qN2lW+fPX0o8t6eZHOLkObezetcEChO3Z2Q4MqUjESWM/t6XxyOsr2L8eXS3MFZnB7W+MoPZ/hZoZ2H/BS6p06cKjS+7BxQ0txhOeBd9/iqNzIyIAACIAAChUzAGP2bndlNb8ZNM37/b5g0f3Pn/VtMtRt5v5Pmv7fstwVA9UWh0Ojvt2sV2p/dxy0MFPYLndoMvV27m2bNm9ScBSMPbdnPd/mh0TyMfZ23/2YnhcGCpMy+zme3mDzymjdZp94nR6JVtmFq9t23dl6yeU8y0MSk+XN7dn+vtO57dcnnnqG1KHx34uLI99jEpy0eJo+Kn9m9eU+ymk12TlzcqVXonM7mQZ8bsBdcmluT9Db5/r265OY93BSV066U5tIXO/pQpHpPcrPb1EORainNWZAbp7cES3UP/cuh2RuP6NcmjK+aF2fjy84fdSI9FJn+TB0/5b5Xx85G9hkO1ZRDyc+B79k+2+GnTSjGVx9r5EEABEAABAqWgHFWxSfZTW8wqc0E8PItVl4qYnqNvN/OYmifS7KbdqeR/GWFsvnyN1ic87jgjk+r+OQ2mnp3b3Qo/R5xI8vfSGXNNLd03PZGnFT+lg6qvK9zLpPmy01z+Rsd9JdJcxHeYFynH6RnzVTSrbE9GWhaaa3h/u7TVl6pKJqrfrWThdT5y+mkhCa+2vns07JQNv/uShZ2M18S0/xse/KdV2la3ZXoUPod5EbIOHMkI0k2trNgpkfeSWWNRTLx1U5mYeMvmwfhNP3wfGpifH3g8EPvrGSrlZ7eTWM0PfJLOqki3y2t++7K3fT3VTqXaOjFSSXOJV6uzoTwjG/B3oTQcRAAARAAAZ2AcVb5juwm0tbxaeX7SMVyab7v4G2W091z95mR+t3TaDbdNLfsY8Hsm7uvR9vdcVu92BXVyKBP2GRz4I3CoKj4tvwNH4M7zmK9mFvfY+47SNK8/iCT5qxT9QcjJNN9m/tFO8SGQrod7knIxEv+3p4MNJHkbZ7bzsQQl+bTI29bMZACLnm1c+7TTBg9vZvFtvuX05nsFrvJt7kKf3q3qEYGfXohJL5Ltdt1PAuDW/7uyuTf5TOArZUVqlDqVuTNkZJSipxZIGkeKNV2OWsuBzdxuAfj6zF27PT7pZTmJXZpXsKkuRg4qsnGUY4sLw/P+Ko3MjIgAAIgAAKFTMA46/Ed2U1/ZdL8caZi/7pj2j+EFI5w8c32IvW73TFM+4e5vH73bfbwZPP4tMelXhf21AsdYta4QFe7Ht0Uit80l5O8FjXJxb6Dtz3OQ+2ZW2k1pPr7Ds79h5Tmf9Wk+V+tau6+ZKMklTTftDsZaFrBpPluJs1XJKW2rivh4ptNe5e82ukOae7Tdd99tfMte7SyefPc3cm3UsyazxVNOn9Bc/BU021clXAj310xcB2b7CttntskpDmzsPEXTX4WlLsMZjC+6YwvB05jND3yi6frhDRfIWbNSZqvSG5a0Vw8PfIWnahsHOXIWm15ue+JlMGR5abc41vI9yH0HQRAAARAQBEwzvp1LLvp9W6lmpe/vm+52TP39YMRs2fu87Gzfk3SNrK2jQXQRlPd+7qX01+Sv6bZPU3ERod4tdvWHpy7tkc75BM8GfevOe0fJn9CWP567CwWZ2Rt223CPo/n4G0sBl5IrlmEkbVs1py6Yy5fy2bNX/eJJCuH3Ld2XvJBWzLQRIpHTFd/Z8Xu75RufHBFpKR044Obkx+07f5OaV3JK50sns4Hp9cVT2/+Dv2NPEiT6M1/EqHSIV7trVciD76yUTvk0xcyPmDNt8ha3XdWdD74ym4WDw8s+aenVWDMxWYS4sVP7/6gjQ6RWVZS8konsyBaBQkW45v2+DbTOcNOrZJXIt+h4aZz4zuv0Jh+Z0XyA0ua00/9sPPT/gGLOF19TrbMH3KPr7ooIwMCIAACIFDIBIyzHotmN5Hk7Z722F5S4WqmfN+nNPe89lMmzXdRAM99Suu5//EpE+if3vZYlKlhc/nr8hAZoVCFdH4sKmfQlfLnGVHtLObRcUzu9sx9jpl6fe9tTJGTl8d2CdeihAW8lsUmfHHLVM7qR7mL5WspclmSZZjaYLlv7bzkb23JQBObNf8jV+FqppyJb66TSl7ppHiE9o0wgR55sy35phDN8lBp8x9Z5Kyc8n/ka2Ck7pcPAKLa35hHWeihtDgE7oWpc2nw6d0iGKbbBCv2gMFDZX6b/yilObNA0jxQqm0pF7QEHMbfwj2+YrDozGFyfAUfJps0py5Mj7xJHWHjKEc2aJL2N6b7/VvI9yH0HQRAAARAQBEwznx0e3bTEibNH91DKnzNzjOfJSEbWbPHthz8oz23rqHV5MuX7OT6+FYVFdXvnkZGWPNHt7Oa3dMe3T7tI9M0e+Y+a8XPSuiQT4+crZjl5UtYE55fwyJkTxGinAVvfrTnTOGdFD47RJ1azurLmn6ufaIawiH3rZ2XNOxKBppqaUHLH3btnsomyBuE7tn9c/aNTyGdn9r9BhPiU2s7qXx65A0VJNVv/gMZoWnshl1JVrP5D7uSf3iK5jh/vtnqDiuhQz4ddLSSfpMNzIXlmsXJIidreivhRQo4ZsEWho/3DB7C+HrC1EeqgZ11xU/tlqcNPaFNrU3y8qls1px2a0mav0EnABtHObKe9gMrdI+vuigjAwIgAAIgUMgEjDMf2ZbdtKRLzlWby5eQljX3HrhVOOV6/ZMzH9nGFHPXtEc+mbvXNM2uaTIqLtnNjw7M3WtG1lBNVkIVWBNlW2Wstl79cto/k4W3fIkTgoyHlbM65F1m5IMEOzr3AM2auyx4eXd6OZo68tZ+JHFYJF6ycVcy0MQlL5vbnlpLAr14euR1EQPtTnilc+Ou5DOks5uf2dX5AFsg/owM8nUm2YufijwwXdRkJc3PiCaO6XBuxKeDTvvPPMXMbo5MoAg3PrDZaitd797Iu/DUbsbNaYFVszUMBi/G14uzfXTYwNEJJjN8TKfWslFmg055Js1fVyfq9I0T5Gnp5cI6Q7J61D2+6o2MDAiAAAiAQCETMM6cGclueq2LpDbzIvSu5bGdptJXf2ILgOrbt4/a9Qq3ru7hBpm1nrlzrfhd9tkhJp11izaPzN3y1yLMrF5L5COrP2GHeubO1aP9ZO7enshqemBgm+igHme28+5bOy/ZsDMZaKqhWfOnmdOnmf7meRbD7v9RWjfh5U5bPFTfLrif2q1XWPIyrTV/emeSWdv4QKPVHZd9dqiRy27LptPjzuSGxs4Hnqr7HzWWKRle89ONnQ8/RY8TS4RHssNqchXIzLKjepAB5DG+AnLq8WWnysYHGvXTrPOB6RsnvExPeuw0UycS2+Vnmssg1bSfhMMyvoV8H0LfQQAEQAAEFAHjzJlbkXKRQCrptn5nEikPCGB882AQfbrgHl91UUYGBEAABECgkAkYox7+J1IuEnDf2nnJuk+SSHlAAOObB4Po0wX3+BbyfQh9BwEQAAEQUASMUb9qRcpFAu5bOy95f0cSKQ8IYHzzYBB9uuAeX3VRRgYEQAAEQKCQCRijZnyMlIsE3Ld2XlK/oxcpDwhgfPNgEH264B7fQr4Poe8gAAIgAAKKgDHqoS1IuUjAfWvnJWtjvUh5QADjmweD6NMF9/iqizIyIAACIAAChUzAOGP6P5BykYD71s5LVsd6kfKAAMY3DwbRpwvu8S3k+xD6DgIgAAIgoAgYZ/zyI6RcJOC+tfOSVdFepDwggPHNg0H06YJ7fNVFGRkQAAEQAIFCJmCc8YsPkXKRgPvWzkvqor1IeUAA45sHg+jTBff4FvJ9CH0HARAAARBQBIwzHmxBykUC7ls7L1m5vRcpDwhgfPNgEH264B5fdVFGBgRAAARAoJAJGGf8vBkpFwm4b+28ZMW2XqQ8IIDxzYNB9OmCe3wL+T6EvoMACIAACCgChlHWgJSLBL5Z+cnsjUfUQCYOH/n/dx+o3p+LfUHMbgIPVO/H+Lqx5E2Je3z19zLyIAACIAACBUsA0jyHn0y+8ewOXal8+8Vd+i7yuU7AMaCO3VzvHeLHgOIcAAEQAAEQcBA46d4PIM1zWJo7hhO7IAACIAACIAACIAACuU2g63CfiQ0EQAAEQAAEQAAEQAAEQGBYCXQd7jOGNQA4BwEQAAEQAAEQAAEQAAEQEAQgzXEqgAAIgAAIgAAIgAAIgEAoCECah2IYEAQIgAAIgAAIgAAIgAAIQJrjHAABEAABEAABEAABEACBUBCANA/FMCAIEAABEAABEAABEAABEIA0xzkAAiAAAiAAAiAAAiAAAqEgAGkeimFAECAAAiAAAiAAAiAAAiAAaY5zAARAAARAAARAAARAAARCQQDSPBTDgCBAAARAAARAAARAAARAANIc5wAIgAAIgAAIgAAIgAAIhIIApHkohgFBgAAIgAAIgAAIgAAIgEAQ0ry6smFCdUKxbq1uMcoayjapApbZtNVRyKvpDc22XRPKtlbb21l7dNRl1jS93VnN9peV8fAST85sMMrsaeauVqumaZq8TsuTbbZStePyRcYNpxFVHRkQAAEQAAEQCBOBjN6L2T1Rv2v73UOrKxsM9y2e4kl5zw0TOMQCAhkjkG1prvSu9dZy6VfWGcflgOlsJpSthmbb/jJSz1ufZOJeyWih8pU0t9radbYmu6mJ8KikuWBKV4fUYpoHb1Tu9xoBJsTpysJ7vbXahDT34oQyEAABEACBcBLI4L1YTI2RNGey2+OOzGbfxF0Y0jycZwSiCp5AlqU5e5MLpeutmKXytl0O7NLW9hjN5a9Sz7Rbton9rXbMmjMjmsh2am5NmjOV71T8fBY/1QVFPRhQhit1ZlBdaFivWbRaDMEPMDyCAAiAAAiAQLoEMncvtu6eM3c96Z4RZ5KA7pjMo+2Wyj7KFrdsOip1Qrp9QD0QyG0CWZbm5v4ylzB1z5pbb2Amc/mumAvnb1pmhBoyEUwZ9lafUL0rtTQXIl6fU7d9WCYuQFSNL5thgcmP3tQcPBtfHjOvxgfcXWKF7XWhMaSX3D5fED0IgAAIgECeEsj4vdh2V2WfJ/M7sr7MlZyyWzzzLm/BfKJ95q5WSPM8PdnQLR8C2ZbmzLX3fLn8bEvJbrZSnEtexwM0n5lu3bR1AtPuVCelNFdLaKR9bR2LZXZm7BfOleUtZZUtpN35hWCTfQ6ed8F6zOBetEd52ceyTWrK3zSxoMXn1MMhEAABEACBkBHgt+CyTeJrWtZNU91JK/endy+mjmnSXEyWkQqXt0s215bqlr21jEt2SPOQnSEIJwACAUhz9sbzXpytOijftF7f41SVKEPvUrbyJKU0t1UfeIddI/hzvLiIeEpzsXxcfs2U6sh1LMyHmmwo25SorhSz+5DmA/NHDRAAARAAgbAQyPC9mAt9oe+tuS3WW3bz1T+Lxqx5WM4CxDHcBLIuzdUjuKOnrFzMOqt3bxmtFxefZ9k/5NLmp/mDuL8059JZPeXbM2KJC1fbM1vY77rsLyvznTUXTwX8czd9Xlx0S5PmekfZZc5xPdKPIw8CIAACIAAC4SCQ0Xuxmg631qh499Lzfl25X2gAPlmW4lfRvA2iFARynECWpbl8y8llHl6LTGbuqqxsmDBT/qIiazKhOsGuEfLXTqS65YX0Cy0zt5bNbEi51lwacYwOv+7oq8/Zw0BDWSWbBScFz78MurVam02XRtSFhnoh9b042Fq99clq/vuP1qyD86NA2QtpEK8gAAIgAAIgEBYCtAQ8o/dieR8XP4nmvCfymTh2vy7bxH/FRd70Ic3DclIgjmEgkF1pXl3ZIgUr9Y3epVKesnesnDXfRGvXpN5lClh8+UP8+jcj1/YAACAASURBVIr6zEv7wIsUsNTHLK//Qguz5roKiAcD3kpcMuSiN+mC62/bJL01LLKy93c6rS6oFpg1VyiQAQEQAAEQCDWB1kzfiy1pLvut3/pFmbx1yvs7uwtDmktieC1AAtmV5gRUvuvk/+vRfw5FU8BWNdmESW3rCZ5sMaWrfqSFLVNhOttbmku1bQ0ruygIQU9XATJl2VTRMk2vxcYNCF0uHjaojmMBvd4F4RPS3IKPHAiAAAiAQNgJ6Dcynj+Ke/HRSHMBimJw3Y7DDhHxgcBREfCT5h/uSkxbvOPih1tOuveDVDPQAzvX3+e0vLulbBP9Z1Dno7OtmmVVPkazElaHBLfM6FKb/a9QOY/OKqSKWc61y4/YlMKWZk3x/xHU5YApbJsWV4tbVB35RGH7L6eDk+apAkY5CIAACIBAfhM46d4PLn64ZdriHR/usv55tnUvTCOXhVu25XVo9+IhSHP6YRbrI3GXVLAisuXy+9xA7/KGQJpvc29pvu9Qb+mC7UX/4bU03P6VStubw3OH6V1LDcufOiHQcnELtZPVuNp2D4Ncfd7yZBvpXTkjTlp/QvWuJ8UvIcqvm2giWw9Kl/LsQmMJa/0Qb8Kn1Vk11wS5MCoFOhf3sguaR0jzgU8h91ijBARAAAQKlkDRfzSULti+71CvdisZIJuNW/bR34utu6e2FtQ5rGpqTMyIyZu4mL9jdxBdKqQg4TRrFyo4CgJhI+D/NveQ5vsO9X7+vk28G/9ZFW3Y3t11uC/F2wHFIAACIAACIAACR0ug63Bfw/bu/6yK8pvv5+/blKY6xy37aNGjPQgERSDNt7mHNC9dsN0oazj2f/6tamNHUNHCDwiAAAiAAAiAgFm1sePY//k3o4zmztPBgVt2OpRQBwRCRcD/be6U5i27Enwdy8vQ5aEaRgQDAiAAAiBQGASqNnYYZQ1F/9Ew4Lpz3LIL44xAL/OQgM/b3CnNpy3eYZQ1/GdVNA8xoEsgAAIgAAIgkAsE/p9FtLLl/r/s8A8Wt2x/PjgKAmEmkOpt7pTmFz9M//qnYXt3mDuD2EAABEAABEAgjwk0bO82yhoufrjFv4+4ZfvzwVEQCDOBVG9zpzTnv5OI732GeSwRGwiAAAiAQH4TOHS4zyhrOPl/236O191l3LLdTFACArlCINXb3CnN+XfDc6VXiBMEQAAEQAAE8pJAOrfjdOrkJRx0CgTyg4DnWxjSPD8GF70AARAAARDIKwKe92xHD9Op42iCXRAAgfAQ8HwLQ5qHZ4AQCQiAAAiAAAgIAp73bAeddOo4mmAXBEAgPAQ838KQ5uEZIEQCAiAAAiAAAoKA5z3bQSedOo4m2AUBEAgPAc+3MKR5eAYIkYAACIAACICAIOB5z3bQSaeOowl2QQAEwkPA8y0MaR6eAUIkIAACIAACICAIeN6zHXTSqeNogl0QAIHwEPB8C0Oah2eAEAkIgAAIgAAICAKe92wHnXTqOJpgFwRAIDwEPN/CkObhGSBEAgIgAAIgAAKCgOc920EnnTqOJtgFARAIDwHPtzCkeXgGCJGAAAiAAAiAgCDgec920EmnjqMJdkEABMJDwPMtDGkengFCJCAAAiAAAiAgCHjesx100qnjaIJdEACB8BDwfAtDmodngBAJCIAACIAACAgCnvdsB5106jiaYBcEQCA8BDzfwkOU5n395rzGjpIFrSNmNRVVNCKBAAiAAAiAAAj4Exgxq6lkQeu8xo6+/oG1gec929EsnTqOJqHdfQ2bRiC0w4TAMkvA8y08FGm+bmd85JwW/wsQjoIACIAACIAACHgSGDmnZd3OuP893vOe7WiSTh1Hk9Duvvbaa1FsjMBrr70W2mFCYJkl4PkWHrQ07+s3R85pLqpoPP6JzVcu2XtLbdc3VyeQQAAEQAAEQAAE/AncUtt15ZK9xz+xuaiiceScFv+pc897tkMWpFPH0SS0u5DmUblBmof2LM14YJ5v4UFL83mNHVyX37js0B2rE0ggAAIgAAIgAALpE7hx2SGuzl9o7PC503vesx3106njaBLaXUjzqNwgzUN7lmY8MM+38KClecmC1qKKxiuW7L19dQIJBEAABEAABEBgsAQuf31PUUXjxIWtPnd6z3u2o346dRxNQrsLaR6VG6R5aM/SjAfm+RYetDTn3/u8qabrtlUJJBAAARAAARAAgcESuGn5oaKKxhGzmnzu9J73bEf9dOo4moR2F9I8KjdI89CepRkPzPMtPGhpzr/RcuuqBBIIgAAIgAAIgMDQCPCbqc+d3vOe7aifTh3TrC8vrYppLWNVpVP0kvryKeX1pknF1kYltMWqSkU2VlVqtZI2bYWaD57lterLpzAHrsO2gpBJ8/lTjfEzVkWHZYM0t50Zeb3j+RYeojT/+qoEEgiAAAiAAAiAwNAIDJs0Z2K6iqtxJXpInVdZ0pvrcSasXdLcruCVlrdUuzKqPRQI9a8dcmUhzaNygzR3nR15W5BJaX5LXQIJBEAABEAABEBgaASCkeb6RDgTz/XlYsJcZZTo4RPgTEQ7pblNjrNJdPesOc2ND7DJmXjlUs9AmkflBmmunxj5nc+kNL+5LoEEAiAAAiAAAiAwNALBSHOSNZYIt68sketa5HEfaU5mZHVm0KnBU4hua8p9YH2lSfP5Uw1j6nz6y7ep86NyWzVjvCw1RDGvzSvQYbkOhfJaFbspfpC70MxLN9GotqBF88mrpuHRMuTIvfXWW46SaDTqKIQ0NwtmgzTH4wQIgAAIgAAIhIJAYNKc9LiaMC/Vl5NPKa/nC01IdZfXDyDNxax4eT1pfeeWtjS3BL5TfDmkOYlzrmFJCHO5zTSyLLZ2LBW9asZ42vgacVlMFUWRlWWtlQvuyPZXto5G58+Qa86VJLcOenq0GdJ3Wlpa7r777ueff14vfP755+++++6WlhZVCGluFsyWSWn+tZUJJBAAARAAARAAgaERCEqa15eXl5OU9lwLbhNAvtKcDpaWllbVV5WWl7u/VkrSnFS3bSutisl1L8pR2tJcKvBoNEoymnaVMo7yTe1Lpbxqxvip89mfqDXtrWpRI6XNVUbYcr1Im/oBq5E86ulRb+LKO9S5W5dHo1FIc7NgtkxK85tWJpBAAARAAARAAASGRiAYac5WlJA+JkktfnNFfiVTW23CVHk9+xqo9t1PW1b7mugAs+a6HNd8DCS2HLPmDmk+fsYqSxgLvasKKMO1O82Oz59KOzSdTbPddMy+qWLNhbCovUjx7TTA59/9PGpGvLNKnXvqckhzs5C2TErzG1cmkEAABK74w6ovff17p11352nX3fmZfyk+47YfggkIgAAIpEMgGGleX1UVUz+eyKfF2VpxvixFinVegx3mP93CFbUuzauqYrK5Ek66BleF2s+yUJl8DtCOp8imluZy3lu+RsVm7XOlPH8q1830Ol8tNFcaWzZjr1Jb2wr1HdnMcqLNucuZfG+PupkUea7OHetYVF3MmpsFs2VSmk9ZkUACgQInMHHx1mNPOPEL428ovu7O4uvu5PMyV89rKHAs6D4IgEA6BIKR5kzhWBJaCGUqqNJWpSj9LNak6ItfrHlvIc095sxpGYvVxnJH3nXbpUzfa1V1AeaQ5nJ5OJ+15hPcJJPV+nAS11yK84Uq1iJzvv5bVaRWquL8qdzUUKQ5cy8t2RaZOzxG09la2OZZE9JcPzHyO59JaX7DigQSCBQ4gYsfedUwjMm13ZzD5OWHTj7vMsMwuFJXf0//+vcuf2aVzurxPakuNf1VG+zvrOakaSYfH/jt1rPWNM3u3lLPmht6YyazTNbsm6MJ1TTNPT16tDJ/uKrb1INhvUgVG6vsMO4ZGwpBoFAJDIs0t97/un4W6ttaBi5/s4Wqu6S5sMHq1FeV2/6ZETumaXe1BF1+yVT7nRcrFp5zSPOpM9RKFH3hCZPHfCJEiuQobSS1lRi37ciDvJG0lbY01xa0sJCUV5sT2w4L6Gj+QJqbBbNlUppPXpFAAoECJ3DRr6pImmvvhasXNH3xxv9biXKe+cL4G4494cQJf4momiRqu3t/ojWcvCLxk239JhPQqtrkFVwNe1SmOm6dbb+WrW3mdfqrmpngNs3YtsOyISl1zZHKM4nPHgacR6Vqn8wysW2HlTQXNdOJx95lpwscBYFCIhC4NNcUs/5lTba0ha1F1/9jp1zcos+H81lzaUYshlHf/Sx/Q34LVC2TUZck3saaV1cH9IxTmls/mBgttA3SXD8x8jufSWl+fW0CCQQKnMCFTJoPDKGm2zCMi2a+qmr+ut00u3p/Yn8TcWm+aL3zncXKSVWr5rZME5sIb+/hhbzy2iZphI72L2qiWXNmmStv60IX23aYgvHfmHEVnnLBGiZ/rfdifW9M9Ovwoi7ZR6tQRqU3QR4ECpVAgNLc/x0elqOQ5lG5QZqH5aTMfhyZlObX1SaQQKDACXBpng4EwzAu/FWVqvlYSjXcH+sy1zY53lxiJvsx25uOaV//q0ZX8p0ue4325FpT2SezsW2HeVQsJJLvIsj1bKK9vUfGzGOgCp7Bczs/pol/blNI8x/XijhdnZKObJ1CIQgUEAFIc/vlyRw+aa4tkvFYKhMNfoM0d5wbebybSWk+qTaBBAIFTuACNmueDgTDMC74VZWqydRt8jGPNxETsu09qiZl+Lw4k7y2co/mKd6VZIG761ljmmuarL+xbYeFTeZF7XL9vaZJGPwR09w0Ab+e2posQq9ecCEuq3X1PsYbOnqUfuSoCQL5SwDS3KG3NGkevBgOl0dIc8e5kce7mZTmE2viSCBQ4ATOn7HIMIx0IBiGcf6MRVZNPiftfbHpe2m9/uZKvEQz330x+pt81PG+k6rdbSkWSTB3R0iLt5M0f7QpabYnmTRnhU30V1aLT6yhXeGCh9fV+0Pp7lExzd/3Eq2NMdc0UYSs0BXS+t415JpZIwtH1mh2LALSMkpAoGAJQJo7LlyQ5lG5QZo7zo083s2kNC+piSOBQIETGMekeToQDMMYN2ORb83EQrY4+weOdxafzI4kSlRGr0CFfQvX29+MTFjHIglyxytESJqvkato1jBRzv+KaszmDyJ9dPlr76VI7GbFIXvhI2Qw+YiMh+36Xj/bj/gSsPdCmkUTEMhXApDmjuvFa9g0Ag442M1XApDmuPeDQCYJDEmaMwnuf43p6pUCXcw9812mfe1CnOl1T2Ncc5Ok7ur9gajWt3A9GWST6CKvS/OSGis2ezlBY+q8byGpfK/NipkqK5nutpOvMgv9AoHBEoA097qUoAwECotAJqX5hOVxJBAocALnPUQLWtKBYBjGeQ8t0mty8bp6s3ofiVnz71vvLC6U+xauU3WOrKZLVvIRVWczmzW3KrCa63qjphmNJCYsJwuUYSXKl9TNmh1ukFWzLortR/SAv09z6nowXH+7jCyPs5rm6s1WRreDPAiAACcAaW5dbZADgUIlkElpfs3yOBIIFDiB8x5+xTCMa5Z1DcBhWRdJ84dfcVS7h01p3yPeSkx2tx+RdbgKJyksS1hGqOfkTN6KpLn3Fo0keEPyYpJQ5rsz2SqUmUy1c6nNyrk70xQBqOlzKwBmx9q9ZnlcmtIjFHaUO+5dmtVrIg8ChU4A0tz74oVSECgkApmU5lcvjyOBQIETuOyVrUUnnDjishtOmXSnTxpx2Q1FJ5x42StbvXFZ8rpvwTrxtnqYBLS1a2vI1Xn7ESpks+aqlajGKkQjiauXx5md5MPi3ZpYwJaz3yPfvHS0/QirQxmbF6rD6tPqczrEpbnuy26c+/K0Y+l+lwtcRkCgcAlAmheSAENfQcCbQCal+VXL4kggAAIXzqkbefP3fHT5KZPuHHnz9y6cUwdWIAACIKATgDT3liooBYFCIpBJaX7lsjgSCIAACIAACIDA0AhAmheSAENfQcCbQCal+RXL4kggAAIgAAIgAAJDIwBp7i1VAizVfqsQ2XARCPAsGGZXmZTmly+NI4EACIAACIAACAyNAKT5MGsi08Q/OYqGciuo/7iUSWk+fmkcCQRAAARAAARAYGgEIM0hzUMpjIc/KEhzw/He8NTveh1+NblsaRwJBEAABEAABEBgaAQgzXVpMSx5zJpHQ7lBmg9Rmn/1vTgSCIAACIAACIDA0AhAmg+LHNedQpqHUplHIc2HKM0vfS+OBAIgAAIgAAIgMDQCkOa6Sk6Rry+fUl5vHasvn1JaFbP2jzIHaR4N5QZpPmhpPmJWU1FF44VvHxraxQitQAAEQAAEQKDACVzwVmdRReOIWU0+4nLA9aWmaaZTx8dFuA/Fqkqn6FtpqWO/KlZfPsWm3U3TjFWVpivfNWm+asZ4Q9umztc06/yp6ohVToXWXjQadVjgTagGb26rywsdRZrHEGTnTzXGz1g1PIFAmg9ampcsaC2qaBzz8p5L3o0jgQAIgAAIgAAIDJbAmJfbiyoaJy5sNVNv6cjuNOrYBK4+BZ3ac0aOkN+jcSdnyNXEeX05l9zygIzSsT90aa6kqCa7meC2NPT8qTKv1YnaN6eo5dLcsCvd1M3txoZtz9mLIAOBNB+0NJ/X2FFU0XjcE5vPe6Pz4nfjSCAAAiAAAiAAAukTOO+NzuOe2FxU0fhCY4eZektDdqcza65JVVLL6c4op44rzSNHK83Jje2xQp9Ad4t+mj93b/7PBo5ZcyXNSY+LnZQKNbW2djah/alTaVJeOcCsedRvgzQftDTv6zdHzmnh6vysl9vHvdl50btxJBAAARAAARAAAX8C497sPOvl9uOeoHWhxXNa+n1VbualuWk6Zph9/R/lwQxJcy9xHasq5cVe3dEeRQbqQQppTsp8wMnxwUnzGav4ehclzlM3j0rdTlWsZTFRvnEztmLdlPZQwVbYiG64TfE+8nLZV+GCv2gPGJpPXjUNjzZb+s5bb72l7/K8oxDSfNDS3DTNdTvjXJ3zb7HgLwiAAAiAAAiAQPoERs5pWb8zbvpuWZbm+jSz0L+a0tUWcVulVhM59871NyuXRbJPXtJcmwV3aWsvj1p9x4y4UuwuNy5pTjWcwfEgHdJcKmHbInKhS13yVZenUdumiVpWrvaZELZm45X8t7WmHbtipj3eisUiI7F2lANS47TxNeKymCqKIivLWqeOgMUg7cyQa85Vn6VptsLe7dHVIVnQ0tJy9913P//887KAXp9//vm77767paVFFUKaD0Wam6bZ12/Oa+yYuLCVfys0/esRaoIACIAACIBAYRIYMatp4sLWFxo7/OfLTbZlXppbIpV0sCVXpSq2ZG59eWmp+DalVObylWJTFSnj+iImD1/V4busVbn8eZW0PDI/SoMrM17FZM9zK62KUSBWXzUz+n8DtUSr/EanlMBRpZVtkl3JVDpu2yzdyou1faa5meJN3VzNmiujFBtF42yj9qWHVTPGT53P/nAjbk+qmyqjvDgy0qZebDWSRz096k1ceYc6d+vyaBQ/nmgOUZqb2EAABEAABEAABLJGIHPSXIlWqVB1mU3xSxktX9k3LvnXLuUktEv8MluygQcE70NUKjYmumUtD49prjVXXxNlMUh7HgG5ixyz5mKWOKrpWsqrzRLWbvmsKunzzbxQyli2J20oWa01VFnHQaGILWEsKqoCynDtTl2YP5V2aAKdZrvpmH1TxfrDh/ItMypqhwEOyc+jtJDyValzT10OaU6/vGTat3SuBfYW2AMBEAABEAABEMgwgXRux2nUkdpaj85DmnPVzitrorxe/hShswk356OEXYeoQE5fWwdTe+TSfKBZc7XunAUkdbp81Tvtzg9SmnOdy7Wpawo7qjYlakWJY5+L8/HjbXPwqjHLOKS53JWvsrK1z5Xy/Kk8Nnqdr9bLO9yLxlJbS1uuV9nMcmLrvp9Hly13AVfnjnUsqhoWtECam9hAAARAAARAIGwE0pDdg/yFFquHNAcup9BtXw4lpVwqfvWQ52U1uQaFGakv55LZktiWbZFzHdLEPVPpQnSn8uiappez7eqVItOVOVf5MhAZIvtIQHZCHuSvqaQ56U41OyykeNSx0EWXrHTM2qSolSXOfbGUfABpLpeH82lvPsFNPtX6cCtIHpm15JuvOFcVqZXqhPz1x6FIc+ZeWrIta3d4lD33fW1hm2cVSHNIcxMbCIAACIAACISNQDalucn0uBK52tS0QzVrAp5pXH0xirYSxoMdM6Q8CBkt9kvLy60fPffxSGbpsD0+7z05Ua77ZTWpIC1prq370NZ6kIhVm1XOdKoq18QvKW+pX6O0OfelxlfamdXS/5DtqTOUX8spX28uvNqcsChlRduOcsea6VVkXnet8ipqq/8sJOXV5sS2o2wMNQNpDmluYgMBEAABEACBsBHIkDQPW7cGEQ+bOHeoan2aXJszt+bYtfqxKvW9U0+v2qx5NEwbk+b6/yMNU3ABxAJpDmluYgMBEAABEACBsBGANM/2iECaR0O5QZoPXZofOnSora0tGo1uxwYCIAACIAACIDAQgWg02tbWdujQoXREJ6R5OpSOpk4IpLlzXQxbCxPwrLlnDMOp2SHNhyLNE4lELBYb6BKE4yAAAiAAAiAAAh4EYrFYIpHwl5WQ5v58jv5oCKT5cCrg0PqGNB+KNOe6PBqNdnd3J5PJo397wAIIgAAIgAAI5D2BZDLZ3d3NP22OxWL+/YU09+dz9EchzaOh3CDNBy3NDx06tH379lgs1tvbe/RvDFgAARAAARAAgYIi0Nvby2e4/Fe2QJpn+6x4DVtYCWR76MNj3/NtPmhp3tbWtn379u7u7vB0DJGAAAiAAAiAQA4R6O7u3r59e1tbm0/MnvdsR/106jiaYBcEQCA8BDzfwoOW5vyTOKxjCc+4IhIQAAEQAIHcIpBMJrdv3x6NRn3C9rxnO+qnU8fRBLsgAALhIeD5Fh60NOffZwlPrxAJCIAACIAACOQcgQFvpp73bEc306njaIJdEACB8BDwfAtDmodngBAJCIAACIBAoRCANC+UkUY/QSA1gaxLc8MgoY+/IAACIAACIAACOgH3rRnS3M0EJSBQaASyK835NajQmKK/IAACIAACIOBPwPP+CGnuDw1HQaAQCGRXmhcCQfQRBEAABEAABDJCANI8IxhhBARymkB2pbnnrEDgvFb87NxvPRsxzUjlHTwTeARwCAIgAAIgAAI6Ac/7Y/DSfFNl2cxqv59r1GNGPocJbKpUA61lc7hDeRx6dqW5Bm7bs3de8LNarcAvO6jKfobYMSnNB6yICiAAAiAAAiAwfASCleabKsvKKjex3rZVzxQ5trupkvZ4oTiUjpxz1HEYNaVFja8WglY6LNkBgzdNipbr202VktywxKo7baueWZZ6k3Kc9446YNvkYVP2Xr6SB26ZzoQhng96mMgPgkB2pbk2KzAotT2oygP2FtJ8QESoAAIgAAIgECgB7f5o+Q1OmnsKOiXUuBgjaV0tNLtbZltRq5yu65S0Y1JQWNascJWoeVRWXBk9VvkAIUVmWgZcFr0K/IJfwSWtcCZ9S5ErY/KyKgUu1RX1vLrj3TStUo2pq77oU1v1TBsn2VX5atJ48xq2vmkdI3E+6POB4rF6q1ljgVpHFBpXB5yRUwUZoq1LrpaigCprjgdu6+VRONXspHLnrjmwRw9b2ZXm0iFJ7bPPZemBFVRY+6DYvbMyQvtWhZ/VWvmzeWVphb2u+Bm3c+4F4igtU3mwRtRZ8TOVVy4eeFAsaDG1o9RKhOSYy695QM3ua5q+9kHmzuGdQr3juW3Cee2DZ4vu2CLGDgiAAAiAAAikQyA4aS6isQsRT31WRjPFm/SpWU9NJCWIJUHFrLvebyYjuSRLT+ewxvYghdzj7TO0Hiet4Dkdin5m9SbxP1sH9r+pWqwXIh8saFd3dEJDzGsdkA8MliRlc96EvtI5aU51Z1aLBw+Wr7aWvVjsrQrceDrng+iIu/uqh+lwcNUh/GkOPTvPZs6U9flTwoBtXR75w4VuR/XAmRmaR6cV+lXDsgajrMFxIGO/a67NCpCKFSI4UnmHlLCR575F0lYIXxWGVlmVOTNSN3tKc31ZOWl0ttZcSXP9qJ7nLlQwtQ/ecScLzzRFnFYM0rsmxzVNb9VDDgRAAARAAATcBLT7o3UwIGnuKeSkpBPCu626srJSTrYqBSqnaLlA1deok3AlXbeJptmZRpEG5SIQrqm5NrK6nEbOuXqErEszIjJWVC2eHyo3qZlVUc2KR7azux0geKu5ePBo21TJV5F4m7MbF3sqamd3mPajjycYsMEHT/b5ihObX3uRzan1CKaesmSRrasyILLrfz7YPHvuqO6ro7aQVKk94xTKuhV1Utqb2Pe0BlqWzg/VdVcDryN6Y3sD555WU8v6eHQayLo01xxaajvy3LfElLmaRyd9fIE25WxV1iyoLB3lFkjrU1vXrLmS19RIymglzW1HTaeklgZrHvjWs5EVP6OniG3P3snFvWOCXzMuW6kokQEBEAABEACBQREISJqLmHRtJKUZO0TSfWZ1G+mimUIwVrLV52rdg7tXTnVriVZu2vdxwJoItfQ8m8Rl4t9qykWTrteE+qEXaxm4nDCWAkzvqDtypmztzxXO4KmRZoxC02ZjuUkrSt4Hh8CzZJpVUVQ5yuBFcDZyuqh2xa7VVEHyoKx+2zDRwYHOB6tXA3RfWbZaqCjUMZnRh5rK9H1F1DLkdq0qpWgrHalX3YMq1GfcqTCjHjUvMjsMs+YkzT1WqohVLmxmPbU0t6bAZR2bJhZLVuwuBinNhRDXRHmtnOZ3e5cT6q5pdQkYryAAAiAAAiDgIjCcs+ZCXHAhRuKFtJF8FZE6JAqfLvfRuF7SnE/caqpfTrr7SHwXKK1AqGM9NJG3KzA5py5L6VUqd82clR04eG5CGpF7QuSmULS6ffm0YJVZYl+GaVuqw+fS+ZdxfYN3xKLpbpaVH2Ho8lcbEeFTeXBZk33TofNGPrO2FwAAIABJREFUfH5fHtc75syTkvWpJx96nM0cUpwO61HoeY+mvMjOVkFI3TbFEc1OSl9D9OhhL7vSXHMolbRp/xHD2kr6WcPaFXyxuBS4WmXNBDVVsp4UOV8ho5Q3O8pn0OmomOdmk/SDWdDC1ba2lOVnDzzIF5R7eWfdufPBn1nT6vaIsQcCIAACIAAC6REIZtZcygwx98dF06ZNUgZWrhBrK6TKExVoobLSNq7+eKhbIcQ1IaikuU1jKVt+k5GsEn80kPFTkaXWpfjTjmpZOdXprRAHCp7pNbYMe1MlW3picVBPK6mCtweh+iqCp3i0Gt5Z/+C5ARFRW3UlX9tu6V16QOJj4AxRG1A5SNYIUYB8j4LSN8/zwWlbEtJ6ZOu7vqMY6oUs7xTKujXVw1SuyYLWQMvK08bljzWQoetH9caDmTWXZ6WPR92NyGdXmuuzAkwii+9uirz6KictNeFrVMTSFL2yPWpZk9SwWLyurN3xXKX6GqgqPNvza6DqS6JSwbNvpsqFMZqyt/8auod38R1Wz88B7KFjDwRAAARAAAQ4Af3+qJgEI825O7kWmUQHLaGuFt9spKNKEamMTeSoeLWMULe0AIb/lgct+GYiR6o+JfVEq9SCTDPLGgm1SZEyi5ZOkvLMKvESY+yxQ++W3QFJLbagJWXw7MuMvB88auGXRKG32JceNICiSIlnj+4MJXgWiu1rulJGs9VIUkfrelMbERmnLKKgbBtrr3qhMgOeD9ywVl96kq9uDvKI9upqbw20HHqttkfWqq9H7NPW5ZEb1e14uNGK9JpW3sej1lZmsyvNpRe8ggAIgAAIgAAIDEAgOGlOooFvUrNRicxzGatVIA3Kf5eDSz1HZdEtqe9o15rK1LSrNQvLPXGz+rdJPQEpW8qUCl+U0L5P1mHA86FgwOD1CkxDDyTL7RiIptVrxtYnYk1IphO8pnOt5xhFiz97eMp32QfZOa9ZczYmijjrBB84sqg58Rg7FTvrL3WfSkQbdVDacI+L5VXhU0WylYdbq0g7MfSTWrZNyyNZs9ux7Ltz9pqDi1Zay64095wVkK7xCgIgAAIgAAIFSsDz/hicNDfb5CS5FA+aLGeaSaoXpkrUQbvwcIwd13fcoGruFmPKGGvOqlu1HSazsWuXn9JDGsFLaalEtmwb4Kt38CoAptG55tUxS+XN69n3xFMUHwJ5NjApTX+oeKjng4oqvcwAXUvPyKBqBe8xvfCyK83Ti8GnllxAYl/u4tMAh0AABEAABEAgRwkEJ83VjKU+U56j1AYZdlj1WFrdyOng/XsYfNeC9+hPQB3NrjTnswL4CwIgAAIgAAIg4CagbsY8E5w0dzjGLgiAQGgIZFeah6abCAQEQAAEQAAEwk4A0jzsI4T4QCD7BCDNs88YHkAABEAABEAgDQKQ5mlAQhUQyHMCkOZ5PsDoHgiAAAiAQK4QgDTPlZFCnCCQPQKQ5tljC8sgAAIgAAIgMAgCkOaDgIWqIJCnBCDN83Rg0S0QAAEQAIFcIwBpnmsjhnhBIPMEIM0zzxQWQQAEQAAEQGAIBCDNhwANTUAgzwhkUprvxwYCIAACIAACIDBUAkFK875+c15jR8mC1hGzmooqGpFAAASyR2DErKaSBa3zGjv6+gd+jsikNB/YG2qAAAiAAAiAAAikIBCYNF+3Mz5yTkv2hAgsgwAIeBIYOadl3c54iguAKIY09+eDoyAAAiAAAiAQEIFgpHlfvzlyTnNRRePxT2y+csneW2q7vrk6gQQCIJA9ArfUdl25ZO/xT2wuqmgcOafFf+oc0jygCy7cgAAIgAAIgIA/gWCk+bzGDq7Lb1x26I7VCSQQAIFgCNy47BBX5y80dvhcCiDNfeDgEAiAAAiAAAgERyAYaV6yoLWoovGKJXtvX51AAgEQCJLA5a/vKaponLiw1eeyAmnuAweHQAAEQAAEQCA4AsFIc/69z5tqum5blUACARAIksBNyw8VVTSOmNXkc1mBNPeBg0MgAAIgAAIgEByBYKQ5/3barasSSCAAAsET4G9An8sKpLkPHBwCARAAARAAgeAIBCnNv7EqgQQCIBA8AUjz4C6p8AQCIAACIAACR0MgSGn+9boEEgiAQPAEIM2P5iKJtiAAAiAAAiAQHIEgpfktdQkkEACB4AlAmgd3SYUnEAABEAABEDgaAkFK85vrEkgBEPhaTed1r3583asff62mMwB3cBF+ApDmR3ORRFsQAAEQAAEQCI5AkNL8aysTSNkjcOOyT8+/78kvXDrxmGOKDLYdc0zRFy6deP59T9647NPs+YXl8BOANA/ukgpPIAACIAACIHA0BIKU5jetTCBlicDlTy793OljDMM4fsQpX5x815i77xtz931fnHzX8SNOMQzjc6ePuXz2siy5htnwE4A0P5qLJNqCAAiAAAiAQHAEgpTmN65MIGWDwEW/fPGYY4/77GlnXvTLF6fUHNJdTKk5dNEvXzyheNQxxx530fT5+iHkC4cApHlwl1R4AgEQAAEQAIGjIRCkNJ+yIoGUcQKXzVp6zLHHjTj/iklLdqQyfu2S2Ijzrzjm2OPGP7ksVR2U5zEBSPOjuUiiLQiAAAiAAAgERyBIaX7DigRSZglcv/TTz54+5oTTzpy4JMYtT67pKlm81e1l4pLYCcWjPnv6mOuXfmod3dAb8z3X1jazIWtOmmZ/1QY1fD1rqVXycX1AHXW45e7eUlVnQ29M31XllCGDwpetXHlE5qgIQJr7nuY4CAIgAAIgAAKhIRCkNJ+8IoGUWQLn/u8nDcO44BcvKrNf+V+/NQzj1Gu+MendDlXIMxc8+IJhGOfeN9tRPpkpY3NPjygnkW3Gth1W1X6yrZ8LcV7y+B6TlPo2ode1ViTftTp0lq9tloMuxHpybbd29u/peXyPGdvWy6W58ohMZglAmmvnHLIgAAIgAAIgEGICQUrz62sTSJkl8PlLJh4/4pTrlh1SZkdP/X/5z7N8btQ5X51Tq8qvr01ct+zQ8SNO+fyl1+qFLM9mwdt7RHmTkOZs9/CiLv30TS4imW6ubUpcX8sOdfX+pDbx63arDh1iFtY28fLkr9W4r++NdfXHmO6/vjZBir+959ftUpqTTaSsEIA0t05Q5EAABEAABEAgzASClObX1SaQMkhg0tJO45ii4sl36TbH3PNLwzBO/8b3iz7zWeOYY0bd9dNrqztUheLJdx1TdOykZYdUCcsIaS4KpTSXdehobNvhH2/rN5mwdpzPsW2Hr6tNPEbqvH/R+p7HmnRrLG8mH6tN/HhbP6tJgj7WnoyZTOW39zymSXPpEedJhglAmjtOWuyCAAiAAAiAQEgJBCnNJ9UmkDJI4KqXPzYM48x/v0+3OZpJ8/GVDVf8efPJF15FP6f4L8UT3/uU1znz3+8zDOOqlz/Wm0yq7VljmmZ7jyiU0lzsrqf16GuamPjuSq5hk+hrmsRQkiLv6v0Rt0DSnGt019ne3vOjpiSz4y3N1zAX9qhwtmSMAKS564xEAQiAAAiAAAiEkkCQ0vzamjhSBglcWbXFMIxR/36fblNJ88vnN558gZDmJe8e4HVGMWl+ZdUWtpt4ybZYxesE7er9ISn1vpfWs8rtR3RfKv/DSJ9snHw09ShTNSbu+az5S5E+s/3Io+1mLNLLpDlOj2wRgDSX5ydeQQAEQAAEQCDcBIKU5hNr4kgZJFDy3kHjmKKR19+l2zyLzZqf9vV7+IKWM+66d8I7+1SFkdfTgpaSpZ2qhDJsXjwWSYhCPmsud4Xs7uqjNeKRxKPasnJ2akvVTjt9a9qZRm8/wmz2vbQ+zppTRnokiZ9Kmss6qjIymSEAaR7uyzCiAwEQAAEQAAFJIEhpXlITR8osgRGXTDxuxCkTlnYqs2fKr4F+dtQ5F8+uUeUlNfEJSzuPO/kLIy69Vi+kvNTiotyxKyuYZt/C9fFHSJonH+FDySbUF66P/yDS+4jMl5DQ71u4/sgaJuWpflfvD1h9lqclMbGuPrOr9xE2a/6INmvuDAwnTIYIQJrLCx5eQQAEQAAEQCDcBIKU5hOWx5EyS+Dse+nHE8/9+QvK7Nj/pB9PPO3r37/67X2qkGe+8vN5hmGcfe9se/mR1XSK9i1cJ0dnM/1CSzSSsKqxEnYi90VpDUzyET6UVC4bWvnEwi7TbD9CQrw9udoyJconLGf6vqsv2tX7fZaPRnpXm+bqzTIAnCeZJgBpHu7LMKIDARAAARAAAUkgSGl+zfI4UmYJXFV94IQvjvlM8ajL/xLllq9eemj8y/90e7n8L9HPFI864Ytjrqo+YB1d1xtlZ0I0krAKpTQXJbxOV+8963qj7b0ku20bSXOqKaW5ZcdRyOys3hy/hxam9y2M0AOA2X6E1afHg9WbcXpkiwCkue2cxQ4IgAAIgAAIhJZAkNL86uVxpIwTuOD3S4859riTzr9i/F+iqYyP/0v0pPOvOOa44y/4/VK9zsOR5OoumiDXC6+W0pwXPsxWpNwjx452zeTDfJfJ8QXr2LCKfGKBU7vTuR+NJERDZ5PkAvEV0j5hRzqyhYTCoyMAaR7aKzACAwEQAAEQAAEbgSCl+VXL4kjZIHDOz1845tjjPjNy1DkPzLvy3U7dxZXvdp7zwLzPjBx1zLHHnfPzF/VDyBcOAUhz21UPOyAAAiAAAiAQWgJBSvMrl8WRskTg/N++d8IXxxiGcdyIU065/q7Tv33f6d++75Tr7zpuxCmGYZzwxTHn/25pllzDbPgJQJqH9gqMwEAABEAABEDARiBIaX7FsjhS9ghc/s6B0ffOPvmSa48pOtZg2zFFx558ybWj7519+TsHsucXlsNPANLcdtXDDgiAAAiAAAiElkCQ0vzypXGkAAiMf+fgJQu3XLJwy/jqzgDcwUX4CUCah/YKjMBAAARAAARAwEYgSGk+fmkcCQRAIHgCkOa2qx52QAAEQAAEQCC0BIKU5pctjSOBAAgETwDSPLRXYAQGAiAAAiAAAjYCQUrzr74XRwIBEAieAKS57aqHHRAAARAAARAILYEgpfm/vhdHAgEQCJ4ApHlor8AIDARAAARAAARsBIKR5iNmNRVVNF749qFL34sjgQAIBEnggrc6iyoaR8xqsr3z7TtGWYNR1mAvMw3nvlclvc6AVxO9MvIgAAIgAAIgAAJuAgPeTD3v2Q47A9YpWdBaVNE45uU9l7wbRwIBEAiSwJiX24sqGicubHW8bfVdz7cwpLmOCHkQAAEQAAEQCIJAMNJ8XmNHUUXjcU9sPu+NzovfjSOBAAgEQ+C8NzqPe2JzUUXjC40dPhcUSHMfODgEAiAAAiAAAsERCEaa9/WbI+e0cHV+1svt497svOjdOBIIgED2CIx7s/Osl9uPe4LWkhXPaen3vahAmvviwUEQAAEQAAEQCIpAMNLcNM11O+NcnfNvpOEvCIBAMARGzmlZvzPuf0WBNPfng6MgAAIgAAIgEBCBwKS5aZp9/ea8xo6JC1v5t0KD0SXwAgKFSWDErKaJC1tfaOzwny/nFxpI84AuuHADAiAAAiAAAv4EgpTm/pHgKAiAwHARgDQfLvLwCwIgAAIgAAI2ApDmNhzYAYGCJABpXpDDjk6DAAiAAAiEjwCkefjGBBGBQNAEIM2DJg5/IAACIAACIOBJANLcEwsKQaCgCECaF9Rwo7MgAAIgAALhJQBpHt6xQWQgEBQBSPOgSMMPCIAACIAACPgSgDT3xYODIFAQBCDNC2KY0UkQAAEQAIHwE4A0D/8YIUIQyDYBSPNsE4Z9EAABEAABEEiLAKR5WphQCQTymgCkeV4PLzoHAiAAAiCQOwQClOb15aVVMY1MrKp0il5SXz6lvN40qdjaqIS2WFWpzPrtaOZl1ulWlnu/OmsPPUhhP1ZVqnfS2yuV8u7Xl09hFFLX8zxi9yJI6jUz0S+KzbmpQfHwqftPI88GXtkboIGMxYuts6+aKT3K+nLb6SdqScPOjno50gznehbSPNdHEPGDAAiAAAjkCYFhk+ZMTFZxNa5YknKqsrQs1+NMaQ0gzUnWeas6u2hVnlJl7LLuaIJUHnQ5qArdGdVDlWF1vAWks7m9lx4eM9cvp3Fh2VlsRUhid2Bhy0awyj2MUiqXVtXrz2zeg82c2llYcbDHn9Lycv3JTxPgIkQ7KNHax6TNfu7uQJrn7tghchAAARAAgbwiEIw010UVk0BKcKqMosplEFN6LmkuFLhNvModpc6lmNNkly2bQtVRe7UdTZA0/+278QBs/tz1ZZRuQIoUZQb2ZfNzVP0ifxptEaGPNOeuy8s9p6f1blBFJY1ljldg5oU0jlWV0+cuMgb1NDAwBGYrLYGdypYIT486n/KQ5vk0mugLCIAACIBADhMIRpoTIEtjkvqRypMJLSbG5HE/aS6s1Kdc3eIcCTJWXs4EnfOQ574MgmveIQbpOfEq3UldqQSm64As4K9p6UkypmlHpVmVqYz0yxLFZFd2xEeaC/eWcxWPnmEC3kJNhjV1LqUy657oJnOdgnLKEVdmmT/ns5Dy72nWjlcPPl/ykOb5MpLoBwiAAAiAQI4TCEyak8Ri8oqEWqk2QU0ynWtJ0kzl9VwGec+ac0VIixJo3YtTXk1xLJzg9kQb2zJ3h/xTY5ipIJl9j/CmaM8kUtpqzoW6tinr9FShvZbNANnPUL+kTLZ6Vl5vHpU0ZzJZyGK9Dypgbp4dqvL+MEKJaj7Q/KFPt8UAcz2uPb4o7MgQAUhznAcgAAIgAAIgEAoCQUnz+nJa1+DQzp4EuKpKKc2pjU3Ves7JMiXGlydzOSYK5NdQadet0zIapGfntEIuFoXKpViExnWoSseuZkDP2ms5pXmG+6Xwx2L1sdjQpTnpb01Y2/sgP7eQjwOlVVWOrxFTL6vU5ycDjHh9OT0AsiG3gZdPGeX1Po9TspItXB1/7uchzXN/DNEDEAABEACBvCAQjDRXKxC0pShSPyqhxyQ3k9OlVVzw8UNMUWm1mFhTkk5IMqm5uaLTZLcu+Lgoc0tyPpKZCtJT+lnqTj6eyP6Lbsf4Awc1Vn2juPT4XWfcgK7I2QaSrwTxaOF7eJMjxbDb4tZi9Xx40o6LrHdP5eiXVsWUf/6UJ5Cyz1wkVDKl2+FNxIgLae72bC9Js5q9Ua7vQZrn+ggifhAAARAAgTwhEIw0r6+yZoWVdOLa1FKoJO+4AKMZUhKoHtKcyTynxtR0u3NYdPPOY479zAUpDSvnHgFqAlJm+QRxKoErjQ76NeP9svdGKFnVV3d8GZHmTIjLDxfYCZDCY4pi/vssbFmTnIjXH5cUdaX/9aOUVzXcHcyDEkjzPBhEdAEEQAAEQCAfCAQjzRkpazZSqCcq0FcpKFEl5JE+vS1VOlNIShsq0aeaCk9qzbrz+6fCJnnQzauhzECQmi2p51TAVjhaxDJLklEIQFsYslAZ9shobT37ZjNITgYPX3nVe6MKZSdUgZVRo2QVeeXkE4r9mNTRbLTYicEe3CzhzA4w78qA5dDK2aS5Y+h9YhfBDFzDHnXO7UGa59yQIWAQAAEQAIH8JDAs0txCaSlGthCBNKOlLHVdZZODfIcqWlOZSpvKYiXUuDexK45aTqxYWE4PSB7Sy0QcVvsUQVIFKzo9eq7y1F+mMdm3KadMYT+6LRjInql+yWhcr0y8OsQmc2/5Fx9IOJoOpV9kghtngVtufcSrjsgRgr7rGDBxSA+SeurhkeIR1KyjamGLPGox0E0yLz6x8yjS7IHemxzLQ5rn2IAhXBAAARAAgXwlELg0Z0LSmvOUOfFTH/RvZaQolcuGxS9zaKpLaEOtIhseh4p1etIMpB5NLtucTUWU6QXJGjuc2QxaP2si46DDojeib472sqLzVWvoPERSVFkV3zG1hSHRs0rU7wHgi8ic3+VVxc7hcAfkX+ItzVUblzx2C2pn9xwQpSR3ViMQruDtlRyWVFB5k4E0z5uhREdAAARAAARym0CA0jy3QSH6nCdgSXOH0naL/Jzv62A7AGk+WGKoDwIgAAIgAAJZIQBpnhWsMAoCOUUA0jynhgvBggAIgAAI5C8BSPP8HVv0DATSJQBpni4p1AMBEAABEACBrBKANM8qXhgHgZwgAGmeE8OEIEEABEAABPKfAKR5/o8xeggCAxGANB+IEI6DAAiAAAiAQCAEIM0DwQwnIBBqApDmoR4eBAcCIAACIFA4BCDNC2es0VMQSEUA0jwVGZSDAAiAAAiAQKAEIM0DxQ1nIBBKApDmoRwWBAUCIAACIFB4BIKU5n39ZuXavddUfHTSvR9wKYC/IAACWSJw0r0fXFPxUeXavX39A1/XeAyOeoZzv6zBKGtwFOq7A15N9MrIgwAIgAAIgAAIuAkMeDP1vGc77KRTZ93WrlP/6+9ZUiEwCwIgkIrAqf/193VbuxzvWccub+ssdO5DmjuIYBcEQAAEQAAEMk0gGGne129yXX7iTz9YWN8W2X2wGxsIgEA2CUR2H1xY33biT+kTqlP/6+/9vnPnkOaZvrLCHgiAAAiAAAgMiUAw0rxy7V6jrOHEn37w4Y6D0QPd5c3xe9Ynvrkm8c3ViTtkun11QqXbVidUunVVQk/fWJXg6eurEiLVJW7R0s11CZW+VpegtJLSTVq6cWVCpSkrE5RWJG7Q0uQVCZWuX5GgVEvpOi1Nqk2odG1t4tqaOE8Ta+IqldTEeZpQE6e0nNI1Wrp6eVylq5bHKS2jdKWWrlgWV+nyZfHLl1Iar6XLlsZV+urS+Fffs9K/vhfn6dL34ipd8l78kndFuvjduEoXvRtX6cLquEoXVMdFeid+/jvdPI17u3vc213j3qJ0HqVD571J6dw3D537RidPX/lr51f+epCnc14/eM7rn57z+qdfXvLpl5ccoPTagbMp7T/7vymN/e/9Y//SwdOYxR1jFu8bs3jf6MX7Rr+6b/Sre0e/uvesV2R6ec+ZKlW1j6pqH7WIp91nLNp9xkuUvvRS25cWinT6gl0qffHPO0Wav/O0+Z9QevGT4hd3UHqB0sgXYiPniXRqZVSlU57fLtJz27/w3DZKz277F0oRSnMjn58b+fyftvI04k9bR/xx64g//nPEH/958h94aj35mdaTeHr64/9Lpae2nMjTnC0nzvnH5+b843Ozefros0/y9OEJs1Rq+czvZfpd8/E8/bb5+N82HcfTE03HPbH52N9sPuPplruXRLa0H/xwx0Guzuet3etzhYA094GDQyAAAiAAAiAQHIFgpPk1FR8ZZQ0L69tiB7qnvs9E+RpIc9LoSpdfzXU5pDlT55Dmn5t9VNL82N+QQD9ldtOW9oML1rYZZQ0TKj7yuaxAmvvAwSEQAAEQAAEQCI5AMNKcf+8zsvtgRXP837gohzRnc+eQ5pg1z8asOZfmRb9p/PfXtm5tO2iUNZx07wc+lxVIcx84OAQCIAACIAACwREIRprzG393d/f31ycgzbGgBQtasr2gRUnzM55u6e7u9lTe+lXGswJ+oUVHhDwIgAAIgAAIBEEgYGn+b2sgzbHWHGvNs77WXEnzoopGSPMgrqTwAQIgAAIgAAIZIQBpjq+B4mug+fc1UEjzjFweYQQEQAAEQAAEgiYAaV6w0vzcmXXFpXVferJDl+ZfYYXFpXXFpZvPkT/SckF1/Byt/MvsR1rGvd39ld9vYDXrih/eoX6hZezDdcWl689aRD/Sgl9oGa5faIE0D/pKCn8gAAIgAAIgkBECkOaFJ807zr6fRDlPujTXdDk7en/rOKbONV0uys99p3vcy62nl24YXdU1rurj00vrRj3Hfjzx2cbi0g1cl0OaD+OPJ0KaZ+TyCCMgAAIgAAIgEDQBSPNCleYbzppJc96WNF/c+iU2Wf4V+nXzjrFMvp9ZGb/w1dbT5ST6Be90jOHlz3ePe35zcenms+l3zXeMEtI8Nqq07vTf7cXvmg/775pDmgd9JYU/EAABEAABEMgIAUjzwpPmcf4vhy540i7N522mefSZn/D/OsRnyr80q+PCSlFO/3XonfiX2cqW02ftY9JczZpvGF21d/S0uuJpH38Z/3LoT1shzTNydYIREAABEAABECg4ApDmkOZ8rfn5TKkraT5uFhPuszp4pnjmJ1yan8vKSZq/3X02LSundPrv955D6843jK7CfwOlfwgKaV5wV1J0GARAAARAAAQyQgDSHNJcl+ZferKDz5o7pPnpszrc0nzc213jaEFL13lsufnpv9t7Hq01Z3r9VzGsNcda84xco2AEBEAABEAABAqIAKQ5pLkuzdWsuVrQ4pg1txa0vN0tpfne0ffXFd//8Tn8+6DPHjp30Rb6Yuiz+IWWf+IXWgroYoquggAIgAAIgMDRE4A0hzQXP57I15rf3zrO+hrohrGvxsVa8/tbz6O15vxroBvGvNI9Tkpz9hOKtJSFTZk3jqW15vz7oHvw44mQ5kd/jYIFEAABEAABECggApDmkOZCmstfZSme+ck4vu5c/Hii+FWW4pmfnMcWmhff30o/nsilOV/K8vu99LvmlN9wVhWfNaefNoc0hzQvoIspugoCIAACIAACR08A0hzSXErz+EXi9xP5lzu1fzkkfj9RlKt/OTTubfrZRFrK8lYX/5dD5/xO/BOi03+3B2vNsdb86C9QsAACIAACIAAChUUA0rxgpfkl78YveTeudPnFtI7FShfKfwV6YXWcvgDK0zvx89m/Aj1fzZrzr4FKaX7em/iFFvxCS2FdQtFbEAABEAABEMgkAUhzSHOlziHNi1/YMfKF2Mh5Ip1aGVXplOe3i/Tc9i88t43Ss9v+hVKE0tzI5+dGPv8n0uX48cRMXqFgCwRAAARAAAQKikDA0vz76xP/tibxTZVWJ+6Q6fbVCZVuW51Q6dZVCT19Y1WCp6+vSohUl7hFSzfXJVT6Wl2C0kpKN2npxpUJlSDNIc2LX9xB6QVKeSbNz3i6pbu72yhrMMoafK5snhXWBWn5AAAUR0lEQVQMRwPPSnqdAa8memXkQQAEQAAEQAAE3AQGvJkOeDs2TXPAOifd+4FR1hDZfbCiOQ5pfs3yuEpXL4+rdNXyOKVllK7U0hXL4ipdvix++VJK47V02dK4Sl9dGv/qe1b61/fiPF36Xlwl/t9AsaDltPmfUHrxkzyW5v/+2tatbQeNsoaT7v3A/fZXJZ5vYUhzxQcZEAABEAABEAiIQDDS/JqKj4yyhoX1bbED3VPfx6w5pPmBLy858OXXDpxNaf/Z/01p7H/vH/uXDp7GLO4Ys3jfmMX7Ri/eN/rVfaNf3Tv61b1nvSLTy3vOVKmqfVRV+6hFPO0+Y9HuM16i9KWX2r60UKTTF+xS6Yt/3inS/J15L81Pmd20pf3ggrVtRlnDhIqPfK4pkOY+cHAIBEAABEAABIIjEIw0r1y71yhrOPGnH3y442DsQHd5c/ye9Uygy9Usd2irWW7XVrPcttq2muVWuZrlG2o1y6rE17XVLLdoq1lu5qtZsKCFTZyrKfNL34tj1pzUeV5L81HPtNy9JLKl/eCHOw6e+FP6zGre2r0+lxVIcx84OAQCIAACIAACwREIRpr39Zun/tffuTpfsLZta9vBbmwgAALZJLC1jebLT/xfpMtPnfb3/n6/qwqkuR8dHAMBEAABEACBwAgEI81N01y3tYurcy4C8BcEQCAYAqf+19/Xb+vyv6TwSBx1sNbcAQS7IAACIAACIJB1AoFJc9M0+/rNyrV7J1R8xL8VGowugRcQKEwCJ937wYSKj+at3es/X84vMRyR43IDae4Agl0QAAEQAAEQyDqBIKV51jsDByAAAkMiAGk+JGxoBAIgAAIgAAKZJgBpnmmisAcCuUcA0jz3xgwRgwAIgAAI5CUBSPO8HFZ0CgQGRQDSfFC4UBkEQAAEQAAEskUA0jxbZGEXBHKHAKR57owVIgUBEAABEMhrApDmeT286BwIpEUA0jwtTKgEAiAAAiAAAtkmAGmebcKwDwLhJwBpHv4xQoQgAAIgAAIFQSBIad7Xb85r7ChZ0DpiVlNRRSNSCAmMmNVUsqB1XmNHn+9/qOE/hYnRDOEIqpDSH0rTNCHNC+Jyj06CAAiAAAiEn0Bg0nzdzvjIOS1KNyATcgIj57Ss2xlPdQJjNEM+fHp4/kPJhxjSPNWpjnIQAAEQAAEQCJRAMNK8r98cOae5qKLx+Cc2X7lk7y21Xd9cnUAKIYFbaruuXLL3+Cc2F1U0jpzT4jl1jtEM4cC5Q0pnKNW1BtJcoUAGBEAABEAABIaTQDDSfF5jB9flNy47dMfqBFLICdy47BBX5y80drjPToxmyIdPD89/KNXgQporFMiAAAiAAAiAwHASCEaalyxoLapovGLJ3ttXJ5BygsDlr+8pqmicuLDVfXZiNHNiBFWQPkOpBhfSXKFABgRAAARAAASGk0Aw0px/7/Ommq7bViWQcoLATcsPFVU0jpjV5D47MZo5MYIqSJ+hVIMLaa5QIAMCIAACIAACw0kgGGnOv5R266oEUg4R4KPmPjsxmjk0iDzUVEOpBhfSXKFABgRAAARAAASGk0CQ0vwbqxJIOUQglZ7j5TnUEYSaaijVpQfSXKFABgRAAARAAASGk0CQ0vzrdQmkHCKQSs/x8hzqCEJNNZTq0gNprlAgAwIgAAIgAALDSSBIaX5LXQIphwik0nO8PIc6glBTDaW69ECaKxTIgAAIgAAIgMBwEghSmt9cl0DKIQKp9Bwvz6GOINRUQ6kuPZDmCgUyIAACIAACIDCcBIKU5l9bmUDKIQKp9Bwvz6GOINRUQ6kuPZDmCgUyIAACIAACIDCcBIKU5jetTCDlEIFUeo6XD29Hpiw9cNkTb176cNWlD1dd9sSbU5YeGN54Qu491VCqSw+kuUKBDAiAAAiAAAgMJ4EgpfmNKxMZTivi59//zBcn3/W5UeecetXNp113p0qGYVz66OIMu8t4/OE2mErP8fJhZHvD0gMnf+VSQ9tO/sqlNyw9MIwhhdx1qqFUlx5Ic4UCGRAAARAAARAYTgJBSvMpKxKZTedPe+bYz51UPOnfDMMYceFVxdfdqRKXbVc9tyGzHgvKWio9x8uHEcVXf/OmYRiTXv+ExzDp9U8Mw/jqb95MJ6Sybf2m2f/yhgyfium4HsY6qYZSXXogzRUKZEAABEAABEBgOAkEKc1vWJHIbDpt8l3Fk/7thhUJwzAu/lWVbvy66n1f+Or1x5/8hSuf26CX37Ai8fieVMD7qza4Izxc1W2a3b2l7uCbk6apNdnQGzPtNTf0xjwbkqmetaa5tpm5Yw1j2w7LOD08lpKg9N60hu7gj6oklZ7j5TLao3IxKCMXTv/zKVfd/LlR54y48CrDMNRjWPF1d/Jns8+NOueUq26+cPqfLbNyCFIBdNGjcfEe7rAOk9VZ9ykqS1INpTqlIM0VCmRAAARAAARAYDgJBCnNJ69IZDZxcTaZSfPTbvj2Rb+qUunql1omVe/7F6bOr3h+g+6XpHl370/swfyETaZWbeARCnHM6qTKJyZLac6NK8W/tll2U4j15NpubYj39Dy+x4xt6+XSfLJ4VEg+nuqZgYXKwqM6k1fo8ZCOjG07rPcug/lUeo6XZ9BRmqYunP5nLsq5QNelORflXKBfOP3PlsENPQRfG277QNNIsRJtgFxZTpiNbxiHyeqs/ZTWy1MNpeorpLlCgQwIgAAIgAAIDCeBIKX59bWJzCYuzq6vpVlzxzbqWz+9vjZx7Tv7DMM4bcrdut9ft5tmV+9P7MFwxbZoPY/w8KIuVcc7T0bktrYpcX1T0jTNtU0JVp78tTK+vjfW1R9jAvr6WqYC23t+3S6leZPQhaxhf6yLN9Q9CmI+8jG27bDeuwzmU+k5Xp5BR+mbuvBXVYZhpKpvGMaFv6pyHe1Za/Yv2kYD5Nr6F63nQ0AZV8PE9bXi4YfzD+cweYXt7EuqoVRAIM0VCmRAAARAAARAYDgJBCnNr6tNZDaNvO7Okdfd6W/TXecxTVXb0ffHukheX1crxPGPKeBU+QSz079ofc9jTWwVRHsPi4TlzeRjtYkfb+uPbTvMLcTakzEzuWhbv9ne85gmzfVgWGWHR0HsxzSpTzbt8Qjh6E9gyEdT6TlePmSzR9OQS/NUFrg014/KIbBOPEaShLiqZpWs741xyJThdQThMA+T6ohPJtVQqvMf0lyhQAYEQAAEQAAEhpNAkNJ8Um0is4nLbn+b7jpMZpHMdTVkKry9ZxKX46mGpav3R9S2Zw1VIAGn6zarUXvPj5qSMdNc00Rm3dJ8DR1iMZAQpEn6H/GMZYJysW2HJ9UmfuS71tzVEXfXhlKSSs/x8iw59Td7AZs1T1XHMIwLflWlH9WHwM5V7onRTExin3vEtvX8aD1jJXYJvkhhHSYrQhWqK5NqKCUFE9JcoUAGBEAABEAABIaTQJDS/NqaeGbTyEl3jpx057U1ccdqFrV7bU1c1bFceylgOQZ9L613BJl4iS1u+aE9+B9G+mST5KP2Q5ajmjhV60qukdL8pUif2X7k0XYzFull0px8PUqz+G6/jjDUrnc8utNM5VPpOV6eKS+DsnP+jEWGYaRqYhjG+TMWOY6yIeh1DJ+jToohsKFOUUeNiyNja+twF/xuqqGU5zCkuSKBDAiAAAiAAAgMK4EgpfnEmnhm06mT7jx10p0TmTQfOfnb589YpNIpE241DGNiTVzV8XVtCSmqxrR7LJJgTWyHmCLve2k9K6SB61vTzjR6+xHWihS2rKM6S5X5rLlbmk9ks7P8FFgTYdPn9vNhTRM3aC917LUf8e2dimRwmVR6jpdnw+OANrk0T1WNS3Pvo97PYzRepLnbk+wzEAdW0zSTfMjCPEze/bW/11INpeowZs0VCmRAAARAAARAYDgJBCnNS2rimU1cdpcwaT5uxiLd+Dg2vVoipbk8lFjYNRDtrt4fSGnOWrEmXb0/YMH/gCbL+xauj/8g0vsIqWrKl1D9voXrj6wxzVgk8Qj7mimvz/Js1ryrz+zqfYTNmj+izZozg7Saherb/MZLmGpf06RB+//aO4PYpq04jFspB0AdTIFdkBCqQGVsDLYVSgtFPXEuUs+jJwJM2tZtZ7RqB6g4ICGN4zikKpU2LnSVoIRTD3RDZixF5VJR2akgZGp7qGuHyA5vsp/96rh+rmFuYref9BS9vPfy3v/9Pj+/L46TMH+5XLVulXFVRc325EON5+douYN0fWPwjMJk9ZTTp4IgeA6Dkw81i7Dxs4etXW7JV4OuRm42SpxlYkEGZHhSssUAa85QIAMCIAACIAACjSRQT2vemdOiTdSad+bMG1paLw+7O2+9bN750Jmzr5q7qzpzmumYCZmYYvHYhqyPRjipy4TIs2XrVTVVfdSaT1ovnLKsuZm32pQqZrclY8Lz2lLFHnG5Ki/rfdbo8qw+UROA1WHNuFqn2b87yIr1Eiceby2bS2QZnp+j5R6k9XnKZPUdbvVhYEuzrPdZbFettOoQlXLlyHTwrpSs4hkzmXxReAp5UjIgsOYMBTIgAAIgAAIg0EgC9bTmHTkt2rSruzfd1dPhWHN359TDdeS0dFfPru5edxXNnzPvAtfP2SGZrpeUKnYzfxvHZDL9nNnSseY1nbsLrX4mpjRzLFIdmrV+v88ehfpsCsQanRC5ZMhsECczMcXGMm16B30bQCOncbKwo8bL83O0vGbWUQ/N65zJ6tuAWvPaKkdZx0+zWlsUKuVK/LY1dw4M9xEbU5nYjAIyPCmdowz3mjMSyIAACIAACIBAQwnU05qfyGnRppb+X5q2Nae7egRBaD7Unj59lqXmQ+YfRqa7epq2Nbd8f5M7rnXt2VKgmp1cOzzq5+yWlgvPTpazfjfJyLPlAfPavDFgN7M6N/NG1v4KqTmi3YaSceyjHa0Vm+PsjQGbnjWcZc2tZtbTUoU7wf/BnOfnaPl6jLhmnx9fHRUEoe3O3OqWbXfmzHvNr47WVDkMT9C3Md61xiTwVtQ8L1XiLFPNfDly86Rk08RVc4YCGRAAARAAARBoJIF6WvP2B1rEaVxt6b+Z7u7dumf/zuNnmC9Pnz678/iZrXv2p7t7W/pvto+rEY8b+URi2SHPz9HyhiA9Nra4ff8R9gs8nsz2A0ePjS26A/vqhfl5RfaR1v7IuknpRZnVrlTFEj6LM5IMT0p26oE1ZyiQAQEQAAEQAIFGEqinNT/+QENKEAGen6PljZpI29hi65XRA5eHPan1ymjb2GKYqH567ay415Uw7TdAG56UDgjc0MJIIAMCIAACIAACDSVQT2t+7IGGlCACPD9HyxM0EYTKk5Kde3DVnKFABgRAAARAAAQaSaCe1rxtXENKEAGen6PlCZoIQuVJyU49sOYMBTIgAAIgAAIg0EgC9bTmX45rSAkiwPNztDxBE0GoPCnZqQfWnKFABgRAAARAAAQaSaCe1vyLcQ0pQQR4fo6WJ2giCJUnJTv1wJozFMiAAAiAAAiAQCMJ1NOaf35fQ0oQAZ6fo+UJmghC5UnJTj2w5gwFMiAAAiAAAiDQSAL1tOZH72tICSLA83O0PEETQag8KdmpJxprLsuyJEmGYf23FusbGRAAARAAARAAgXAEDMOQJEmWV/8H5crrfffslWort2abHdefpQbzn4wpR+5rSIkgcOiPpdRgfsf1Zx6tCSFQMxEKsiADpGTi+i5hgVXTjG8jd5tisShJkqqq7kLkQQAEQAAEQAAEQhJQVVWSpGKxGNB+ze2YEP8fRXb3eTI7kxrM7xv597N7GlIiCOwbKaUG86eGZtw60jzUTISCLMgAKZm4vsv8na25oij0vb6u66xrZEAABEAABEAABMIQ0HWdfv6sKEpAe98929N+zTa/5hdSg/kt16Za7y4dvqchxZxA692lLdemUoP5W/kFj9aEEKgZc/nc4QVLycT1XcLvbM0JIYVCQZKkQqGgqirubGF8kQEBEAABEACBAAKGYaiqSn15oVAIaBnminiYNtW3ZPeNaerO946UDo4ufXpPQ4ohgYOjS3tHSluumTcgfXRj+q3fwQE1Yyjc6pDCSMnkjcyal8tl6s7pt1jwCAIgAAIgAAIgEJ5AoVAol8tse/bN+O7ZnpZh2ky+1Kg7p99Iw2PMCey+Mf3nS80jNHsKNWMunzu8YCmppr5L+H2umtPuFEUpFov03X/48xFaggAIgAAIgMDmJCDLcrFYDL6PhZkw3z2b1Qbs6542hJDqW/NeiFNDM/R7hG73gHxMCOy4/uzU0Myt/ILv9XK3plAzJpLxwggvJe+Dr/e35u4DBXkQAAEQAAEQAIEICURozSOMCl2BAAhESMB3mcOaR0gYXYEACIAACIBANAR892xP12HaeF6CpyAAAvEh4LuEYc3jIxAiAQEQAAEQAAGbgO+e7aETpo3nJXgKAiAQHwK+S9hrzZu/+VvIiMtvqvGJG5GAAAiAAAiAwKYioLypChnxg2+fBs8aW3YwH9SCQJwJ8Ja515ofHpgWMqIo4R+F4qwmYgMBEAABENjIBERJFTLi4YHp4Eliyw7mg1oQiDMB3jL3WvMffpsTMuLXt4P+PTjO80RsIAACIAACIJB0ApeGZSEj/vj7XPBEsGUH80EtCMSZAG+Ze63581fl1AVRyIi3H/v8E1WcZ4jYQAAEQAAEQGADEBj+a0HIiKkL4vNXa/z2ObbsDSA3prA5CQQsc681J4Scz0pCRmy6+ATufHMeLpg1CIAACIBAowjcfrzQdPGJkBHPZ6UwMWDLDkMJbUAgVgSCl7mPNZ9X9J3fPaVfGr00LIuSquBbobGSFMGAAAiAAAhsLALKm6ooqfQDbiEjftj/z7yih5kituwwlNAGBOJAIOQy97HmhJB5RT+fleidLdSj4xEEQAAEQAAEQGC9CaQumNfLQ/py6jawZa+3KOgfBKIlELzM/wNF0/oqz9mURgAAAABJRU5ErkJggg==;" vertex="1" parent="1">
          <mxGeometry x="-180" y="-25" width="990" height="340" as="geometry" />
        </mxCell>
        <mxCell id="ggL9RPnJAEUtzASAG6NK-10" value="" style="shape=image;verticalLabelPosition=bottom;labelBackgroundColor=default;verticalAlign=top;aspect=fixed;imageAspect=0;image=data:image/png,iVBORw0KGgoAAAANSUhEUgAAA+MAAAE8CAIAAAAkEfdUAAAgAElEQVR4Aey9C3xV1Zn/fUDU2lFsLbRWFKQWld6m1d4EWzv0Yltrxw+d8X3Hdpx3+v6TmXZqnSqfSdNqR3oLvSmKKJegVmtULHhBo0ASIhIvNIrctEhz4IRLEiAQQi5KAvt9n2dd99r7nL0J55yck/zOZ33IWmuv9axnfdfee/32OutsEqfjAwIgAAIgAAIgAAIgAAIgUHgEEu3t7R4+IAACIAACIAACIAACIDBECSTSfPLZ3UQi0djYGGyxsbExkUgE80VOYvfu3emOyfzq0imzt2ahjDJRXSpohVnN0FZ1aaK0WruUCKmtDLuDYRXdOnuKNqL8CfzdOnuKacrTVShb5hs3w9rkFtwDVrPaYqBllUGVjdd2zz3jjypcKH8NlPQexSmjaiuCBoQ64nkZ7Ni0qkstjLq2MozzRCNBBARAAARAAASGNIFQKRyamTsMjY2NJ578Dkesh2baPgxQqbNqdZWOLz1l9laliKbMriaRqz6WZrU9ofjW2VPCdBkdqi6dUlpqWVHW6K+sEyrfbJOO16XVykM25lhRik9X8nmm2lJ/dU9UNd8Bqc3lMa3UtWm7MxS3Edkd4Faols8X3Xa6iOlmaD19OPRoOqOBfF+P5dG0PdQ9xnliUR/k8yQwpMgAARAAARAAgWInoBWHE/E8L89K3fM8R5c7yVDUsZS6UY4B2SiNhqk0sfApa2ydXUoL80qkKj3raZXo8FNJqVnTtevrUzpbUgopG7pte2lWHnRNlFZrl6kp5T7Fq0vJt0DHlXXfgTQKzHhP7VqKzRwgQMzA9UwCCq9k1fe5SEbspwDRJdVyyFGfoYiE8pSKKdZuFR8VdZAzZQ2cJ3xS8SjZZ5tklcvzRA0H/oIACIAACIDAECIQKsdFZuihXHddq3MdydxiiFK310FJCGp14F/MtYspXa3+Cv1IFenDKa3EptBSdqjApCKlpazo/U7rhkPb1NIz1KzRjMod5WQiUVqqHTHFfE1Xl5bOtjbMBFsI5Ci96rYmZH2IAuOCug9SOys9LcUa9ZuL6IjPy/iJwHYQn0FfItIolVYfnCdD6zyJHHwUAAEQAAEQAIHiIBAqxwdRqeuV9eBOmFCgIUpdl9MrwVOmCE1m60ldKn2EVSxL4NlSsythJ//a9rRKDGhmoQhDtX36ttMeEdZkyz45rR4obCepnK9QabUUqNKfDEqdN/2IhjRJR6lLW3aLvr0vpmmyY5Ox46avZE+D8iVEGbInuy4rqQcLfVxXN1ajYrp3OE/0SBb2eRI1ojgOAiAAAiAAAsdNQM+JoZHjNh/XwBBW6lKA8QaP6pAN5OEyk4ZDq1gxNlNmz9Zr14Ir6UOzVs2GxGZ2UVNmyJ+x0jYTKYhDmxQ7VEJPAztTal0hVVkC+zWr8MxWwH4V6zsjtEA3Wtq0pe0qgqqqNOhmayZCx2/1/3xXeZSxJdUCPVZI+sRKe0LHGZ4vR+RZWaa2NhgdUd0hJjhP/LwK9jzxu4kUCIAACIAACAxVAoWm1PWmFx3JTD7tmroSiGqfs0krg0qhUVorEnvllzNFPS2xS0ut5XX5k06zjGs3Iqpo0W8KqfZD/lpuBI/ygvJsa8uG0dZmpVk7Kg6WVuuN4kLpuv4EWhRq3DEjn17ClbqU4FowU1r31nlakEljSBdU/VVimzzQJn2+q5L8129fVbaL6CeEQFNcygyZQGHSygjOE/8FIrgI8IN3nqjRwV8QAAEQAAEQGNIE0il1IfTy3HVHnTvJUGfSKHVb5ykxSnm2WguqDCV9ZSmuqEpRHmVU07Zvvz7UjqXJtoSOlo2qKXuziGrKOiaiRrGSZLVSsmUr0xaawh3dpN13xUS7HhrR/ZFWZdo0p20HXDbaXh4Srct2teGQZoXadvphiXZ/FZ82J4BBOv4K/pRdQzGhPJtV2mFRpbiiKoXzhH8ZQsOQ2/PEP5BIgQAIgAAIgMDQJJBOqee/t6G6PDTT9i1UqZOANIpNKTAWzGa519aCtkWTr3QoyzZWYrQPxhKlfIBVp65klKOJ+ZS6rQGFR8ZT2w0d96taJQgtLziqjDjH7TV1sYFEFBRMxItKtKM6Its2LUvNJTOMAtNOUkQzkLlbzTYY8ooaVhbV31BLZKe0VL/uUtV125I62Trs+u+rEZbAeaJOo2I8T8JGFHkgAAIgAAIgMMQIqKna/Zv/bmbtfz5yBJsjIJU6c0qF9deS+PyzTCOyldLkXRkkQZ1GZNKoSGVK/dXNaUs6x4k4fqbTtpZS124K23YLunnxECL21quq1LCiwz1Sa8ZGYQvfbB+oi0YzU9NsWvvAx0UBQyOg2P195jraK+GqdX5K3to70QQV0HX89tKkgmS11xYJp1SYLU1VVjNmNHvVd5wn+lo5/vMkbCyQBwIgAAIgAAIgUEgEEi0tLen8URrPKCddUksonZMpElBrweqqLaUonTaVmHOLhepLfyG/JSNLVUvirxKpUgpKE1zXZ06UE6UC3WIGfGy2+GGnbk04oS1xkg/6W1Be8BNMgr+B0A1qZU2taEu6Rib+OT6mnBGd9DUWHGjfYScRABqsrtpSo+e0ifPEv/NI4yqE88QZbSRBAARAAARAAAQiCSR6enoiCw1+AaPAAtLsGFeCB78v8CB3BHCe5I4tLIMACIAACIAACOSdQCLvLaJBEAABEAABEAABEAABEACBaAJQ6tGMUAIEQAAEQAAEQAAEQAAE8k8ASj3/zNEiCIAACIAACIAACIAACEQTgFKPZoQSIAACIAACIAACIAACIJB/AlDq+WeOFkEABEAABEAABEAABEAgmkDirbcPI4AACIAACIAACIAACIAACBQaASh1PKiAAAiAAAiAAAiAAAiAQCESgFIvxFEptOc5+AMCIAACIAACIAACIJB/AlDqUOogAAIgAAIgAAIgAAIgUIgEoNQLcVTy/8SGFkEABEAABEAABEAABAqNAJQ6lDoIgAAIgAAIgAAIgAAIFCIBKPVCHJVCe56DPyAAAiAAAiAAAiAAAvknAKUOpQ4CIAACIAACIAACIAAChUgASr0QRyX/T2xoEQRAAARAAARAAARAoNAIQKlDqYMACIAACIAACIAACIBAIRJIzG18e/ZahEInMLfx7fs3vL1q2+GWg7FOo5aDh1dtO3z/hrcxvkVxemN8i2KYBuzksY5voa3owB8QAAEQAIHBIpAY8NyDioNC4Pa1b69oOnygO61eP9B9eEXT4dvx9FWcBDC+g3JZ5a3RyPEdrJkA7YIACIAACBQmgURTx5HUQYRCJ9DUcWR9W/+Tbx4WkuKuV97uCBPrHd2H73pFfj/w5JuH17f1Y3yL4vQewPh+96mez9zbdf68QxPndiIUOIHz5x36zL1d332qJ/P1W5iTBLwCARAAARAYRAKJ7QePIBQRgTU7+27/C2nx5U0hy+rLm0jK3/6Xt9fs7CuiTsFVTSDO+N669u3LHzp07p0HEYqOwOUPHbqVv+0JvX4HcSZA0yAAAiAAAoVJILGt4whCcRFYs6OP5Pjat5096y0H5aaXhh19xdUjeGsTiBzfy6u6zp3TgVCkBC6vOhR6/RbmDAGvQAAEQAAEBpdAInngCELREXh8C62dr9rmW1ZftY0yH99yuOi6A4cdAhnG99+XdZ17xwGEoibw3WVdwet3cGcCtA4CIAACIFCYBBJNB44gFB2BV1v6Z6+lt8HYZ9X9G2hXzKst/UXXHTjsEMgwvp+p7Dj39v0IRU3gM5UdwevXvpYRBwEQAAEQAAFBIPG3/UcQio7AlvYjs9e+fdcrPqUuXsi4pR0DWvQEMozvpDn7z53djlDUBCbN2R+8fjEngQAIgAAIgECQQOLN/UcQipGAeImEPaIipxj7Ap+DBNKN74Tb9iEMAQLB8bWvZcRBAARAAARAQBBIbGk/glCMBIIzvcgpxr7A5yCBdOM74da9CEOAQHB8MSeBAAiAAAiAQJBA4q/t/QjFSCA404ucYuwLfA4SSDe+E/6wB2EIEAiOb/DujBwQAAEQAAEQSLyxrx+hGAkEZ3qRU4x9gc9BAunGd8Lv2xCGAIHg+GI2AgEQAAEQAIEggcTre/sHKbReW1I/lsLan73u+rB88dqxJfXXPufms6udP7u5fmzJpkXC89eTl5bUj705udzpiMiXTYiGzL/G8nObnIZE05cu7jRYyJRqzmllb//r3JAxGCyQm5zgTC9yjNu5aTe2/YIYXx5NPsF4oPl8M6eBPG2Cp4p1OhkL+eWZbnzH/661MEJHjSc+ffPvc136xot9nufVLHPz2fN989s9z+u9UXTkvq6k53ntXd9w+iXyZRPuH2mZyig7TvXftY5nC1TSb6rmRW7RbzL54r48Uw2Ob/DujBwQAAEQAAEQSGze25/bYCmkaxcnpxrpvKnSbtoq5sopVeXa54SrLAHvbFVud95Mwn3tza/7O/I6t2WKyaP6GUBWV0pdJkUtfn4wBl9vvZafDW7m5wftnvSHqyjf/D7YHcx2PDjTixyFJV+eWANXeOPbevOdm+iUuzm5nP2curhT8eHThhX5Zh5BdUjlq0yh1M3JkO1xVP6445VufMf/riWvYVmv1rQ1Lx4iVS0/vTfanljFVAH3b80y4fkBkvhvHlC92MvCvW/+ff5+3cdtmWLyqHoG4OR9B2pY9M/nBwPdnmyILVCcI8kX945nJ0UvKGn7n/d4cHwxG4EACIAACIBAkEBi057+3Ib6TWNLNi3cQ/L62nr6d+rizmdJ8q69eXM/RzYt9PvAmfVTb6Zl9amLOx33xFG/KLRWSVmWPbunf9NmqdTDq9erXpN79dfKpBD90lt2WxVj/0mj35wk41Z3hCfKgi6f84iY6XvfPqyDyHH6m/NkgY+vPrV4oK3TSSpyfaqoQyqfzx/7XM05Se0qR9KN7/jf7s5rIHXbe+Nv99fQGjn9m3xhzzde6PO8vvn37uZI741+lzjTS7bTsnryhT2Ot+JozQu26NcamyPth77x293j7+UCW/aHV1+mIZBL9BG1LD9FEzXLpCnyRCh1bjromNNQrpPB8dUXMiIgAAIgAAIgoAkkNuzpz21gJbdgT+u/ltT/a33/gjtp44pITl2c/NeS+rF3tvocYEUlMqt5DXvq4k6rQOdNvLy9INJtodTVerxeCBeRf62nXrMzSuXf2SqS4tAG4cbNyeo9/eQGO0mRm5M33VkvPP/Xeu4Uf1Ega0V6lb0CwZle5Fiscjyyoi+FO77iVKHxpdHhAbXOJT7K47sheKrcnKxWSp1PwrU3bc4LTOv0SDe+43+zK6/hyR7P67nxN6zUn9x14xZPJ5MvdJJK3rLf5w+Vl5lSsr/QZhVom79PWIjqxT2d1vq9EOPm35onqTrZ59Ypsq9z/hZPuFTzJHv7Almgkmwq+ULbePathvONLYr1zb8nyp9sYw+Or74pIwICIAACIAACmkBifVt/bsMqWrQW4TtzTFxn0sL5I53sQ+dPb6KSUx/pnD9HZarq31nFfm4S+2c2zW/rf/oRWnQPBDoUv0fCyHdWpbNWP3ZO69OreAfFnFYqfFPyp+Rb8jsl9d9Z1Ur/PkIuSfeOpen4ToaWDM70Iie0cA4z1QCNLakv5PFdz36qM61/fRufbDcln043ZHymTX2kk8+QtT/ddAwnVVZopxvfc2btzGt4gpU3C9uVW0zcVrrJF9rYpbZ5pMK95AttN5Bo5kxVfeUT7PYiob97bpi18wpamA9+6FDMDl7xRA+p+S3tZGpf5zxW6is9b+UT7fQvK3JqVzYq2xL5ymfhRt+8RXEbjelbZLHg+OqbMiIgAAIgAAIgoAkkXmvrz20ghbRpXhuLWqHUb0o+ZRolwTTlkc55c1hzz2llZ1p/ehOrcJnsf0qI8jmtshgZzOC2VPwBEe+X9eQGeSWKfWdVBoP9r3EvfqqU+hS/Up/CSj23GAP9lTP9W4d7VRA5eXZDkCnU8ZVnDg2u9URhTgxzKkrhbs7MTckpJXRm8rlHSj3PYNON7zkVO/IaSGr33FCxj7SvUOr7Dl5hfGidt89LNrTeQGvtnrdlH/u2b96+w1ZyxxUNMimLkcEMvSCb0R/hBrs3r+Gwt+8gKfWGg6zU2duGg0lS7aohKnl4XuWOcyopP9nQKjCyb5yfySVlJHtlguOrL2REQAAEQAAEQEATSKxr7c9tqGOl3spKva5fSe36KUKLs1Ce8khn0Id5c+q/80jnMr97qvqmea39y9Ksqc+TVTp/Qiv0VDJoXORoC995JDlFlaQmbkouaxWurv3JRlOdyt+U/MmceqnU6+SaOin1OlMsXXPZzQ/O9CInu61EWyvg8V2nTpLMo6NPA6PgSzbN2yiVOh/1nQbRTNKfcvHrphvfc369I6/hcVbqv2bt+/iOG/4qJXRSaHFOkeoNeHXDX72VDa1X+PNV9Z4bfq3kuyvJ6RBbE3pdJzP1mtT2voPz/qqU+uOWUn98xzmP93j7Dl5BHfErdW7IKHW/q8EeZTcnOL76powICIAACIAACGgCiVdb+nMbSMnJdetv17V+u2RteV1ySsna8g39r7a0frukfsrDnexAZ/lN9WNv2vRt+jdZTkvsm+6WvtEhUWzZw8nyh9dahzI4T8Yzl7x7jnxg+HZd/6vs55SHO5dJ+8Kf5DL2QWRS0+zhlIeT3y6p5+7Uf/thknRkIdck/faDM73IybMbgpsY4kIb31db+nng6r9d11n+cCufb+LE66ehlyceD9wGGsSxc1pfbaFDdNpwjjofZK18sk03vuf8qjmv4bFuraVXPrZvpXd43mMHk97heQubz/kVCeLkmhb2p4UWwvd1r6R/STR7XvcN0lU6JIpdsebgvDWHrUMZ+kLGI0tewdbIJjedXMNr6uSnt3INr6k/1nzOY92k1GVHhP+6TyIiupPBmewfCo6vvikjAgIgAAIgAAKaQOKVlv7cBl5zvUuIcr2Ozlpc6N0pD3eSA1IqJVmvJ59s6X+SFDMpYHmoZNNd7CrnU/wusWFGPQao5wFZ7BVuUWX6973wc8IrLf1P1rU+yQKdWmmR0lzlyKcIAYfbEpYpn8v3iya0Us8txsAwBWd6kZNnN14p4PGlIeazSJxI8oSZ06rOKD2O/dwL0u6vyPNq011KqbMFUup5BptufM/5ZSqvgQRu9w2/3EuiXK+j7+ugBew1HazUd5M/Czpoy/hfO1ivd1zxyxRraG/lY+oQGSHPhba+4Zcptb7uiGZZ7Bxu0TmmkofnLZAQ2IioQh5Sc9QKx9eQS5RDSr2DlTpXZFeTa9jtPMO0mguOr74pIwICIAACIAACmkCicXd/bkMt7X6Zu7v1Gl4+b5QCqPXH/ONRqaTvaH2CFdU1tZ2Uf1PyCe0Vld80l4yQkGrc3c8lN83d3T/3DnqN+o83GP85hw5l6JFbiy1fU8tVRJzXyMXmHJnPzo+9o1W1TrqfD1GnruHyqmSmpjN4NYBDwZle5AzA1HFVKezxVedVfyMPrjm1xJMhnZk0ZPZZIc8ipdTZgu80Oy5cGU9O23K68T37F9vzGpayUv/FHhLlz+86ez7J3+Tze3xbyd/Y8/XnaSf6yqW7hFL/unaSynffQEa4+i+2c8nuG36x/YY3PNqOMt90h3PoUIYO+muRV94be86WZknJr1y6/Wz2duXzrNSXbj97KSn1r5MP3Jzswq4MreThUHB89U0ZERAAARAAARDQBBJrd/fnNgiFxCvf19SStB17U/Ix2SglL3m4c+3u/jtJdm+6c3dnGW8uv1N59ZhYE70jWXaTLMk5m+6UVZzFcmEkQ49c+2uFOq91qyh/OJ/LkJ8qIry6RtTakLyEhXtuMSoguhU107/d+5YMIkcXyFOksMf3zjv4tOExGluytmyDGWh1arWKYR17RysTc88QLuarmB+w6cb37J9vy2tY2qVWsr2VS1kZ7z3wdemDkO87z/75NhbQXTf8fOe8vZ7ndd2gnBQK3nvjwLy9XvJ5Ksk5VICraNs6YuqGddNvn30jsyqiHhgY0bwDtKa+dBsd3Xvg67ojew/zwwY5M4ghOL76QkYEBEAABEAABDSBxMu7+nMbamhNfQ63MofluIhzo63/UlJ/yUOdPgeovF9/39FqF1j6EO1Tn7Orn62tLVtv/A/Y50PrSUnbNn0tcnP/UtPPZn3FRJVLHurkQ2vL1tvedpbdtPaSh+j5gYvJDtp+5joenOlFTq7bde0X+PiK03t9Z9kd9f9SY04V7kXrv5RsmrO+85Y76OlxqTyjaEC5pJDsPL581O14ji+cdON79sxkXsOSLlLe3KiU48aBNlpoX73T5w+V93/eaLMLfH31YWFQro7PM90J2OdDLLhti7pFNnV43jzbjZ3z9h5OrqYHA/6Q5+aRQHgSMEgl/U7aDucoHhxffVNGBARAAARAAAQ0gcRLu/oRipFAcKYXOcXYF/gcJJBufM+e2YQwBAgEx1fflBEBARAAARAAAU0g8eLOfoRiJBCc6UVOMfYFPgcJpBvfcbf8DWEIEAiOr74pIwICIAACIAACmkDihR39CMVIIDjTi5xi7At8DhJIN77j/ncrwhAgEBxffVNGBARAAARAAAQ0gUTDjj6EYiQQnOlFTjH2BT4HCaQb33E/exNhCBAIjq++KSMCAiAAAiAAAppAYk1zH0IxEgjO9CKnGPsCn4ME0o3vuJu3IAwBAsHx1TdlREAABEAABEBAE0isbu5DKEYCwZle5BRjX+BzkEC68T3rpr8iDAECwfHVN2VEQAAEQAAEQEATSDyX6kMoRgLBmV7kFGNf4HOQQLrxPeunbyAMAQLB8dU3ZURAAARAAARAQBNI1Kf6EIqRQHCmFznF2Bf4HCSQbnzP+snrCEOAQHB89U0ZERAAARAAARDQBBKrtvchFCOB4EwvcoqxL/A5SCDd+J5VvhlhCBAIjq++KSMCAiAAAiAAAppAom5bH0IxEgjO9CKnGPsCn4ME0o3vWT/ehDAECATHV9+UEQEBEAABEAABTSCRKG1EKEYCZdX7Z699Ww9k71tv///Jsur9xdgX+BwkEDq+36zcGSyJnGIk8M3Knc71a1/LiIMACIAACICAIAClXsQPKv90725bozhJ+xDixUjAGdCvzd9RjL2Az+kIYEDTkUE+CIAACAxbAqde9+qH/3fTDx/avm57J5R6EWv0YXsGo+MgAAIgAAIgAAIgMOQJjPyPxu/el9y5rzvR9dYRDx8QAAEQAAEQAAEQAAEQAIFBJdD11pHG7d3fr0qJR5HTr1+XGFR/0DgIgAAIgAAIgAAIgAAIgICPQNXa9hP+8xXS675sJEAABEAABEAABEAABEAABAabQNXadij1wR4EtA8CIAACIAACIAACIAACYQS+92AKa+phYJAHAiAAAiAAAiAAAiAAAoNKoHF7N5T6oI4AGgcBEAABEAABEAABEACBMAKH3joCpR4GBnkgAAIgAAIgAAIgAAIgMNgEoNQHewTQPgiAAAiAAAiAAAiAAAiEEYBSD6OCPBAAARAAARAAARAAARAYbAJQ6oM9AmgfBEAABEAABEAABEAABMIIQKmHUUEeCIAACIAACIAACIAACAw2ASj1wR4BtA8CIAACIAACIAACIAACYQTyp9S3Vm+m/2lp5u6tIX703jazsXSd57XsvqS0kYq5oamaau0vLd18W4uov7/UWON4qSjjWhftkvHwD9W9pLrX88gHt13ydn8pWeYmKveTh9yF6srGhL9Fboh8kD11u8AdTH9UNM2ekKNsP+CPtBne0/D+IRcEQAAEQAAE4hCgKTj9/MITdHCmLq0OmbjFXKanRdW4mGf1PK6y+W9wVqXsdU0JM+/7yiMBAsOEQJ6UejrdKYUpXYqN+mqkwpX7xQCIitY1z/pYlg8RslQyrdw35elew0ZK12mlLkecWrQfJ7jYJdW76cGgcj/7o4S7XUxKcK3U/Xci2RY1kfbJQTbUm/nMUw5kLoWjIAACIAACIHCMBFr2l9KKVdNtYmVNrTfJpS6/UqfZVkxtrNTlbO5vUCt1MZW7a2FymUzOwuGzGzXhn0/9TSAFAkOeQB6UOq9Gs8zVNNWqs/XsTmvVTbeto7Xtrev4Ab1yNy9y+y/RdU2JyqZqvUAuRLmS9do+R/jZ3RLTdBewkrZS59uHe29KlMpV8OrKzaXrhFLfzXGp8s1NZ+buSlpiF2FzaSV/e6DucSrft6YessbvKHVO6rr+iMXN32ekQAAEQAAEQOA4CKgpW06XlBRLWmLtXK+pRyp1o85n7r4t8C20WFPTRvxzHH3RLadsKPXjGEtUHRoEcqzUlfoU0pyfudUmk3B5re4Rrsz16/XQnSpmM4wYGmnKXgzw7Vdh3+w1df30T/XV4oF6qNBCnOS+uelYNxFdnSPSYffxQK2pO3clnQxdlrBPNb73QanbSBAHARAAARDIAgGavHhqpgjPdOL75DhKXc9iHJEzoJ4W2Tma/cWMXF0pNp1Stp4lndlN5luTbBZ6CBMgUIQEcqzUDREl0EmCO7Jb78lWu0roTmFWxLXw5ctY7A7no36tr652uyFLXjvSf2bzT9xd6WItvKla3Bd4XV+tfKvnB9Gi3F3jbnTRtySOhDXNSxTiqLJsAIk1ft/DjOOzk7S/H7DMIAoCIAACIAACAyCwdV0T/VSscj/NU1FKXUtzsdaul5l4jgsqdTWNzty9Vc6hYptruim7qVR8DQ6lPoCBRJWhRSAfSl0pbHv3W6hYV0rdkaSUlOXZVFN1rDX1eAOl1s7VDvKAUucCcp+6zzFySdzOxG9khQRPlCrFz+2r5wfjjCiWUalTYS6m1s7pViWXIngFQuUbq4iBAAiAAAiAwHEToOmG94JmUOqiEa2h5Swpf2TFk5et1NW6lbO65K+l3qNgZjc5e+pWjrtnMAACRUogt0pdiVdx7alHap/eNd+F8dYULpNmTd26kjOsqfNAsLTVT/xORKlkNtEdJVMAACAASURBVDJz8yVyE55S2OK+oNbUqysbS9eJkvqtNb23VTfxG2P200567S31i3pqi+wBK3V+JlEb67k70m2+u+lf3BbpaQe3QQAEQAAECpYAzWIZlPq6JvrRl9bQfs2tlLpeLDfiO7y/ofO1eH+D3Up4ZeSCwNAnkFulrvgpjW7tV5EiXuWwMM3emjpf+frLOOWG/70rfHORP5GpFC+f0av+TdXi6Dq9M0etCsifxtoqX5rXAp3vcU38C3qrlnr1ley4/3FFP0vYPksm+i7GCxI+Ba87hggIgAAIgAAIHDcBMZHRu19m0iwWvk/dKHX+xlu8BMI3qdlr6qzU9UTmK2YOlcrZVn1nDqV+3EMJA0OGQI6VulgApjcx8fKz3MSiHrWVTLcWy/O3pi6FtfFQfHMnfJN3GR5mzhGuWg8AUnBbX+dJg+L3MeLFNaqD+pDa1mK2spgzyTKuMhUNdY8rFU8UVqOqJP6CAAiAAAiAwPESUKtm4j8w0VMVTUbm3S9GqfNcydOovcyknbDnPpHJOfYMq9+YLNbFoNQ1PERAQBLIsVK3OStNzOvH/gtV/kc/ak2dBK5YtFYr00qbqpuI0vq+p3O1V0T+Xwnmp+XaC75HWPttqCGlhkUhpYn1znjzdnb51kj1RZ4qqfbS6E0vfEcTG2aOQ6n7bmfclvj1ve/1NbpjiIAACIAACIDA8RIwE6KYLtVPpAZBqcuu0PTnCobj7SXqg0BREcik1F/f3XvD4h0fuWXzqde9qrdnOJGYnZV7NkhYh11ySvVGbL+OWUwpdcdVndTaWrxuxTTK9sXCADusXLWeMeSyAZeU+9dVj/i+pn6Q2hJ8lpASX9/+tD92xLSuVL5/GV6YVU8LGenbZhEHARAAARAoZAKnXvfqR27ZfMPiHa/vjvj/79Ld+LMwZetJUEXEhGX/SoriZk2dd3jyz72ytaZOr3yx3qDADqi5OF3PPa+QRxa+gYAmMLDLPFyp7zvUV3L/9pH/YW+zDo+nv3DoiKVKM4lL/WpVS9AHmuNda3wvCIpgq7AQuOou47hn33R8Wly5akS83MQi/lNSvVrP6w2+5w12RrzTil/oXi3fRyvzhQPcrk+p2w1JJ0N95kweYwugyLSkvNNNkdRnBiIgAAIgAALFQmDkfzSW3L9936G+0Bt7aGZWp+zNt7XQTKeUd+9tMzdfUi3+I0L51gQzU4tpyFrMMpDlf+nNL10ILSC+ErcmMjZrZjqjH9SX6qF9x3xnmDu7DJAsYALHdJmHKPV9h/pOv36dGPvvV6Uat3d3vXUkwxWCQyAAAiAAAiAAAsdDoOutI43bu79flRKT7+nXr4sp1jFlHw921AWBfBIY2GUeotRL7t+eKG084T9fqVrbns8OoC0QAAEQAAEQGOYEqta2n/CfryRKaWU9DgpM2XEooQwIFBSBY7rMXaW+eXev2PTyEGR6QY0qnAEBEAABEBgeBKrWtidKG0f+R2PknnVM2cPjjEAvhyCB+Je5q9RvWLwjUdr4/arUEKSCLoEACIAACIBAMRD43oO0DebGR3dkdhZTdmY+OAoChUwg5mXuKvWP3LI5UdrYuL27kPsG30AABEAABEBgCBNo3N6dKG38yC2bM/cRU3ZmPjgKAoVMIOZl7ip18UJG/IS0kIcWvoEACIAACAxtAofeOpIobTzth+sydxNTdmY+OAoChUwg5mXuKnXxq/NC7hh8AwEQAAEQAIEhTyDOdBynzJAHhQ6CQPESiHMJQ6kX7/jCcxAAARAAgSFLINYUzm+MHrII0DEQGOoEYl3mDoQ4dZwqSIIACIAACIAACGSXQJzpOE6Z7HoFayAAAlkkEOcSxpp6FoHDFAiAAAiAAAhkh0CsKRxr6tmBDSsgMDgEYl3mjmtx6jhVkAQBEAABEAABEMgugTjTcZwy2fUK1kAABLJIIM4ljDX1LAKHKRAAARAAARDIDoFYUzjW1LMDG1ZAYHAIxLrMHdfi1HGqIAkCIAACIAACIJBdAnGm4zhlsusVrIEACGSRQJxLGGvqWQQOUyAAAiAAAiCQHQKxpnCsqWcHNqyAwOAQiHWZO67FqeNUQRIEQAAEQAAEQCC7BOJMx3HKZNcrWAMBEMgigTiXMNbUswgcpkAABEAABEAgOwRiTeFYU88ObFgBgcEhEOsyd1yLU8epgiQIgAAIgAAIgEB2CcSZjuOUya5XsAYCIJBFAnEu4QGuqR85enTR2l1T5v5l9M31I8tqEUAABEAABEAABDITGH1z/ZS5f1m0dteRo0cjJ/tYU/gwW1NfUnifyHFEARDIQCDWZe7Uj1PnxVTHmJmrM9+PcBQEQAAEQAAEQCCUwJiZq19MdTjzr5OMMx3HKeOYLerkkiVLUoX0WbJkSVHzhPODTiDOJXzMa+pHjh4VMn3UT1aNu6/5vKUdFzzVjQACIAACIAACIJCZwHlLO8bd1zyqfNXIstoxM1dnXliPNYUPvzX1QhLqKSj1QVe6xe5ArMvc6WRknUVrd40sqz3hJ/UTH91//rIuBBAAARAAARAAgfgEJj66/4Sf0MbRe/6y25mC7WTkdOx5Xpwyts1ij2NNvdhHEP47BOJcwse8pj5l7l9GltWedW9q0pOHEEAABEAABEAABI6VwFn3pEaW1U6d2+hM23Yy1hSONfXUYH6wpm6fsYgPgECsy9yxG1lH/IR04qPtH3yiEwEEQAAEQAAEQOBYCZz75/aRZbWjb653pmA7GTkdF9yaekNFSVWz7EJzVcm0igaRsON2D489jjX1Y2eGGgVNINZl7vQgso74ccx5jx1EAAEQAAEQAAEQGBgBMZk6U7CdjJyOYyn1hopp8qNUdHNViYqK5khIux9dormqhAU3FeLMsNLTpCiXpk2bjtmSqubmqgpS89Ks/NNQoVW9TSAY9yv15352UUJ+rrkvZX3uu0blX/Sz56z8rEexpu7hc3wEYl3mThORdcTN5QNLOxBAAARAAARAAAQGRiB/Sp2UtqWF7ZVvWwEoTS7zZDE7t6FCiHU2N21aRRVJfK3puZ5d3KNy/sNUhovQP1XqkcGpZDvlxG2lft81WoaTMg9LsJT3i/hUVj9Q6s4AIXmsBCJVNz2QO0Yj64iby8QlBxBAAARAAARAAAQGRiCvSp0Vc6bVcBbQPlUdotSFXghdMVcbXaSkCGsqzYp8RYPfoM8JR6F4tlJPWZ/7rtFK3YqmUinS6jmU6lDq7gghfYwEIlX3wJX6uX/ejwACIAACIAACIDAwAvlU6mZpO7D1RekKn7YWq/BKWjsqXC/P64hcExeKO20tS4I3VFVUqOV4alge0gaVU4G/4Uqd5LhaUqfldVuau+lU7M+yZcuCZZ1MKPXAECHj2AjkUKlPeLQdAQRAAARAAARAYGAE8qjUK9Q2cK3TjXSXssISyfKYb01d6nhW1P4lcLkTXal5U8vZoq63yZCpigYW91SYRHuF3govJLsl3h3V41fqeju6Jc39S+qp1ACV+ubNm6+++uqFCxemrM/ChQuvvvrqzZs36zwodWeAkDxWAjlU6uMf2YcAAiAAAiAAAiAwMAJ5VOoNcr94mMZmic0KvqGZ39sitbbaYm7tIZdHtKjXkWAZK0cqF11Zi/GKBk//vJR/Zapapp3sapnd0T1+pZ6SH96OLhfVXaU+8O0vjlgPyvRUCv/zkTM+SB4zgRwq9XMe3osAAiAAAiAAAiAwMAJ5VepKdysdoUUxZ5Dk5l+H8jq43orCEUtza7EdWC5X737RPyGVa/C+gtKu+E2pSZAHrPm18FdOhvwNV+piO7qQ6u4auqvcU8fy0WI9VKZDqYeMELKOkUAOlfrZD+1BAIGhTeC9P3/m7y77v0/59DdO+fQ3Ro4e83f/8J2h3V/0DgRAIJ8E8q/UG0LexkibUh6vMHtXzFq21OWhSl2U19I6WMbKkcIljcyXip2VvV+9hwqeaKVu71nPxi9KhVh3Nr2k1Ae7X0KHCZnxCeRQqY+rakMAgSFM4Mw7Xxtx8iknf+RzQqmLd/O+9zfPFVmXq7uS3ls/Elfrmrc8z1u5hq7cH9GX3H3zqnEVgwAIDBqB/Cl1e6VcKgj/mrrIDN9zYmluI7aNUq8Qr2vXItvoe996OiVEGWpFVDcx+dZHbSTcE/LSUurWSxp5M7r6Sam9M92R7amBfTbzJ7QulDqNCj7HQSCHSv2sP7UigMAQJnDGf9+TSCTOemC37OMfd5448WOJROIdn/qGHd75+f9rzC1P2xx+lEp3yfbd/ZT/qnm+1/N6fxRxKe27u4MMrnzeX5dqdaz02CbZCX7o0Nc29tGBjq4fiUigVHLjPtt5tknlvxbq1VNdyXQtcpX0ffe8VAc3JLsTcISeHFw+oT4gEwSGCoH8KXW1Ym5dd65SJ21sltOtguq/KKINKkZu2wXsuCwU0qBdStkiexW0h178NfrcxHzV/Epd/Fg09D8+4n3r4oj1W9NUDj5Q6u4IIX2MBHKo1N//QAsCCAxhAu++bmEikbA7OPZ3DadMmf6OT11hh5M//LkRJ53y3jvW6ZL/nfK8jkNf9V8gX93QR0p0mX3V7BUSPFhYm3r/A6qMc+WnDlAZIdBFWzq+7FCSCpu2qGnLH3LP6/1v271woW+aXPm8aKvv7ueFcS+5Ya9ywDT0/gdaQoxTQwdWep4nfLbbteJhfGxWiIPAECRQQEqdlHFAXbN41+JcSfuwH6WyhJ9G70UXq+KZy+jVdb7JUFmrafN/K5lbkB2z1tRThfCBUrdHB/EBEMihUj/z/t0IIDCECbzrugWJRCK6g3/cmUgk3nX9Il1SKPXL/RfI5UKpP+leNZzvJTfs0dVN5Ekpi1esVrVkTt/d2s7qXq+j9783pFlT18Xu332msua/j/T+t/ZzNRtJ7RcOCMdM03S07+7Vh2hNnczuX+E3JLoglbq2KSNcWFk+UzTkr84pq1+uBUUA+SAwhAjkSamHXGtFnAWlXsSDB9fDCORQqb/vj7sQQGAIEzj9B6TU43QwkUic/oMFuuT16Xe/NHV4K55zLhwheXuudy6o53o8jwqzNT7KOZ4XKPnHXe+jQ313PRESkc50dF7+RGcTG9R+Xr6+j6213cW7a8JuICqvo+sRp0yqZ4WxRl1oWt/2vj8Kb1Ut529qv246GGFnuAsOByRBYOgSgFJ3bhJxklDqcSihTBERyKFSf+99OxFAYAgTOP2/5icSiTgdJKX+X/N1yeu3e6SAQy4Q1sTb23VJikj9TUrXl6+rs8IWNx2nDDfkeR2dX1FG/PemvrueoIuUinV0fsWyYxUL9TP9pU0NiSrtrNTNv8K3NH2nYh51PM5TQedXdN8RAYEhTQBK3boXxY1CqcclhXJFQiCHSn3sPTsQQGAIExj9/XmJRCJOBxOJxOjvzzMlHzvYlPYGcXjuY/aF0zqX1qoPN9G/PT90rylxlGw1vXZQ7DZZscquvuOHpMIPfnlVj+ex5WDkHlWGvbKrf/m1w6ZRqhj+aXqtlbu2j6T5dlLqP1zV423nNfVVnMn/imLkT0hHqJi3fZ9AJH2mznIHOw5+mTv+5dcO2+4Zni4WHwEUA4HiJQClHn7TyZgLpZ4RDw4WH4EcKvUxi5oRQGAIEzjte6TU43QwkUic9r15GUu2zD3geQcOftm5alZ1kwpf1zJGR1SBL687TPcbUYWPOref5avoAvzhNi4TVoC0+1KrzNLQ54fuH4oWyYIsbzrCVci9Rc3s4eG567o9r3v5NunL8lX7lnue+FcUI3/SfbbtY8stP9wmu/ZD0UfRrnRP+aM4GGeQAwJDjgCUerq7RYb8JYX3yeAtDoFAJIEcKvX3VKYQQGAIEzjte3cnEok4HWSlfjeX3E2KPPPnQMeX5LWzdzlpcZlkjXt47hL/ZbWkg5fnTf6XhLrdtlc4xkq940t1rLOXpN4TjFSmZBk2tbzO2GdT3T8UzlDF8E/Tut3vqUxR4QOiIfoSYO4Scn75NtEuxUUx7oWyaW4R3FPls7DWdOBw07q9Ete2Do6YbsbBjjIgUOwEoNTDbzrIBYHhRCCHSv2MhdsRQGAIEzj1P+9KJBJxOphIJE79z7vsktfx0vLyWn2N7LqT1tQ7vmSuGs7xDt+5RJfZQ8Ld675OlFEa/c4lKr9WimnL7HZq6EDHl+gQm+LIcrloLZuTZaRB5/6nmtMWjIfbz+AqTa/uOmMheUsRIfdVv0Q3jc8L2R/dBWOKu7Btj0Z03Ta2xma9Ax13Ei4bhWaCCAgMZQJQ6s79CEkQGIYEcqjU371gGwIIDGECp/Lul3fPb4ro4/wmUurfm+cU++Krh70DB74oLxOWqsk9qowQ34fv/LP/IvrzAV5B77rOvrhqu/Sda3mtv7w61PTqTmXZX2DBtnfHKWMV023piDZOPfI87cN19Nr2rusW7KSHEE/2hTN1VX9Edp/KKyPMgSlxxQAQmwPiIDDkCECp++8RSIHAcCSQQ6X+rnlJBBAYwgRGz3pxxEmnjLpwyomf+GqGMOrCKSNOOmX0rBfDUazUOvvwnYvlJfMD0rgm6au4mMV6sm3aK7yZm+5aaUrOS/4g6S1fmXzXvDZejA+7wSXb4pQhB8jPQEPsTNMrO9/FbXle1w/kVc/q/MCBaeomQD1KtgWK6VsEe6gKCIO6gyJJPqi++4CoJpAJAkOPAJR62G0LeSAwvAjkUKmffncTAggMbQKn/s+fT7rkWxlk+omf+OpJl3zr1P/589DmgN6BAAjkggCU+vBSZOgtCIQRyKFSH33X3xBAAARAAARAAAQGRgBKPUy3IA8EhheBHCr10+ZuRQABEAABEAABEBgYASh1R5EV3gsYQzxyfEYSBI6TQA6V+ql3vokAAiAAAiAAAiAwMAJQ6o7EKbT/1SgV+CxZssTxGUkQOE4COVTqf3fHFgQQAAEQAAEQAIGBEYBSdyQOlLoDBMnhQCCHSv2dt/8VAQRAAARAAARAYGAEoNQdHQal7gBBcjgQyKFSP2X2GwggAAIgAAIgAAIDIwCl7ugwKHUHCJLDgUAOlfo7bnsdAQRAAARAAARAYGAECkypN1RMq2gwyqihYlpJVbNJ5yEGpZ4HyGii0AjkRKmPvrl+ZFntSb/bePIfNiOAAAiAAAiAAAgcK4GTfrdxZFnt6JvrM+iGWFN4aWOitDGDEa+5qiKguB1V7nnNVSXT7E9JiZMmEw0VWso75XW+cKShYppP9WdyzzoGpW7BQHS4EIh1mTswIutMmfuXkWW1J/6q8aTfb0IAARAAARAAARA4VgIn/qpxZFnt1LmZRHbkdOx5XpwyAV3uOTlq/VxnN1SI9XR1QOqE5qoSuc5uYiTgbVnuaHgj/6NX6KHUHT2G5HAgEOcSTjggIussWruLvrP7cd2Jv1l/4u82IoAACIAACIAACBwDgd+sH/njupFltff8ZbczBdvJyOk4plInMe3XyX5xzW2mVdi2DFcL9D4Fb4xJGxVVtEKv19k519++3UsTh1I3LBAbNgRiXeYOjcg6R44eHTNztRDro37xl1GzXhv12w0IIAACIAACIAACEQRmvTbqF38Z+ePakWW1Y2euPnrUmYF9ycjpOLZS95n13GVwPtpcVaK1tVU8JNvd26I0viPGqRh/nHzLuBN1lPpzP7soIT/X3JdKpVL3XZNIXHMf/Ss+IlflUwn6iFIycQx/li1bFiztZOJ96h4+2SYQ6zJ3Go1T58VUhxTrZXS7QQABEAABEAABEIhPYMzM1S/t6HDmXycZZzqOLCM3oJdUNWvpbHakWEpa6W3n4DS1OC5rh6l55bbfhC5pZ5dUNVMyXLzbSp31uJLiz/3sZyTVhUZXmZS66GfPBbT5gJT65s2br7766oULF6asz8KFC6+++urNmzfrPCh1Ndb4mzUCkZcwPZA7rcWp43nekaNHF63dNXVuo/iBafzbE0qCAAiAAAiAwPAkMPrm+qlzG+/5y+7Mq+liXo4zHccpQ78X9Wtjs2FFK4CQxXM65suWCVt6S2FvzIccFGVUkThKnZbThQpPWR9Hg1Mhlu3+fH/Kqh4RdcR6UKanUikodQ+fbBOIcwkPUKln21XYAwEQAAEQAAEQMARiTeGR734RclvpZGE9XKkHl9M5Ry+OG9nu6nezKd2UYZWvm3V3yptemphZUw9X206ulvP+fH8qdSwfLdZDZTqUuhkqxLJHINZl7jQXp45TBUkQAAEQAAEQAIHsEogzHccpk+U1dX5Zo16m9/24VDwVhCt+LdrTQjJKXYvwlP1xNLhO6ggX9qfs+nHiQqw7m150Raype/hkm0CcSxhr6tmmDnsgAAIgAAIgcNwEYk3hx7CmblbCnTX1dDvYjeQWMlvsbFFr7CLlCnDTiO8Bwaypx9n9kiKpbva/2PvU1aYYLiH2rFtRUVFsikkN8LOZP6GVodSP+6SGAZdArMvcqRSnjlMFSRAAARAAARAAgewSiDMdxylDktm/j8VR6sptKqd0uLtHncpouS2lfUlVFb/gxaqj2zIqX8aUpI+l1FP6B6T0mhepznm1/Gf6jTDqp6WplNTnoujP+A0xZCD7Hyh1D59sE4hzCWNNPdvUYQ8EQAAEQAAEjptArCk8zpp6QJgHMui/L5rmvpLFWh43fRGq39bm/NJH/Y6Y0EqWyDeWAjGz+yUV+jm+fS2hJo8xE0rdwyfbBGJd5k6jceo4VZAEARAAARAAARDILoE403GcMtn1KnfWoNRzxxaWC5ZAnEt44Gvqhw4damlpSaVS2/EBARAAARAAARCIIpBKpVpaWg4dOhRHN8SawuOsqcdprADKQKkXwCDAhXwTiHWZO07FqdPb29vc3Bx1R8JxEAABEAABEACBEALNzc29vb3O/Osk40zHcco4Zgs2GaXUU4P+we6Xgj15itexOJfwQNbUhUxPpVLd3d39/f3FCwiegwAIgAAIgEDeCPT393d3d4vvopubmzO3G2sKH0Zr6qlB/0CpZz5jcXQABGJd5o7dyDqHDh3avn17c3NzX1+fUxdJEAABEAABEACBzAT6+vrEglfmbTCR0zH9N+NDS6kvKfhP5pHFURA4VgJxLuFjXlNvaWnZvn17d3f3sXqD8iAAAiAAAiAAAp7ndXd3b9++vaWlJQONWFP4EFLqGVDgEAgMVQKxLnOn85F1xNd22PTicEMSBEAABEAABGIS6O/v3759eyqVylA+cjoeYmvqGVDgEAgMVQKxLnOn85F1xE9jnFpIggAIgAAIgAAIxCcQOZlGTsdQ6vFpoyQIFCaBWJe543pkncibi2MQSRAAARAAARAAAYdA5GQaOR1DqTtIkQSBoiMQ6zJ3ehVZJ/Lm4hhEEgRAAARAAARAwCEQOZlGTsdQ6g5SJEGg6AjEusydXkXWiby5OAaRBAEQAAEQAAEQcAhETqaR0zGUuoMUSRAoOgKxLnOnV5F1Im8ujkEkQQAEQAAEQAAEHAKRk2nkdBxfqR856i1a3z7l/q2jb904ctZ6BBAAgdwRGH3rxin3b120vv3IUeeiD0nGusydepF1Im8ujsGCSyYrr5w0fX4y937lraGQrtTNmFReE5Kfxay6GQLjYHYzi92BKRAAARDIK4HIyTRyOo6p1F/c1TPm9s250yWwDAIgEEpgzO2bX9zVk/m2Eusyd0xE1om8uXhe3YxJkyeqcOWCbU4TJpmsvPKqSqWZt82/avLEsjpzNJsxMj6jNrNFdkC5zf7nWuw6/gSdHDCTbCt130gJt5VSdzphksHumGNFEFNdTi6YLk/m8JPTPm3SnDC15cKCuRaCOZ5XU6aumtCGqIrPfobyjs+mJJ/exg1rGKiMuRj5QICAqRjmvzSW4ZDVHKIgAAKRk2nkdBxHqR856o25fdPIWetP/O2GTy3de3lt1zdX9yKAAAjkjsDltV2fWrr3xN9uGDlr/ZjbN2deWI91mTu3y8g6kTcXVupaUmTSmjVllnomWTA9Z6vdx6AakwumG0Xi0MltMuDkwJlkWan7RkpCGOJKXXW5br581KTnz7CHvW3zr8r8FU3dDKG86csHvi50hJ5pVd3QTImaLyK6OvRl5XmZymfwOc2JQdZcpS4J1JYrBa+8zdB0hkO5vXZgHQSKj0DkZBo5HcdR6ovWtwuZ/sUVh65c3YsAAiCQHwJfXHFIiPV71rdnuD3Fusyd+pF1Im8ufqXueZ4SoDSLK13isdSw1vBqyiZfuWBbQCWb5XmpnoWk4KVBKZuMOPCsplncyGImzmv2tlgJ2Pc86QObnUHLnOU19rcEcr2TjbjLh6Yh9s1qSJW0RE95jcrkrpm6+ouFMCah7ZpeqLqiabJpnjpqyyeW1ZnVVq3MlBvSN1/H+exQa6uU0IXLypXK1N00XZhRa+KKubNgHNoRMYKypPRct2idLfqkVXpaVFRnF/fU990OjVqAhjAYat/usmyMqocpdd197VSaiLJJQ6BWzcUQUwVzGiuDJocNpk2mKU+VXJ8D15dwlR82FmhFrppjPnYVQTvcf1EptGuiEfwLAiDgJxA5mUZOx3GU+pT7t46ctf6TS/d+Y3UvAgiAQD4JXPzYnpGz1k99YKv/0velYl3mvhqeF1kn8uZiyWVp257sdXNGo1BWcLlOijafNiKxotSYjvsUjFItUqvp1mzJosqw/vbZ5+KWUg8qM+Wn0O7OWqnbqGpISTTSY3LBnrW1U93VVaott4Nqj5AvX/RUVSH3eP3VLIg6S7+qZNA3MuvruBkpOqT4k8AVcastJUDZG5u5HgjVbijA4IgE3dOWREQzry2n72R4/VtB1kVVo4YGbTWhoU9j33RZ2wihLY6ZxyTzUKRrcUQ+HaknDds9W/WqpyC1cG75RmaCDshnjDTlQ6qokfK7JztrwfF4K455UpKe04A6j9M+/83pzf5aqt3fIFIgAAJEIHIyjZyO4yh18RPSL9V0XfFcLwIIgEA+CXxp5aGRs9aPvnVjhlteydz1LQAAIABJREFUrMvcqR9ZJ/LmElTqIbpHS0lu3prvLXnnlw5UUMsyrmXEltkVoLQIy021gO0sLqoyQfvKGdIorjAix8RuYxb3yghVUSLYbVSWkUJN74AnORtW3a/Uw5mEV5QdDHNP8fTLPr0UHeKb23HLVR9/JX+1S273VdNMVazvhnloAQyMSIh70pr6o7ytKZs+P1k3gzSlGg45NM6o8dOFqpXGvtVl0Q5pYksQy6FUDy3SFw1E+eb8pUapiqPUWRDz2SWec9QjkF2MLCmf2WqM8rbPXMc6oyzP9Jj64PsIqG3u02eU0bOQ7Zgdtx5E2d9B20Vm9Q5REChgApGTaeR0HEepix+6ff25XgQQAIH8ExAXYIb7UKzL3KkfWSfy5uKXoZYOs1ryT/AsO7SQtXdlqGVIWVWrCk5nUuqiAi86srCmJtTyuVIhPmlinJO+2cJIiSdrO4EyQvVsaSj3h9hqPkwhhVa3nUzDRMtiu93M7jE0Lc2FnNK7L0J8szueaZVUC1O7L3b3re5k9lADDIxIiHtmoERMwLc0eq36mXJIo1Il69Mv1L4+KhoILeN6wWkbcoYCtkH5EOt/jmJRLrZdWWbscYkqbzehTFjDobLsxyfxECUeSBwCqrg8z23jzkN4hkPKCP6CAAhIApGTaeR0HF+pf/W5XgQQAIH8EygKpc6K07cpQmxrUSuUcuuzlSQxKlS1jlAV+mEfiRW1kGniWjKSDpNrn7V14h2FSnPYMkUry4B9vn/KKpYwMvqDMrVv2mel1N1GVUPGVc+rreQXRKpD1KKqThH1OEEqU9u3NwKFVIzhnvVjQatf1HjQN18BuzlfYUYtxkKVcbtvuhPDQ21KEQiOuEQnJzn9h8bL2vcyo6xcbNsIa5S7cFX5DP0b0GD3fc9Corx+PZFu04okK2eIn5zapqzjXm25fETUBQxhderqQ6Iijb41ZCLT1PINBB10yjs6Plhd5Dj/msckNaDpChhPlP+6ZIZDugwiIAACTCCvSr2+96sIIAACeSdQyEpd/XxwkvWLRiVHjITiu5WzLOdb9KUqwpSSrUKUUKaS7LzuK1YEr1xQqd4jrncPy4qsLMUOb0uIBO3rVWSjOaRQZvFUPkOKacuIkdpOo6aMbH2S2mLuk4NaqYsnDSqTnomxaUl81S5p0OCDBO3JlnuO+WFArZ5KLej6ZnXcGSk5NGJEQn5RqtxQzxh+5jyO4R4aAmo52awou+4F53hyWJ0Mdpwf+fyjJp6L9CiQLce+22VzvpH/CqPPCbU5RD9j+I6KPd+CufpWxzSqc9QmdXO2S7P6KdcaF2rA5xid5Ka875Dy2Qhxdo/KqGtK+KsKuAQ0Rqu8hib9t6y5h1wYSIMACEgC+VTql9f3IoAACOSfQMEq9cw34sA6XObiOHqcBByFdwzWhuFIDcMuOycECDhAkASBXBHIp1L/Sn0vQh4IfLmm8/OPvPn5R978ck1nHppDE4VPoEiVeq7uerAbJCDWWc3CbbAEckAABEAABAaDQD6V+pdX9SLkjsAXV3RceP1t7/7Y1BEjRib4M2LEyHd/bOqF19/2xRUduWsXlgufAJT6YNxc0eZgEtAbbMwukcF0J6TtwvcwxGlkgQAI5J9APpX6l1b1IuSIwMW3LT/lzAmJROLE0We87wvfmnD19ROuvv59X/jWiaPPSCQSp5w54eLZK3LUNMwWPgEo9fzfWtEiCIAACIAACGSBQD6V+hdX9SLkgsCHf3rviBNGveO9Z3/4p/dOqzlkNzGt5tCHf3rvyWPHjThh1Idvus8+hPjwIQClnoV7JUyAAAiAAAiAQP4J5FOpT6vrRcg6gU/cunzECaNGX/jJzy3dkc74pUubR1/4yREnjLrothXpyiB/CBOAUs//rRUtggAIgAAIgEAWCORTqf9DXS9CdglctrzjHWdOOPm9Z09d2iwsf6Gma8ripmArU5c2nzx23DvOnHDZ8g5z9OW+5own0ZpNPGSb+j3vaNXLevgOr6Fa/b/WA/pyX3N3X4lO+iJUmOzYbXX3Ve1xG27e9pZxzGdBt4vIAAlAqbtnG9IgAAIgAAIgUBQE8qnUv1DXi5BdApN+eFsikZj8k3u12Q/+1+8SicR7Pvu1zz3TrjNFZHL5PYlEYtL1s538L9Sx8t5zWOaTLveat72li/2fbUeFLhc5vyaRfbRqm5TvlClUeHf/mm7rrN9z+Nd7vOZtfUKpizJrNvWSNanUSevrVhDJHQEodeu8RBQEQAAEQAAEiodAPpX6ZbW9CNklcPpHp544+ozPrzikzY6/5n/Ei19OGXfex2+v1fmX1fZ+fsWhE0efcfrHLrUzOc5Kve2wzN8olTon33qwyz6b+x8k1e6t2dh7WS0f6ur7P2JYX+pr7jrazBL/slqW422Hf9WmlPrG3steovX7NRv5UFffg220Kv8rnBJ5IQClbp/EiIMACIAACIBA0RDIp1L/fG0vQhYJfG55Z2LEyLFf+JZtc8K1P00kEmd+7d9GnvSOxIgR4771g0ur23WBsV/41oiRJ3xuxSGdwxGp1GWmUuqqDB1t3vbW/7vtqMda3Dm5xaHmbW99nrV7c1t/s8eCvu3wLy2l/nlW6rKuVOq2paMPvoTTI1cEoNTtUw1xEAABEAABECgaAvlU6p+r7UXIIoFPP/RmIpE4+5+vt22OZ6V+UWXjJ/+44bQPfZre2/iusVOf7RBlzv7n6xOJxKcfetOu8rnaw897ntd2WGYqpS6TrLCf39j7yzbP6+p/npfYn98oh5Iz+/53Y3+z5z2/kVbZg0r9eToky3+X5H7fd2vZmtf/S3FKUIuk1P1eIZk1AoOp1PfjAwIgAAIgAAIgMFAC+VTql9b0IGSRwKeqtiQSiXH/fL1tUyv1i+9bf9pkqdSnPHNAlBnHSv1TVVs42fsn386WsMfLrr5/Jxl95E8vceG2t+227Pi/J48IHS+U+p+SR7y2t3/R5jUn+1ip91y6sd/r6vsFFev795qeX/Dul1+IU0I2gdMjVwQGU6mHnVbIAwEQAAEQAAEQiEUgn0p9ak0PQhYJTHn2YGLEyDGXfcu2eQ6vqb/3q9eK3S9nfeu6S57epwuMuYx2v0xZ3qlzKMKr5s3JXpkp1tRVkiS453ldR2gPerKXFbZ9ah3500t6WEnNp1PqU7VSJ2t9f1JKnRpVSt3nFc6W7BGAUrdPWcRBAARAAARAoGgI5FOpT6npQcgugdEfnTpq9BmXLO/UZs9Wvyh9x7jzPjK7RudPqem5ZHnnqNPePfpjl9qZFFfSXOY7SVXA84488FLPz1lh/1wMJSvsB16iYaV83hvT3EWr5j/nNfWfW2vq1IrI7+r7f0R531VCxl3HcMJkiQCUuu9cQwIEQAAEQAAEioVAPpX6JSt7ELJLYOJ19JbGST++R5s99/v0lsb3fvXfPvPUPp0pIh/88aJEIjHxutn+/LdX08l65IEX1ehsoHe/pJK9phjn8Cl9JEUbZvp/LoaS8kXF3ge6PK/t7UtWCsl+JNXV928cTyX7Vnve6g09l2wwSl0cMnZwYuSYAJR6sdyQ4ScIgAAIgAAI+AjkU6l/dmUPQnYJfLr6wMnvm3DS2HEXP5oSlj+z/NBFD/0t2MrFj6ZOGjvu5PdN+HT1AXP0xb4Unw6pZK/JVEpd5ogyXX3XvtiXausjRe77kFL/LJdZvaHnWtoqc+SBJGl9r+1ttkBPAqs39HyWlfpMsZfGk4p/Jk6JvBCAUveds0iAAAiAAAiAQLEQyKdS/8zKHoSsE5j8h+UjThh16oWfvOjRVDrjFz2aOvXCT44YdeLkPyy3y9yS7F/dRcvnduZnlFIXmbfQtpa+a9XYUdLrv0UkeU39/hd7ZKZKUkWK99+vdLkqQ5eFaI6r+K+Strd9bqgWkXn8BKDU/acaUiAAAiAAAiBQJATyqdQ/vaIHIRcEzvvxPSNOGHXSmHHnlS361DOddhOfeqbzvLJFJ40ZN+KEUef9+F77EOLDhwCUepHcj+EmCIAACIAACPgJ5FOpf2pFD0KOCFz4u2dPft+ERCIxavQZZ1z2rTP/6foz/+n6My771qjRZyQSiZPfN+HC3y/PUdMwW/gEoNT9tz2kQAAEQAAEQKBICORTqX9yRQ9C7ghc/PSB8dfNPu2jl44YeUKCPyNGnnDaRy8df93si58+kLt2YbnwCUCpF8n9GG6CAAiAAAiAgJ9APpX6xct7EPJA4KKnD370gS0ffWDLRdWdeWgOTRQ+ASh1/20vZipZeeWk6fOTMUsfR7G8NRTiY92MSeU1IflZzKqbITAOZjez2B2YAgEQAIG8EsinUr9oeQ8CCIBA/gkUrFKvmzFp8kQVrlywLe3NL1l55VWVSjNvm3/V5IlldWkLH9cBMj6jNrMJdkC5zf7nWuw6/gSdHDCTbCt130gJt5VSdzphksHumGNFEFNdTi6YLk/m8JPTPm3SnDC15cKCuRaCOZ5XU6aumtCGqIrPfqbyAfsZe6G74H+CDRDI7L8c00DTRTDWcBEEBoNAPpX6J5b3IIAACOSfQCErdS0pMmnNmjJLPZMsmJ6z1e5jUI3JBdONIsnr7Tvg5MCZZFmp+0ZKMhniSl11uW6+fNSk58+wh71t86/yC1z3nKmbIZQ3ffnA14WOeBbD0Expii8iujr0ZeV5mcpnaDFwjvETQugJLwnUlk+Uj9PK2wxNZzjkYkEaBIY7gXwq9Y8/24MAAiCQfwJFodQ9z1PigGZxS9OoFTtxt64pm3zlgm0BlWyW56WYICNy6VHKJiMOPI+kj1AzLG645IxaE+c1e11GlJfWtFiRPrDZGbTMWV5DZp31TjbiLh+ahtg3qyFV0hI95TUqk5s2dfUXC2FMQttN4x6T1/3yassnltWZtdVJk6Uzyg2Z9HWcB8ceKV24rFzufonLPA7AsBHRLZqvX8wEr/S0qKjOLu4pnwx2o0TYR0MYDLVvd1m2RtXDlLo1ysavsJiySUOgVs3FEFNpcxorgyaHraVNpikvbBqRba4LXy+UV67HKt++JAXtcP+Fj6Fdc00jDQIgQATyqdT//tkeBBAAgfwTKBal7tmTvb5DG41CWcHlOinaXFWhtT4JF1ZmPgWjVIvUaro1W2apMqy/ffa5uKXUg8pM+Sm0u7NW6jaqGlKih7STXLBnbe1U14800mvVlttBtUfIly/qqCpaPZsFUWfpV5UM+kZmfR03I0WHLDUs46qbbvdt5nogVLuhAIMjEnRPWxIR3WhtOX0nw+vfCrIuqho1NGirCQ19Gvumy9pGCG1xzDwmmccAXYsj8ulIPWnY7tmqlx6l6IFQLZxbvpGZoAPpyzstUnX1QOI6SQAraeOZfnJjnw0BA00+6qT135ze7K+l2tkk/gEBEPARyI9SH33rxpGz1n/oqUMfe7YHAQRAIJ8EJi/rHDlr/ehbN/qufH8iUdqYKG3057mphJMRWSfy5mItbEvbZtY3jSl5xzmWXrHknZEIqpqWZZxhxJYWN1qhstxUC9jWuj5VVE0H7StnSM24wogcE7uNWdwrI1RFiWC3UVlGyibfqnxYdb9SD2einbfblfFQ9xRPv+zTS9Ehvrkdt1z18VfyV7vkdl81zVTFVysRAAMjEuKetKb+KG9ryqbPT9bNIDWshiMci+/pLo19q8uiHZK5loCWQ6keWqQvGojyzflLrlIVR+mydOazSzy5UVtuMbKkespWY5SXVVR/5XOCMyjkjGjO822D8RFQG+KnzyijZ6Ew/2VXMxxyYCAJAiAQOZlGTsee50WWmXL/1pGz1k94aM9Hn+lBAAEQyCeBCQ+1jZy1fuoDWzPc7iIvYbrMnfqRdSJvLkYKS9O2cpJZ9oxuazih5MyuDLUMKav5lKK1LKpVlFaNogKvI7KwtgWKUiEBXSgqSd9sYaTEk9nJ42vI30HTqGyIxJDa7SA7El7ddpKlmBb3Zr1TOU+GVLuZ3WNoWpqLdX3tT4hvdsczrZJqYWq7JNduXeaZPbQ74h/xEPcUQfVXQLA0eq36mXJIo1Il69Mv1L4+KpoILaNa9/21IfsOqIQoYBuUD7H+5ygW5dbiuqhuj0uc8lxLt2iW0v0XkdgTJR1UhxwCyn15voX4r0pkOKSK4C8IgIAkEDmZRk7HcZT6ovXtI2etH/XbDec/0fmRZ3oQQAAE8kPg/Cc6R/12w8hZ6+9Z357hrhfrMnfqR9aJvLn4lTorzkw6VWg7tWBJ3tB2ArVurbdh8A/7SKyohUwT15JRLBCyqdo68Y5CpTlsEayVpW6IGlU/HFRLnpYwMvqDMrVv2metmJ1GVUPGVc+rreQXRKpD1F9VnSKqv6QytX2Hic4PKKe07qkt6e7SrFipVUiFb1bH/UPpK0xM3N0vTvdNd+ICNEOvRiQEnXPC8nhZ+15mlJULVRrWKHfhqvIZ+jegIfbtoRHl9euJ3KYpnaycIX5yapuyC9aW88ls0TOE1anr1KXRt4ZMWDO1LFPikFM+2KJ5KKVBMardfz6o7778BHRftBHjifJfl8lwSJdBBARAgAlETqaR03EcpX7kqDfm9s1CrJ/zUNsFT3Z++JkeBBAAgdwRuODJznMeahv1W9p4Nvb2zUcz3vFiXeaOhcg6kTcXIbXl6vgkSxYoOWIkFLet9IFxxBSgKmJTh5KnQpRQptKXvO4rmrtyQaX6RanePSwrks1JYoe3JUSC9vUqstEcUiizeCqfIcW0ZcRIbadRU0a2Lh0QBlWPTHXxpEFOpmdibFoSX7VLGjT4IEFfPihxRkJND4347sL1zeq4GQg1OFbh4C9KlRvqGUMWpuc0dSjcQ/2sIjSob8StFtO8wZMcVieDHQ9pVO6D0l8pyG8YxDnGz5Nul835Rl4pjAqHOoEFUqnIfQcpoXaPqMcw64w1VXwN0bkha+mnXGtcyGjG8sEWdY75wkoNkzEVSkBj1OWD/pMz/gvN/1OHABJkgAAI5OkXpZ7nvbirR4h18eM2/AsCIJAfAmNu3/zSrp7MN7tI1Z2j3S+ZvQqsw2UujqPHScBReMdgbRiO1DDssnNCgIADBEkQyBWByGWvWFN4jJ+jeZ535Ki3aH371Ae2ih+Y5kemoBUQGJ4ERt+6ceoDW+9Z3555NV3cWWJd5s5NKLJO5M3FMYjkIBIQK6lm4XYQXUHTIAACIAACFoHIyTRyOo6z+8VqEFEQAIGCIxDrMne8jqwTeXNxDCIJAtkjoHbROHuistfAcVsqfA+Pu4swAAIgkA0CkZNp5HQMpZ6NcYANEBhMArEuc8fByDqRNxfHIJIgAAIgAAIgAAIOgcjJNHI6hlJ3kCIJAkVHINZl7vQqsk7kzcUxiCQIgAAIgAAIgIBDIHIyjZyOodQdpEiCQNERiHWZO72KrBN5c3EMIgkCIAACIAACIOAQiJxMI6djKHUHKZIgUHQEYl3mTq8i60TeXByDSIIACIAACIAACDgEIifTyOkYSt1BiiQIFB2BWJe506vIOpE3F8cgkiAAAiAAAiAAAg6ByMk0cjqGUneQIgkCRUcg1mXu9CqyTuTNxTGIJAiAAAiAAAiAgEMgcjKNnI6h1B2kSIJA0RGIdZk7vYqsE3lzcQwiCQIgAAIgAAIg4BCInEwjp+NYSr2hYlpFg+c1V5VMMx/KoU9zVQlHGyr0sYoGz0rJ7JKqZn8FX21xKPhvQ4WuFzzoy8muk9J0c1VJvPZF69RrxcXnXOaEvxXZkWAVdUD99ZcIzRVDFq8LfnN2iq2k6ZfdbEPFtJCmgqeCOCNCitqNIh6fQKzL3DEXWUfcXPbjAwIgAAIgAAIgMFACeVLqnkfKu6LKyFYhz1lGG6UupJd1yNEGMqkqcJITpATDhaBfw4bbM7lZdFIbtZWozgxGdKd0hMuEa1e3ur+X4S3ajOy4tqWrsa5WT03hWJ2nrnSFhG1urSrNEDVUlFRU2A9wquFp05RqD33Y8ndZdwKRARGIVN30QO5YjqwTeXNxDCIJAiAAAiAAAiDgEIicTCOn41hr6rJVoa5YEQo9eoxKXQpMn5ZVCS0+063AKgWYWVWyBC2pah64kyHfBqimxV/hgE8O+wtQSnkZodTjdpZa8y9B+wzbZkqqGswDlXO6WElffSvfjVoth1SJpbdt72xS/g65DSN9DARiXeaOvcg6kTcXxyCSIAACIAACIAACDoHIyTRyOo6j1JVEi1LqWoaF7H4RsowtNcjtMtwXpdSdjokkNVhRUaG2zYSWUZlZczJ0CVi1ot3VEXnETZvsGILUL3j14riwwc8EYUZIAZt8KqYfIky2ctz96zTiHraaVg8dYqOT1SLvhuKW2EU9+jKi64UC9Xc5vHnkxiUQ6zJ3jEXWiby5OAaRBAEQAAEQAAEQcAhETqaR03EcpS72SlQ0RCl1tZZNTvrkmZFlFKuoKKGNNK6yM9slRCe19DS1Ve/pUFCMigpZcNLZkG87quVnQJnrDvs0cNB31Qf7r7+Uz4AfpF2J41qtK7FcUtWsorbfLi27jO6TzzqXkIds/5wWXcM+G0jkiUCsy9zxJbJO5M3FMYgkCIAACIAACICAQyByMo2cjuMpddFsZhHMZbTK1MKVsm2lxykjDtVSuK9jrBJ5G4cU5DJD/iTVLOb6aolElpwMsezLsqUuOyk77O+q03OfBSvhr6QZ6hJp9o9YKrmhoqSE19TFvnF1JGhK21QR6ogqrvJ4B5AZo0AvyJ+KyoqKBtNp+7FAxCsaeJyCB/w5VjO6eUSOkUCsy9yxGVkn8ubiGEQSBEAABEAABEDAIRA5mUZOxzGVOmtJsQGa1ZlYUraipMrMphfScH5BpsUgH9DyzJHg/MtVZ0+HrinEsU46KNQDwfE66ZPg/j6IlHDAaGAps7n/VFn3jRz0a3DH5cimbBKuLdsyt609EiPBbek8p2VfMvRhyVfCbst3QCp1X15IImaxkJrIikUg1mXuWIqsE3lzcQwiCQIgAAIgAAIg4BCInEwjp+OYSl1p8pKqKn5jo9LlYrMFiVOVI5WqT5xppefuU2claSlLp3v8xhn5Mkj3UEg6S04qy1rmhjioe2QEtHg28el0ZSk7f31Ifc8ADVVVzYaV9lu8sSeSXxaUuvtcRs80mkTaBxJdIjt8hrGVWJe5wyeyTuTNxTGIJAiAAAiAAAiAgEMgcjKNnI7jKXUt/qTqshe2pY7NpNSl19KKFr5aImrzXJBTWgrrQiRFZbvkhe2CsK+tHJeTmrA2Jx9CdCPUsjmoo6RWpfY0mtrK1IZDIlax8L6ZBwJV2/JAe8bN2wfsuKrIf5ub1U4iajrI0lfY91TgO6I6qv7qg2kbPoYSuigiUQRiXeaOkcg6kTcXxyCSIAACIAACIAACDoHIyTRyOo6l1I0Yl6LOiGa1mG7W1MV6akC7Gc+FNVKkZlFVS1WVrZW6qCeT8mioms2mk9SA8U4/Wsj3yvP/62S2+lBB1rv0YnHqklVe98t034lRCVcqc/OmfbEnyC+nJQnLmBDH/vy0glm0wNt5/HYtgybqDIY5oEZZ/dVH0jasSthnkMrD34ESiHWZO8Yj60TeXByDSIIACIAACIAACDgEIifTyOk4llInIdbgU9ZimbVKbEaXi8y+LQ8sQFkJqn+0IpQq0ch00SlH1LoGdHUHgU5mycnHQ5SzzxfW5T5vLM9l33yHtYeBiFUxcIzFPzGiQtpeBoXN4th6SCCLkYI52GxYTgylrkbZ/HXHlztiDusuhTWIvGMjEOsyd0xG1om8uTgGCy6ZrLxy0vT5ydz7lbeGQrpSN2NSeU1Ifhaz6mYIjIPZzSx2B6ZAAARAIK8EIifTyOk4llLPa5/QWPEQUGvp6q/2PEuPCNoeIhkJxLrMHQuRdSJvLp5XN2PS5IkqXLlgm9OESSYrr7yqUmnmbfOvmjyxrM4czWaMjM+ozWyRHVBus/+5FruOP0EnB8wk20rdN1LCbaXUnU6YZLA75lgRxPxdrimbPNGcqwH3a8snWo9GyQXT5fmf7nym8nSNmKsjmON51Kg4IUPt+Bv1IsuLAtwLY9lxg3uW1n/FRBfI7L/EFNa1AEFkgMCwIxA5mUZOx1Dqw+6kQYeHHIFYl7nT68g6kTcXVupa42bSmjVllnomETA9Z6vdx6AakwumG/3h0MltMuDkwJlkWan7RkpCGOJK3ddl+t4gnVLnM5xOXXXOU2ERDwyoRieUty6pI/SUq77wCc2UFgKNep6XqTxXowLBXgROFWPH9V8yqS1XDy3KW1NF5Ug/Y3ilSyICAsOMQORkGjkdQ6kPs1MG3R2CBGJd5k6/I+tE3lz8St3zPDXf03SuVIgQFtYiZU0ZrS8GVLJZnpfqWagNXgiUa+RGJXhW0yxlZDET5zV7W5oE7Hue9IHNzqBFzfIa+1sCubrJRtzFQtMQ+2Y1pEpaEqe8RmVy10xd/cVCGJPQdk0vVF3RNNk0Tx215RPL6vRqKC3WCv7KDZn0dZzPDrWSSglduKxcaUrdTdOFGbUmrpg7y8OhHREjKEtKz3WL1tmiT1pLT1sakXvq+26HRi1AI7T7wrTdZao4ff4CLU9141Yk/UmY6Zsc1QoNilo1F4NOpo1NRdjkcNNpk6Hlw3sRuOLci8j4b3mrTyrBP9x/4WNo1yxyiILAsCUQOZlGTsdQ6sP25EHHhwyBWJe509vIOpE3F0suS9thaoC+2dfzPVdhEe8THyRAjVCQ2kVpfSoZWoWXM6VW050jlaZMKR3D+ltl6pK2UtdV9FEtB1kcOyujbqOqISVxqAdywT6sun6kka2ptgJMpKrz5Ys6qgp1TXGQApeFmtpp5AOuFLD1iOLruBkpzVxKdjEWVltKbrI3NvN4AIMjEoJOm+KIZl5bTt/J8FYrBVmXVFjMYjCdfjT0aeybLvOOETJr1dV2TcQZC/V0YZ3hpqw4DcyTkjkrqIytetVzkbVarwaLi+rFe2VcthtSXvbI7YXyTTZjAAAgAElEQVQaO2VA/g3z3zAxRuTDjw3c53+GrjktIgkCw49A5GQaOR1DqQ+/swY9HmoEYl3mTqcj60TeXIJK3czxpjGfRLBmd0veGUGgqmlZxhlGbOmNB1qhknJSa8ZU2DKrywTts1lLsCrFoyyITcMs7m3/lQh2G5VlqHdit7H4l+RsWHWfk7ZiC3NeuqSeW7humHuqriVJxYZm8YgS4psjOm1XffyV/NUF3O6rppmqGIIwD8XocEcCIxLinrSm/ihva8qmz0/WzSAhq4ZDIpIr9GrUfE93aexbo6O7rH0T3aSh1PDt9W9b/TsElM/6L5kiI47SZX1PdeUjGelmtxjZUH1nexnLB3vBdaj7vocrkat/PWL7bzExG+Knzyijp6Mw/9lUQKmne3SRpfEHBIYTgcjJNHI6hlIfTucL+jo0CcS6zJ2uR9aJvLn4Zailw6yW7Knd1nBS0YqFQ62NdEUtODgnk1IXVXhpkCVamOYI2udaIUpdSSVL8dvCxZaGcn+I0oWk9cP0UGh120kWXra+l4upYRUzu8fQJCvVQa3PQnzz6T9XROqKZlVeK/UMzDN7qLV1YERC3BOtmH8FfEuj1yqhGdKo7I4+/ULt66MhZ6Z5JjQeUMyCZlXnkyEoha2qYlxsN+Rjrf/Jiu2LjVhWZatR+8sB5Y8uHziXZC/s882YDfXfl2nKyjM/xH9VJsMhVQR/QWCYEoicTCOnYyj1YXrqoNtDiECsy9zpb2SdyJuLX6mzSnDFii03hbS1V6/1phcdob2z8xdsY72iFjJJpoi4XtxlTSx3fdSJdxQqhWGLEt16wD6zkFUsGWTUBmWKnSHaiPUoUus0qsoYVz2vtpJfEKkOUYta6FtOkspMx0TnB3RSWvesrxesflHjQd98BWw/fYWJieHPLrndN92JC5BEv954Exhxic45YVl8W/teZpSVi4XbsEa5C1eVz7gqeBaFDo3VVuApwjrmU+rWPhkiELKKXFsuvtAw8A1zdTLb46J/HmBvffE/HhhTwi06f6xB177avTCN6sMcMWW0//7TQBfXJY0p5b8uk+GQLoMICAxLApGTaeR0DKU+LE8cdHpIEYh1mTs9jqwTeXNhpa5+Pmi/h06JDyOhuO3g3hhTgKoIU0qeCgni33tA5bnYlQsq1XvESfNxpqwoyzg7T4L29ff1RmFYP3MkkZdeqbPQtBo1+kZ7qNakzSFLqYsnDdrzkJ5JaEXV2XD37J8EkPYSrOhfVn6ub1bH6ZD/KcsqHPxFqXJDPWPIwpI5txvuoX5WEZI3bOAmqa0gzvnqPGyQ80qF6+EwjYrnIp8pq0f0htBgl2WDWpUGHXBEs9kcEqaV1TkvRkFKdtEun7E6R21SNzTkqxX1iFgjRVbNpSFX093yooyW+06PrIdD8w5HfYboRqkld6AlN9t/y5ombLoWyhCZIDDMCEROppHTcXylfuSoV7lm72dnvXHqda8Ks/gXBEAgRwROve7Vz856o3LN3iNHo29qwofM5RLO4cg6kTcXx2AgGVh1C5RARjYJOHruGEwPw5Eahl2OPCHAJBIRCoDAQAhETqaR03FMpf5iU9d7fvRajkQJzIIACKQj8J4fvfZiU1fmu4OoG1HGORxZJ/Lm4hhEchAJiMVRrGUO4hCgaRAAARAIJRA5mUZOx3GU+pGjnpDp7/zBqw80tCRbD3bjAwIgkEsCydaDDzS0vPMH9P3Ve3702tGMK+uxLnPnDhJZJ/Lm4hhEEgSyR0DvuzB7QrJnPEeWitHnHKGAWRAAAUMgcjKNnI7jKPXKNXsTpY3v/MGrr+84mDrQXbGp59qXer/5fO83V/deqcI3VvfqcMXqXh2+/lyvHb72XK8IX32uV4b63sut8JX6Xh2+XN9LYRWFL1nhi6t6dZi2qpdCXe8/WOELdb06XFbXS6GWwuet8LnaXh0ure29tKZHhKk1PTpMqekR4ZKaHgorKXzWCp9Z2aPDp1f2UFhB4VNW+OSKHh0uXtFz8XIKF1nhE8t7dPj48p6PP2vC3z/bI8LHnu3R4aPP9nz0GRk+8kyPDh9+pkeHD1X36DC5ukeGp3sufLpbhAue6r7gqa4LllE4n8Kh85+kMOnJQ5Oe6BThg493fvDxgyKc99jB8x7rOO+xjg8s7fjA0gMUlhyYSGH/xD9TOPfP+899tF2ECYvbJyzeN2HxvvGL941/ZN/4R/aOf2TvOQ+r8NCes3WoahtX1TbuQRFaz3qw9aw/UXj/n1re/4AMZ96/W4f3/XGXDPfteu99Oyncu3PsvTso3ENhzD3NYxbJ8J7KlA5nLNwuw4Lt716wjcL8be+ikKQwL3n6vOTpdzeJMPruptF3NY2+62+j7/rbaXNF2HranVtPFWHOm3+nwx1b3inC7VveeftfT7n9r6fMFuGNd9wmwusn36rD5pP+oMLvN50owu82nfi7jaNE+O3GUb/dcMJvNpw1Z/PVS5Nb2g6+vuOgEOuL1uw1l30gFusyd2pF1om8uTgGkQQBEAABEAABEHAIRE6mkdNxHKX+2VlvJEobH2hoaT7Qfc0LrNGfh1Inya5l+meETIdSZ7EOpX7K7ONS6if8hvT6GbM3bmk7eP+alkRp4yWz3nCufTsZ6zK3K8S57CNvLo5BJEEABEAABEAABBwCkZNprCm8tDFR2uhYtpPiJ6TJ1oOzNvX8o9DoUOq8sg6ljjX1XKypC6U+8jfr/3lJU1PLwURp46nXvWpfkk481mV+rHUiby6OQSRBAARAAARAAAQcApGTaawpPEqpCyPd3d3/9lIvlDp2v2D3S653v2ilftaczd3d3ZFXcWQBWkN37h2RdSJvLo5BJEEABEAABEAABBwCkZNp5HQc52twYaS7u/sfn4dSxz517FPP+T51rdRHzloPpe7c9JAEARAAARAAgaIhAKWOX5TiF6VD7xelUOpFcwuGoyAAAiAAAiCQgQCU+rBV6pNm1o8tqX//be22Uv8gZ44tqR9bsuE89fqXydU951n5H+DXv1zwVPcH//Ayl6wfe8sO/e6Xc2+pH1vy0jkP0utf8O6XwXr3C5R6hpseDoEACIAACIBA0RCAUh9+Sr194o2k0UWwlbol0/nojVsvYLFuyXSZP+np7gse2npmycvjq7ouqHrzzJL6cQv4LY3z148teVnIdCj1QXxLYwEp9f34gAAIgAAIgAAIDJQAlPpwVeovnzOTVsSNUl+89f28lP5Beqt6+7ms5s+u7PnQI1vPVEvsk59unyDyF3ZfsHDD2JINE+l96jvGSaXePK6k/szf78X71Af9feoFpNSLZtUCjoIACIAACIBA4RGAUh9+Sr1H/M9Hk2/zK/VFG2iVfeZO8Z8fiXX099/a/qFKmU//+dHTPR/gbTBn3rqPlbpeU395fNXe8TfUj73hzQ/gfz66uwlKnW51kTeXwrsfwiMQAAEQAAEQKCwCkZMp3v0yVP+PUkepX8jCXSv1C25lHX9ru4iMnblTKPVJnE9K/anuibQlncKZf9h7Hu1Zf3l8Ff6PUvpvSqHU6TYXeXMprHshvAEBEAABEACBwiMQOZlCqQ8rpf7+29rFmrqj1M+8tT2o1C94qusC2v3SdT5vVT/z93vPp33qLN//txn71LFPnW4vhXfTg0cgAAIgAAIgUDQEoNSx+0W8+8VZU9e7X5w1dbP75alupdT3jr+xfuyNb54nflo6/9CkB7fQb0zn490vf8O7X6DUi2YygKMgAAIgAAIFSABKHUpdvqVR7FO/cesF5helL5/7SI/cp37j1vNpn7r4RenLEx7uvkApdX5XI+174QX19efSPnXx09I9eEsjlDqUegHe9uESCIAACIBA0RCAUodSV+9Tl+97GTtz5wViz7p8S6N838vYmTvP503qY2/cSm9pFEpd7Hv5w156nzrFXz6nSqyp0yvVodSh1KHUi2YygKMgAAIgAAIFSABKHUpdKfWeD8sXNYrfiVr/85F8UaPM1//z0QVP0fsZad/Lsi7xPx+d93v5fyGd+fs92KeOfep0eynAux5cAgEQAAEQAIFiIQClPmyV+kef6fnoMz1apn+ENr2Y8CH1H5R+qLqHfksqwtM9F/J/UHqhXlMXvyhVSv38J/HuF7z7Rd38Im8uqiD+ggAIgAAIgAAIhBOInEzx7peh+u4XKPX33reTwr07x967g8I9FMbc0zxmkQzvqUzpcMbC7TIs2P7uBdsozN/2LgpJCvOSp89Lnn43yXS8pVHeayJvLuH3pMLJTVZeOWn6/GTuHcpbQyFdqZsxqbwmJD+LWXUzBMbB7GYWuwNTIAACIJBXApGTaXaV+r+91PuPz/d+U4fVvVeq8I3VvTpcsbpXh68/12uHrz3XK8JXn+uVob73cit8pb5Xhy/X91JYReFLVvjiql4dsKaul9Wxpj70lPpZczZ3d3dHXsWRBTzPSzh3psg6kTcXz6ubMWnyRBWuXLDNacIkk5VXXlWpNPO2+VdNnlhWZ45mM0bGZ9RmtsgOKLfZ/1yLXcefoJMDZpJtpe4bKeG2UupOJ0wy2B1zrAhi/i7XlE2eaM7VgPu15ROtR6Pkguni/E978lN5ukZMgWCO51Gj4oQMvS78jXoZy2uXrEtMn/Dug2tYYe6yYqILZPZfYgrrWoAgMkBg2BGInEwjp2OawksbE6WNGdidet2ridLGZOvBWZt6oNQ/u7JHh8+s7NHh0yt7KKyg8CkrfHJFjw4Xr+i5eDmFi6zwieU9Onx8ec/HnzXh75/tEeFjz/boIP6PUqypD4c19X9e0tTUcjBR2njqda9muEIjL+HcKXWtcTNpzZoySz2TCJies9XuY1CNyQXTjf7IQDf7hwJODpxJlpW6b6Rkx4e4Uvd1mb43SKfU+QynU1ed87XlStOnQ1Q3QyhvMsu1dISecpVuDs2U8AONep6XqXzdfPnATE/R4pG1psx6TvCdzCGFxXHJJNjBDE1nOORrFAkQGHYE8qPUPzvrjURp4wMNLc0Huq95AWvqUOoHPrD0wAeWHJhIYf/EP1M498/7z320XYQJi9snLN43YfG+8Yv3jX9k3/hH9o5/ZO85D6vw0J6zdahqG1fVNu5BEVrPerD1rD9ReP+fWt7/gAxn3r9bh/f9cZcM9+0a8kr9jNkbt7QdvH9NS6K08ZJZb2S4uxWCUv//2jv32LiqO49fmVYqKKRtElipqKoinknZlC4QyMN50Bb6ymKFqv8ttLS47W7bpcWSZYlCCoW6+QMpEv0j2aQSDjZSW1E1y7aEeNwSoiap3BbHhGoV4cek1DUhILA9k2TGvrvn/M75nd99zsSMx3fir3UVn3uev9/nd+7M95w54/i+bwWoes+2KoSEhdikJN0QUclue96oZ9WJ2Wg0e+ROCvh6O58Ek5YyumZbzqX1hqJUsZH+fd/YoLttU5uaHb3yUwKzu6k7CW8WuoG0bWIgW1NouI5em6ldc2151zOOSey4zgvbloZWfbpVR65jeXsf74aqzVrib80wtwHH9eyyO6nqhiu3d1hNyW46F+KYh7aHYx2hCJqaxnIeUcwWnvRCTwuNqz0NfLajohahEes+dS1dVg237tzF+psHFwkxCeUcFuaJypy0o6ig2F1zJ6Bdn5awy9FdJN4m1FeNFAQ1Oe3QbEtcwlamMtsk6mC8/bpVSlHciMgDgQVEoD5KffehU15r/yXf/vOrJ9/Jvz3141cKdx/Ret0efdkijr58URx9+cLBwNGXz9ujL5/joy8vFj8rjr7cIY6+3E5HX3D6RW+r84b6qucL2FNXYv2CVupXPHn8y88O/e/4O6+efOeSb6tPtPYcOpXyupYRpW61b9BSp0hUvpVZAfHh9v9MU1VqtT6nw020UjdajYeUmsPqGK2/jdznigGlLrb8TQVrJ2n30M5oeFA7kJU4anliNuy1tg41ZxUVGivsoD0jFMinNtI8y8EIXC037UmjAHCrgMUSJeC4ixQzN5KdYmHdDLsvmTNfaWHUkbiIh8zjnijBg+Y61GcyeufYQuaqdlC3GawOloQEq2zlXNZHSlS3oi336xIyFq6mIuBWSq62mgZupeRmhaohpa1dF9HiMyKv5aDUuVnVJNSX++6K22513owXbMI8kwz275hEHJToAvanuBYdDjkgsMAI1EepT8/4S7/3Mon1rkNjr429M4UfEACBuSTw2pjaTb/kP5RMX/r9l2dm0l7asqLU3Xu8s9bKO50j3t2FvHOCwDZjWaYznNjigwdKQGuZokSG3TNWlUW3XCfavzVGqaugTKEe6NBweL+c9lyH6PiBHNQYY2SZ/Sggsq/PGloaKRWbzLcOGqfsukU7GGeebStWC3SgmZYoMbaFHRcjBvhb+cs805ibEMRZSEXakUhEYszTMXL/WGt727fuHOprU7KeecYOqgeyrRL6j3OZbSM3VTQZvjx5okyz58u3trWnnqRSXalOQkpXi3sVOLPRrvR3uJoaxnqhaVRRX/VjRLx23Ngf93jShydW8asBBJOIg3H2a6MiSj123WKq4hcILDAC9VHqvu8ffm2SxDppAvwLAiBQHwJLv/fykeHJ9Bc2sqRCnVBxxTYVX1xCb+pa4wpNo8eTb+1SBJOSc6cy7H6qMTKgFMW2qNUf4aH1FqOWpFawqo6s5mDtFURgbJMyyEolofhtJ6qtlIbmfIhU80oV2bMNdqjY5tJILbxY3LtVR1zDdPM0NHkMQ9oj08Y26XhEaQlHIkqd2scyT7eQAUYiEmOeJWh/E3yh0XP2a8oxgxpNzNMvtn8ujZmZbqbZ8el3EJotC04Mmyt/U1ykGUY3B1dWWpTTQSzRWg5aqb4cQnUhHyWZ1t2HKwengbDAOCjrh3R/SpHoB0kQWIgEKr6ZVnw7ruYbpUR2esbffejUms6/0hdM6yNTMAoILEwCi77z5zWdf91z6FT6bjo9m4Qo/RVwjv72C+/Gia0+Z4iUm7G7d3T6Qp6F0N9yU9LEin6XZsmo96FJS+X66G8UWtUlRTCPHulfWxhV6k5tqEHZNumjtio8qB3Imer7ud36D0TaIjUi6zlhpFKZ3L85vS3Vv7Y0opMSzRM7/aqO6DlqW6CCtJM2cQ1/xcTEwtYJu+/cqRagWkTxwZtIxA06N40opeIlzr20tXfQxm3coNqFlo62lugsig2NGCuyihBloe1tW5LUJNdBH2ho/a0tccztZJZx4a8HhBaurlUgNGp4vV6yX4ogr/mPLGnzRNuQtlZWhQbixa31zPxmB11v1n6umVLEdZAAgQVJoJ5KfUEChtMg0AAE5lGp268Pyr9Dp96zlS5xEkozDAsFvYFn9m5VE+rKikuSIMGzB1o1qmpbdu22f0dcaT69Q28amjpqb9sqS3N+IFCNDgpHTr/Y3pTIS1bqWmiKQd1AbKHdk3ZFQqnTSkOdeUhmEtsw3Tz14YM9daAXTrxVrwVZ2DYnrcKRIjjmc4+Yb5RaM+xKIMhcc64AkBRnICJh86LPnZ1XqkSmORxuUHseRnzEEepf3YpSNxqrUpclUgKanmABF0Q9k7THY3hZYkPvFipWbYtpbFqxeYFBU+u7p0YZZiYDZ1KH6lY/LJyvh96yazjCJBxoOTHMIoR7o8dZd2WKojiQAwILkgCU+oIMO5wGgQCB+VLqASMiN5Fdt0gNZNSSQEjPnUfXCzBSC9DlihMCTCoiQgUQmA0BKPXZUEMbELiwCGRTqV9YjLPtDe3CYi8z21GCdSAAAguRAJT6Qow6fAaBIAEo9SAP3DU8AT53UeF4SZYcbUSbs8QPtoDABUoASv0CDSzcAoHzIAClfh6wUBUEQAAEQAAE6kYASr1uqDEQCGSWAJR6ZkMDw0AABEAABBY0gXoq9ekZf8/A6bVdJxY/MdjUOYArgwQWPzG4tuvEnoHT06n/UY7v+4hmBsMnTao+lFX+odW5+CuNC/rFF86DAAiAAAiAQEUCdVPqh18vLNtxXCoJpLNMYNmO44dfLyTNH0Qzy7EL2ZYeSgox9tSTpjryQQAEQAAEQGA+CdRHqU/P+Mt2vNLUOfD+7cdufvbUHbnJfz1YxJVBAnfkJm9+9tT7tx9r6hxYtuN47MY6opnBwEVNqiaU/NIDpc4okAABEAABEACBDBGoj1LfM3CaZPqnXpjYcrCIK+MEPvXCBIn1nw2cjk5WRDPj4ZPmpYeSgwulziiQAAEQAAEQAIEMEaiPUl/bdaKpc+CmZ0998WARV0MQuPFXbzR1DqzbeyI6WRHNhoggG5kSSg4ulDqjQAIEQAAEQAAEMkSgPkqdvkL66d7JL7xYxNUQBD59YKKpc2DxE4PRyYpoNkQE2ciUUHJw51Cpv4UfEAABEAABEACB2RKoj1Knr7h9/sUirgYiQFFjMccJRLOBgkimJoWSYzqHSp3HQAIEQAAEQAAEQOB8CdRTqX/uxSKuBiKQJO8ov4EcgalJoeSXCyh1RoEECIAACIAACGSIQD2V+md/X8TVQASS5B3lN5AjMDUplPxKBKXOKJAAARAAARAAgQwRqKdSv+P3RVwNRCBJ3lF+AzkCU5NCya9EUOqMAgkQAAEQAAEQyBCBeir1239fxNVABJLkHeU3kCMwNSmU/EoEpc4okAABEAABEACBDBGop1L/zO+KuBqIQJK8o/wGcgSmJoWSX4mg1BkFEiAAAiAAAiCQIQL1VOqf/l0RVwMRSJJ3lD+/jty2/+1Pbt+3alvPqm09n9y+77b9b8+vPRkfPSmU/EoEpc4okAABEAABEACBDBGop1L/1O+KNb76Ctc98OQ/bbrr4iuuXLr69ss3tPDled6qR39e4+Fqbn+2O0ySd5Q/j2w373/70qtWeeLn0qtWbd7/9jyalPGhk0LJr0RQ6owCCRAAARAAARDIEIF6KvXb+oq1va77/pMXXbzosuY7Pc9bvHL1ZRta+CIVt3rX0dqOuKB6S5J3lD+PKG74yT7P85p/9TeyoflXf/M874af7KvGpNbhGd+feeZojadiNUPPY52kUPIrEZQ6o0ACBEAABEAABDJEoJ5KfXNfsbbX5Zvuuqz5zs19Rc/zrn+4R3a+4TdvfviGje+/9MM37zoq8zf3FR9/I4n/TM/RqIVneqZ8f6p0X8j4o6V8NNPUOXfI9w+9Utx8tJTnoaZKPZFx88NnlG26mkmrHmJGvE/py/gf0TBq/HvKSZJ3lB+iWofblQ8+tWT17RdfceXilas9z+NV2WUbWmipdvEVVy5ZffvKB59yxtgwJQGM0FOxiwl3hsPknA1NUXGbFEqeUlDqjEIkhnZvuXrrziGRM0fJug0UY39f29UdvTH5NczqayOM8+lmDd1BVyAAAiBQVwL1VOqb+oq1vUirbdJK/fLNX/r4wz183fL08ebfvPkhLdZv+q+jclyl1KdKXw8a83W91dpzlCw0WlnXSUiTCp8qH5oS8Xrj3ONv+PnhEin1TbrOoVeKqnOj1MuPB8fdZFYOKj9+CaFN1eZRW2mPkpX54TPSuxqmk+Qd5ddwoCq7WvngU6TRSa9LpU4anfT6ygefch0ePacCJMIdDLQKt84RQYwkibCOThbD5JyNTC0uSgol+zpfSr2v7eoVy+21ZdcwGxRODO3e0rLbaubhnS0rlrf3hevU5l513pZL70sbYM3W9s+12A3ZEzVy1kxqrdQDkSKzrVIPOeFuo+64sgZIBV3ubV+x3M1Vab6cNgkTJtdBj4N7FqI5vq+GoOkX+xSoJoH+K9SnDo3NKUYmF1kCQ7u2VmO/gRLnmuSFNAiAABGop1LfmCvW9iKttjGn9tRDP1ds/fbGXHH9/7zped7lt31ZjvvYuO9Plr4eNIYEXPcRsvBM9yTXSUoXNx4p5Sdn8lorb8xpwTd+7rFxq9QHdQXfPzSoiyZL3eO+75cfixlX1XlsfCY/SaVyREMsRU3mh89I72qYTpJ3lF/DgarvauXDPZ7nJdX3PG/lwz2R0nOH/Jnu4XLcIz/TfYSUukpEGhY35sxaiPhnM0xxZod9SQolM5lHpc6SQuuAWOWhlYRTz0oWbJ2z3W5lhhuLCcUlhnZtdYoqrsKc5UWMnD2TGiv13vYovQtcqQdcVp8bpCj19I9o+tpo/qtO9HPBCV8wjM00U00/ROrp4MfK99Pq62aqAts8vLMlycjEIkMg12GXKNbalKFTiubssUHHINCgBOqp1DfkirW9lm1oWbahJb3PaJ0fKcUc+zOTn1SieUPOaOWvKYPj018bnskPn6HS/Hg575e7h2f88XM/Ekp9wxFx+sUodTmuUofSGN1haERD7Gtqy7/8o7A9RkemE5h1aZK8o/xZd/teGpJST+qBlLostWFyE0+TVOS5mstR8dKQVYLqGMJZDhM7kpJICiVPxywodd/3rQBV7+JCLtgdOzK3t33Fll3DEZXstueNeib9obcejfJ24sD3lfQhNaPFjanm0nrPnutQfbORyerc2KC7bVPbnB29qtvQfqfuJLx96AbStomBbE0hejp6baYe2rXlDxbimMSOm2CeJs9++bmO5e19vD+qdklpw9WaYW4DjuvgyEhx5fYOc/qlWubVAIyLCI8Yt6Ut9LTVkb5PnurJIAdVhAM0Yt2n6ShdVhi37tzFgpWfL0qIKIdKQre2TxUCu3alEKuKbhrbDl2O7ijxNrZ+yGZbJ2SSuk0oEtYyNKIdbz/ZGOtazKDIAgEQ8Oup1JtzxdpepMLT+4zW0apLCbJIQy3Kx881kzpPmh2TpXtzxXsHy3nff2lQNYkq9ZdUken/3uEZXzcJjDtY9rUWVDaQoJ8s3SuVvR09P3ymOVdUnST8UIWIL1HvzjsnSd5R/lyMWLHPFXpPPama53krHu6RpTJM8fx0aFQTFRE/P3zu3iMalLlV8M2V1TA5C9nUSCIplMwkI0rdj+hvZaHTKOrOyqyAHFECNLARrkqt1ud0uIlW6lqVMgi3WjBjkZqP9K8bCKUeHF3aSTkwefcAAA64SURBVNo9tFcaHtRqICt6lB4zG/ZaW4ea85LG2J3IxOi8gOPUxjZh+eU2RENbp7Zm1DbVbcBxFylmTmrYxMK6GXZfKeNA+CoC1FQDTaLmGTj2Fw+a61CfyeijVhayrcOzy9FQ008NlNC/c5knqmjL/eqEWyaxog1WUEF36yI3B1QtqXrVAkMtCO3GubBNV7Vb8tx7cn1jv7M5xcj4IkfAdWKWOhJvwP4U19hmJEAABCyBeir19b2F2l7LmluWNbes7y2Ejr7w7freAtdxQ8cJYstj+ukjISOLT+uTMF+NGP/VoWl/svySVepPD03742cfHffzQyWt1AvrB8v+ZOlRVa301d7Co/r0y6PUjxKCZiydHx03ZAbfJtrjHIyYOruiJHlH+bPr8z22uu6hbs/zkjrxPO+6h7pDpTpMin8oX94mhCCAOqFOUreBtnKseUknhdJOez8rSt2967NpLCV1jni/F/LOSQTbjGWZznBii8UNd6vlpt3AFvv6qqFQlnHbtEKpW82kWinD6LSulpK2E1Ok1w/hQU0dI9QCu/JxzYNKPZ4JGy/HTTPP8gzKPt6KjrFNeSEdF6YG+FutzyaF3bdDK/OqAxiJeIx5pjf7y1rb275151BfmwqoXJNEo8aRUj4m9B/nMttGbqpo2kWjsYWBWNtCv1VD1SSkdLW+13bSyk3p73A11ZP1VPeaWp/DxDY7S1KMlEWCAJ131/62tau1UJz9ZoCUImcCUiAAAppAPZX6ut5Cba+lzS1Lm1vWaaW+bNOXrnuom68laz7ved663gLXSR3a6SpVTUv5/FBRNwkUKdmnFbbtTZXSnnpUqa9jpe6rU+9PW6Wu2lqlrhNmLr40JE7L2Pn50mBBD2rvY3+Pn7X21JJwkryj/LkYsWKfpNSTqpFSjy+NX56pBZKS4OPll2LB+mUKa5bDFO9v8FlLCiU7nRGlLpWTsU2+o0sRTFLYncoIKWmWILqbNKVO4+hNRy2slbKxm7VWhcToGNXM2CaFkRVPYm/edqJaBB10g5o6QnOTWWK1EGgujdRSjMU9n1RhWSwbppunobE0D+3jxtgmHWca2vBgZRZ2EoU+eWK25IU76RYywEhEgiMyPZkg+EKj5+zXlGMGNcHl6RfbP5fGzMzAGkaaodIScrhM31MFOahZxAbXUVqUi8116kvGJa1+ZOYEbU4xkosEAemHmecx9ttaKUW2Cn6DAAgYAvVU6mt7C7W9SIWv1Ur92oe6ZefX6s3XtVap26Li3slKoZ8sfcUqdd1KN5ksfUUb/xWt1PceUY48or6ZqvfUJ9Wu+SN6T/0Rsae+Vit1la+bq/qBn+m9Rwq6Q6XjVf+BcQuquTpFI6Cx3Jyc1mdvRFGt2f6/g0nyjvIt0rm1ITQKhzWUT7ee54WmwdpeIlx+JMTW5KsQBLsKhJuLshwmNjIlkRRKno9ZUOpaN9hTudayqLYLbeKSqlafy7O83rlrWCsYu5GphAulWTLSFqnuKtdHf6PQag6hGp3YjfSv7TNNhDBy+kNlsm1ss1Xq4UGtm85U38/t1n8g0hapEW1zlbD+KpXJ/ZOyTxy3CvPskfTw1izt1FqkZJtw3H3+QJETjqhBHf8KzKuwkENpCfh94YgbdHYS2d8qXuLcS1t7B5+BEceEbLdK43a08dcrhUdxobFj0Gmf0LrRMmmjv24kuxLt/FyHmcNcQSUouHbqchE1VNEXIbMD2VbBqJmTSJH60uah3YlGxhTJySk84XVU1H6ulVLEdZAAARDQBOqp1NccKNT2IqW+5oA6/XLND7pl59f8QB2TWHPA7KnLojUHtMj2/YPH2B6jz+4hCw+XRn1/dKioWwWK7iGlfriw5oDOHz9repucHp0s3aN7Hh0qHaTOj6nTL6TUqcj3y4+kQAiMW1hzTCl1YeRZ3a21J1zKvtQskSTvKD+EtD63HNbY4aLTwIRpsnSPZht56Kf3qlDKy+INZMoKhTUZC1PQ/qCp1oukUDKQeVTq9pt8V4vv8Fk54nSbtjR6NsZVUE2oKytbScQEzx5o1aiqbdm1236jlE/fmoamjlozCCES7Z93kZ3mMEJZi6eONiOmRSdOaocGdXXYQvtVQlcklDqtNNSfqkxmEtvQjqs0aFTQy68EBDdctfQM2yYcV0XBVZaoHP1GqTXDrjFMZcNcxzHeQl6rkAYNRFyMmPAXPJXBdrEh0yrQoUHtIRzhVKh/dStK+VlSh8hjlbo7HGIXA66NSfGfU7TLThtotxA1n0WYz5Q0QNOKjRFxUf26B8HsvofrS6UeNVIsBUPmRQhYjDas5mMZzdZ4JHpjnuxshAcyQAAEFIF6KvVbDxRqey3deNeS9XfeapW67Jwk3a0HCkvW37l0412yiNJ3663uu41JSgT742dNtXhVxxNGybtbdZ2DxwqqH39675D+I4CmB5LUhVu1Uv+hquD7/vSo2s4v/zAGgh7d90fHy6M8iE0cPKahWV1+K60QJkvKcrKTzY7p+T0BT5J3lB9FWoccDmvsWKTUg0U2slZec6kJ3OEQIqPU7cSQpRkNE3uUkkgKpZ1l83ZOnQ2ITdh9xNhCZNacQEjhnUf/CzBSC9Dl0IQAgRAQ3ILAXBGop1K/5UChttfy+5+86OJFS9bf6XneohWrlzS38LVohfpvLJesv/Oiixct/95PE8fVCljDne46XNk8knddhwvb9KHzbaq5bajS5S6ry20d1ffoUPGWA9QkGMfxs6YfImPVpLHWqnM9aHmboVfs0t9wvVvejp9NdPA9ME+Sd5Q/FyNW7PO6H+/zPO/GX56M1rzxlyfVOfUf7wsUWYa30KomiJ9ip0MQLgjcZztMAX8Twp0USnZzvvbU2QAk5pkAbZdid3Oew4DhQQAEQCBCoJ5KffULhRpf+6eW3//TJRvv+sBHrvzgzZ9hmb6kueWDN3/mAx+5csnGu5bf/9PV+6dqPG7NHclkh0nyjvLnBelNz711yZWr+G/7hBKXXPWJm557Sxr2b6+pTzy6/lBY/Qd9oum1Ipe6okzCZztrkkgKJb8eQKkzCiQuDAJ8EiNwQiZLvmXfwizRgi0gsIAJ1FOp3/xCAVcDEUiSd5Q/X47c+Nxb1zy+76ofdIeuax7fd+Nzb1Vj1cP/sA/8P85WU/8CqJMUSgsio6df2DwkQAAEQAAEQGCBEqinUr/phQKuBiKQJO8ov4EcgalJoeRXPeypMwokQAAEQAAEQCBDBOqp1G/cX8DVQASS5B3lN5AjMDUplPxKBKXOKJAAARAAARAAgQwRqKdS/5f9BVwNRCBJ3lF+AzkCU5NCya9EUOqMAgkQAAEQAAEQyBCBeir1T+4v4GogAknyjvIbyBGYmhRKfiWCUmcUSIAACIAACIBAhgjUU6nf8HwBVwMRSJJ3lN9AjsDUpFDyKxGUOqNAAgRAAARAAAQyRKCeSv0TzxdwNRCBJHlH+Q3kCExNCiW/Es2JUh8dHR0ZGSmX9f8KxkMhAQIgAAIgAAIgUB2Bcrk8MjIyOhr9nzFd+6rewlv7vdZ+1yaSWvzEYFPnwMrnJlY9X8DVEARW/Pe7TZ0Di58YjATTRzQbIoJsZEooObhVPeZcmxIV24yNjY2MjLyFHxAAARAAARAAgdkSGBkZGRsbC70Fy9uKb8e+X/mPMa/tOtHUOfCxZ974598WcDUEgY89M97UObBu7wk5GSiNaDZEBNnIlFBycKt6zLk2JSq2mZiYoJ2AUqkUaotbEAABEAABEACBdAKlUok+nZ6YmEipWfHtuBqlvmfgdFPnwPu2H7vm1+9e/9sCrowTuObX775v+7GmzoGfDZyOzg1EM+Phk+alh5KDW9VjzrUpUU2bfD4/MjKSz+enpqZwDCYEELcgAAIgAAIgEEugXC5PTU2RTM/n87F1OLOat+OKdaZn/GU7jpNY/+gz49fue/fjvy3gyiCBa/e9+9Fnxt+3XZ1WumzH8RmeByKBaGYwcFGTqgklR7XiI6wW5FybEtW0KRaLJNbpCzH4FwRAAARAAARAoHoC+Xy+WCyG3n9Dt9W8HVdT5/DrBRLr9OU2/JtxAst2HD/yeiE0GfgW0cx4+KR56aGkmFbzCM9GqVPvExMTY2NjtDdQ/csTaoIACIAACIDAwiQwOjo6NjaWfuiFNVlVb+GVvlFKvU3P+HsGTq/be4K+kijFBNIZIbD4icF1e0/8bOB07G46zwrf9xHNjIQsyYzqQ1nNAbZZ7qnLGYM0CIAACIAACIBAzQnUUKnX3DZ0CAIgUBMCVT3moZGqaRNqglsQAAEQAAEQAIHaEqjm7biaOrW1Cr2BAAjUkEA1j/DsT7/U0FB0BQIgAAIgAAIgIAlU9RZe3ekX2S3SIAAC2SFQ1WMeMnfRd/7stfZPnpkO5eMWBEAABEAABECgPgQmzkx7rf2Xfvcv6cPhLTudD0pBIMsEqnzMw3vq12877rX2949MZdk32AYCIAACIAACFzCB/pEpr7X/+m3H033EW3Y6H5SCQJYJVPmYh5X6939+0mvt//eetP/iOMtuwzYQAAEQAAEQaHQC3+oe9Vr7H/jFyXRH8JadzgelIJBlAlU+5mGl/urfi03f6Pda+3v+GPP/Y2XZYdgGAiAAAiAAAhcAge6jp73W/qZv9L/69wp/cx1v2RdAuOHCwiRQ/WMeVuq+79/XNeK19l/0zT9BrC/M2QOvQQAEQAAE5otAzx9PX/TNP3mt/fd1jVRjA96yq6GEOiCQKQLn9ZjHKPU3J0of/M+/0NdRv9U92j8yNYEvmGYqwjAGBEAABEDgwiIwcWa6f2SKPg33Wvs/dP/Lb06UqnERb9nVUEIdEMgCgdk95jFK3ff9NydK93WN0DEYkuz4FwRAAARAAARAYK4JNH1D7aZXKdNJfOAte66Dgv5BoLYEzusxj1fq9PC/+vfiA784ef2245d+12yx19ZQ9AYCIAACIAACIEB/kPH6bccf+MXJimfTk7YG8ZaNiQQCGSdw6Xf/MovHPE2pJ70cIB8EQAAEQAAEQAAEQAAEQGCuCfwfuQwXObfZ1V4AAAAASUVORK5CYII=;" vertex="1" parent="1">
          <mxGeometry x="-180" y="580" width="995" height="316" as="geometry" />
        </mxCell>
        <mxCell id="ggL9RPnJAEUtzASAG6NK-11" value="" style="shape=image;verticalLabelPosition=bottom;labelBackgroundColor=default;verticalAlign=top;aspect=fixed;imageAspect=0;image=data:image/png,iVBORw0KGgoAAAANSUhEUgAAA+MAAAEsCAIAAAAnx/XPAAAgAElEQVR4Ae2dC3wVxd3316C1+iq2SNSKgFYF7493BURRW7VeKq+2fZ7HVmxtk17eWlvweawVFWor1LZcRFuwoBYkCCoqahSSYLgoJEZtIIBIOSQhIQQSLknOOSQ5Yd/PXHd29+zZIWxO9iS/85lPMjs785//fGdn5ncmc04MEy8QAAEQAAEQAAEQAAEQAIHwETDC5xI8AgEQAAEQAAEQAAEQAIFgCBger2Cs61kxDKOsrMydt6yszDBSqfFU94i5/Nzh07a47dpSdPKIAvm5jFYyqyns5OcaufncRn6ukaS0MOzsDCXrlmnDpRHhj+v3lmnDrapMWYQk83TLzWR10hqcN5RqpUVXzSKBFLa8VltuWv6IzGH5bUHx9kgnjygtCFogxJ2Uz6RKC8+JhQwxEAABEAABEOi9BJJK4aSJXceorKzsqKO/7BDrSRMdPnRGqVPV6lTEtuvh07ZYUiufiFzxUjSrwxOiQpPpMpItP3d4bq5iRVgjv3mZpDJQNenwOjdfeEiNOawIxScL2TwTdYnfsiWimO0G1+b8nlTq0rTaGBJXEakNoLWQUjZfZN1eEauZScvJ20nvehl1pdtazO96tlC2GM+JQr2bnxNXlyIBBEAABEAABDKdgFQcjohpmmlW6qZpOnS549ILtb9St5SjSzZyo8lUGtuM5yW2TMslG/NCpAo9a0qV6OAnLrlm9arX1iYvW1wKCRuybnVrlt90msjNly6TqoT7JJ6fS3xzNVxYt93wUGCW96ReRbFZNwggysDpGQeUvJBS3uYiMaK+C2BNEjUnuWsz5HMhPCXZBGtnERsVcZMm8hJ4TuhDRXtJfdo4q658TkR34DcIgAAIgAAI9CACSeU4S0x6q6ubLtW5jPjW6FTq6j4oEYJSHdg3c9VsQleL30w/koLkRa+kEhtOtrKTCkySJTeXKnq707LipHVK6ZnUrKUZhTvCScPIzZWOWNlsVefn5k5TDsy4a3ClCL3qrI3J+iQKjGaUbeDaWehpLtZIu2kWGbF5qX/hOg5iM2i78DVKcosXnpOe9Zz4dj4ygAAIgAAIgEBmEEgqx7tRqcuddfdJGC+gTqUu88md4OHDmSZT9aTM5R2hKpZK4Glcswthx3+r9qRKdGlmpgiTanvvuj3vMGu8ZpucFm8oVCdJPlum3HwuULk/KZT68Gn5QuRLkg6lzm2pNdrOvlhVE0dUMmrcaiuxJ0HZLlgeYk+FThunJLiEvGU6RUy2Ds+J7MlwPycpOhO3QAAEQAAEQCAYAnJNTBoJpg4NKz1YqXMBRg945Cc5QJ5cZpLukCqW9c3wadPk3jVDSjaerb1qaojqWl6SJ/CPsZJjJlwQJ62SnVBJ+hioiVzrMqlKJbAiUWVPqwpYbI/Lm1ZECnRLS1t1SbuCoCjHDTqT2W2hordssX98V3iUsiZRA3lbwekTVtITcp/Cs6WwNCXJKi0N+kdEcwgTPCd2XqF9Tuxu4goEQAAEQAAEeiqBsCl1eehFRnzJJ99TFwJRnHO2roVBodDItVQk6s4vTWTlpMTOzVW21/lHOuUusHPXWBX9ViZRf5Lfihvuu1QKT1OObFja2tpplo6ym7n58qA4U7ryTYgzIupjatxhhjckuVLnElwKZnItW+t4t8AvLUMyo1I/TSMeSJM230VO+ttuP5lSl+8QXFVRA9ZzweBb16IePCf2AcK4MPDd95yI3sFvEAABEAABEOjRBLyUOhN6aW66Q507Lr2cSabUVZ0n5C9JU9WaW2UI6ctzCaVOk0kaSaAnQuz6UDrmkawIHSkbRVXqYRFPhyzFSiSrcsVrVhJVocnckVWqbRdMpOtJI7I93Cq/tqqTtpXmyCgjJi5Z7bxeaThJtUxtO9qhiHZ7EZs2V3vdns3rSi0hmJA0lZVnt4hctKDIxVqN54SdduLPalc8J15dinQQAAEQAAEQ6EkEvJR6+tuYVJcnTXT45lbqRBhYelYoMCqYre1eVQuqFq10oS+obKNKjJyDEdJTbJhT1SkLWcrRitmUuqoBmUeWp6obMm5XtUIQKl7QqDDiuK/uqbMDJCwjY8K+qEQ6KiO8bqtmrs15gqXUpZMkIhnwVOUYDPGKVCwsit9JLRE7ubny6y5FWWddXCcrt53+20oku8BzIh6jTHxOkvUo0kAABEAABECghxEQS7Xzd/qbGdh/PnIINoeAFOrMkStZexWJTz+WaYlsoTTpqQwiQR2V8EtLRQpT4resTlqSKY6Iw08vbasodekms63WIKtnb0LY2XpRlFQs6LAT4A5LwjPVB9JESzOTAtS0LEnvswwWDZdiF5bZb1pGesVcVZ5PzlvsaNM+YLdlGbs9jys3Wem1QsKRK5ktSZUXs8xI9qLteE7kWDn85yRZXyANBEAABEAABEAgZATce+rcQaHxLOUkPZcSSqakirjUmru4qEsoSkedQsw5s5HsLn1pz2S3xJSvqMX6LYxwKchN0LI2cywfy+VqFmVA701jH+yUtTEnpCV6SW/aaxBeMPVM/wIhK5TKmtQiLckSqfh38T3hDGukrTJ3R9tuOy5cQN3FRV2i5xx14jmxnzySuMLwnDh6G5cgAAIgAAIgAAI6BDyVuk7hNOWxFJhLmrmVepp8QjXhI4DnJHx9Ao9AAARAAARAAAQOh0AmKPXDaR/KggAIgAAIgAAIgAAIgEBmEoBSz8x+g9cgAAIgAAIgAAIgAAI9nQCUek/vYbQPBEAABEAABEAABEAgMwlAqWdmv8FrEAABEAABEAABEACBnk4ASr2n9zDaBwIgAAIgAAIgAAIgkJkEjAOtbQggAAIgAAIgAAIgAAIgAAJhIwCljjcqIAACIAACIAACIAACIBBGAlDqYeyVsL2fgz8gAAIgAAIgAAIgAALpJwClDqUOAiAAAiAAAiAAAiAAAmEkAKUexl5J/zs21AgCIAACIAACIAACIBA2AlDqUOogAAIgAAIgAAIgAAIgEEYCUOph7JWwvZ+DPyAAAiAAAiAAAiAAAuknAKUOpQ4CIAACIAACIAACIAACYSQApR7GXkn/OzbUCAIgAAIgAAIgAAIgEDYCUOpQ6iAAAiAAAiAAAiAAAiAQRgLGtNJWhJATeK6sde661g+2tdXt13qG6va3fbCtbe661ufK0LkZQAD9G/IBeJjuHWr/hm07B/6AAAiAAAh0IwEo9QxQclIoTC9tXba1bW/UU6/vjbYt29o2He++MpMA+lc+6j0y4tu/3bgSoGoQAAEQAIFwEjB+/E4MIeQEct6N/fL9+GMr4ky+/O2T1n3JxPq+aNvfPuFvPO5/J3bViy1DZjaf8VwTQsgJDJnZfNWLLfe/E9Pv3yVftJXXJ7bu66jajxB2Alv3dZTXJ5Z80Za6f8O5QsArEAABEACB7iVg3P9ODCFTCIwtjE2lu8VLtybZVl+6lUiBKaWtNy9oPv3Z/QgZR+DmBc1T/Pp3+setq2vaK/d3IGQcgdU17dM/Ju+lk47f7l0JUDsIgAAIgEA4CRg/ejuGkEEExhaQndfppa2OM+t1+/mhl5vzWk6fsQ8hQwncnNecun8/3N6+bV8HQoYSWL29PWn/hnN5gFcgAAIgAALdTsD44dsxhMwiwI7BfLDNtq3+wTayof6jt1tOf2YvQkYTuP/tlmml5APE6uzA+vfNzW2RvR0IGU3gzc1kqDr6V+1rxEEABEAABEBAEjDuWxJDyCwCP88nB9bnrmuVvXiglXzTy7TS1qtm7zt9+h6EjCZw1ex9Xv37aV1i694OhIwm8Gldwt2/6lhGHARAAARAAAQkAWPMkhhCZhH4Ef3o4d8+sSl19oWMZ8/Yc/q0RoSMJnD2jD3TSluT9u/mxo5/70HIbAKbGzvc/StnZERAAARAAARAQCVg3LskhpBxBNiXSKgdyVIGT21A6AEEvPr3iz0dCD2AgLt/1bGMOAiAAAiAAAhIAsYP3oohZBwB90rPlfqU3YMRMp+AV/9ubuxA6AEE3P0rZ2REQAAEQAAEQEAlYHz/rRhCxhFwr/Rcqf9112CEzCfg1b+fNyYQegABd/+qkzLiIAACIAACICAJGPe8GUPIOALulZ4r9b/UD0bIfAJe/bupIYHQAwi4+1fOyIiAAAiAAAiAgErA+O83Y90RWj822avjzeVOB377eYdpmh9/7EynfsbfbDJNM/Esc3t5+w7TNJvaf+toBUvnVTh/WZY/TjgqYlXv+DxuMSGmRHWOWt6M/TetyDLoztA1Ke6VnqUM+vPOcIR9hZx6+6yXnC7dvqbdNM3Ct53p1POGWY2macbHsYa81BIxTbOx5XZHu1i6s2P5tbRMK6IOvB1PkpeZdZtSqrMsOBzo4kuv/t24OxGOsHNMTnE2CaWPb3S6tHRRaXZO8ZgVznTqedPjjxVn51TMYQ3ZGLkmpzj7schSR7tYOq+CVWT95JZJHmHHUXx3YiO1QHLaTY1ZRGu0W75mUVOaqbr7V52UEQcBEAABEAABScD4rzdiXRhKiRRmr48/b68VcSK11XqVbFYWe+zjUuYnlfi1rcJnJtw73iyyt6KI1mVl43cfZu8BuKnYf9F6heXYf7FSpF7FYFHrx/S9wZu0rHSKl6JFLAtqo7oy7l7phVKvG/TnNAZFAReuaSaqmr/i41Q3lGwig/N34dvM7b1E4n+xV7RiNxXu7bNesjfqJVqXlY3fFe8BuKlZX8Sp0G++nToQWbPbZrax+fY/1w2ipsQtWl1j8+0iUSh1e+1q07om7tW/G3Yn0hpWVFA5TlTymEWREZbArZiteqJkk/kdkTErmOdU4j+7U7Si6TEi3Esf22hv10Zal5WN35XvAUjxjTvHUNH/GH1jIKvjFVELJE4jIxY1baBOslaQS9X/tMfd/StnZERAAARAAARAQCVg/OcbsS4MRAonZrxB5PXHpeRn7efx/yWSl0hhGknMsDtAE83aJrKtXvt53OEbu2sX/XbN19T+v2/E/lMo9eTFS0WThVKn2fhuPfOWui2yUf9JNcy40hzmycfSoL0tjtoDvGQrfby1TQau1J/eMSidgSjg+Lin9xSSPXLyM/LRrts/ajfN9lkv7qCR+Di7PzTRjDSSbfXIR7sc3rK7hR+pot/ev43Ntz+9Y9CLNMPmPcmLv+2CwJS6Vd0u8gZAMSU8EenUvtoWR0VdfenVvxW7EmkNxRXZORX/2EXk9Zhi8nPEoqb3iTIufWxDgkYq/mF3iSYWj3iMbKuPWNTk8JbdtYt+a7OcqO3HIu/vSlRs4Eo9efFiCUFs7bNSip+sijHF3BTxhLSFv99wO+aoqKsv3f0rBzIiIAACIAACIKASML63ONaFgSr1Zxa3lppmaWnsGbKpnmCXtZvaS4kYb7XVTqUzS/yfTVSsb4orGeJv0O3tZ3x9LlT37+1Sj3ryvcXMGXGrtpX6Rpwk1TE3mtr/Z3GMuEGdJJGm9jdqTeZ5aSlt1CZSES/l61VwGdwrPVfqf6odlM6wJGaasXF/okp9Se24zaa8jHzURHbHN++x+UPy80Qu2T+qVzLUz2pgFvxa8UKTsn8vOlH8LlxSO+hPzBRJIpe03ohVF73b0HT7n2oHuU01NN1OEyMf1VMn22e94OdP0My9+nfdrkRaA1Xqz+/aeW9O8b3FieefJQdX2OWIRZF7c4qzn91p84eqYZaYT7e6RyxqUjI0jae74M/7toIpdWsL36bm7y0mEIh9WjuJPBYZ/2wxc+neYuot/QsAyUlNETeob/fa/jLAzJaO35BeqrvIfz6aVtqqTsSIgwAIgAAIgEBSAsZ3F8e6MDDJSyVUaa11EkZoKvK7dlOcOsBUOLl8hqhhmiiKl5ZSJ7n+TjzDBLRqhcfJLf3msDcDpaVUjiexRt5I/E9pgry/qG1NrdT1Kw0kp3ulZykDJ9ekNbxFlTdFV7DZiqssIx/VU5fqZxIVbkY+qh+7mfwkiaJ4wVvU7TlMf8fGTq65jWzMu1/kln4DmRFinFYkPKkZOJk609B0m5c16knko3pqoX3mnEOoVN+9FDm9+re8PpHW8IF1+uUHM6y4PGpCNs4XNlGXmh4dT4TviIVNs2aIRFH8Bx9QtyvY+ZmKWfWJdxeSTXdXILc0G/juBxXkNM6MncTU+MijpNLID3KKf/DBTvJzIamL1Msr5XWxdOEzc6P00QrdSjV9883m7t+kszMSQQAEQAAEQMD4zuuxLgwl5PTL9Nfp9nMNVepN7Q9ZNcYXNxFRPr2GarKaVupJ62J69MXkl7GH6Oa6WdPKsxGDKXwmNv1fxA3iFXuVlqQwGPsObcViuqe+uEbsqZcoe+qpi6fyNmW93gX5Sn+gLS4CV+qTtg9MZyAKODZ2UkOBaXKl3rD/NsuBnTMbzMiHO8eSvXbT3NxAfWuY2dCmXG6/7UN+ybMRgylaQWz6v6gbzHLBW9vlWwJbQctVatO63D5w9v6ISTynFtpmzk7hT5fc8urff9Un0hqI1K6YWU+1L1Pq4yPvWD4QdT58YdPMGVQHz9hJfdv56Hiqwvll4h0mymfs5NmIwRSt4IrfJeLtsp65Qd17VCj14XalPpwqdY6L5CSK/F8VkeE5xGeWTn2j6alcSuFtJ2+5+1cOZERAAARAAARAQCVg3P16rAuDUOolpllSEhNSmx9DZ7KpdlPc7cD0GrNkU3yc3TdRnCj1cUy+25QXOVoznRdhel1eJmmjtFBCTrDwnKSKpvZxrzNXOxYXWAVJ/qZ2ptRpc1rJT3r6paTEyuZuS1ekuFd6rtSf2j4wneFNqtSfokr9ze1jP+f9EWFanF5FPtzpdmns52bBhztvs7sqisfGPiXku7N/yS1qjel1eZm81Vypv5n8LvOKv0+wVRQb61bqdlfdLQo2xat/P9uZSGtYTpX6TqrUlyeE1C4ezrQ43RQfvrDJ7dLMGcU/WNj0tt1bUbxi5s7E2x576jN5kabfkR16ktNt3JFCTI2P/G5GMVfqy/meOlHqyxOfLa/IHh95mzSk9HfrE5+t50qdGaFu0HSNihz1Hs6lu3/VSRlxEAABEAABEJAEjLtej3ZhIEqdv0pKDpSYHa+XtNWaHa8XRO96/UAJPfpCa4+/3mSaTYkS8rPtdbLFnpjGHSO3ajfF73o9OnZT2+tEoMtbKTwnxlPnnFbD3zCUlETvon7WboqP5faZP21jqQ8skVRNPazd1EaVOqmiZFNbLXkTksKTLrnlXum5Uv9j9cB0hjeionvNgjcaCsy2mW/sj5htM/9RPfCPRL5HVtdRf+rIRnhDtID83D+TCProWO4nucWy3bZ6/8zVbcqtFG0hxn1z3kasmQVv1M1c3UD9YY5Vj/1cOkar+AfZQTc/bxj4R3KLmKUpkdV11AIvlU6wXv37aV0irYEIXL6Z/f3lO7+fU/rI8sjwnNJH1iU+rdv5/Zzi4a80UX+aHhlfnD2+4vvkZ+QRssVe8XfuKrnFsr39SuSRV0qVWynaQoz75nybWiM2adXDX4l8P6eY+ln8/VeIIv/+8sSnllInXzJD/bdvz/PmpHAm+Fvu/pUzMiIgAAIgAAIgoBIw/u9r0S4Ma8npl6mvUVHOzrSQb1AhWrx2I9G7tRvjpPZlRO+aNW1Ur7f95rXobzaSj5OWrBW3iBHiJ00n8answIzUiTzCs/1fWqPzJr/ueH0ZNbX2wG+Ie7SW17g0FynUYeYbr4tZpup8LSNG4xupUucpXUnS3k3ulZ4r9T9UDUxnIEo9OvYPu4kol/voDftmEim8jyr1HcSf5/dRKbyP6vV9t/2hSmhocYsYIZ7TdBIX++uOPuTZBtIaHffEZdvM5zkEVgsV68Lg57u5M0TBC1b0/UZkNXGVK3XqcGT1Dq7UhcG0sfXq30/qEmkNdE/9b0yUy310qsWZLB7+ShPxZx2RxdkzIlSvR5bUJZYQDU2EMr+VU/E36jlNJ/G/sQMz4m2AeD/As31CaxSJSYQ1g0CNsCJE2ZPqSC00LpT6J1SpL6F76o+s4/5wt9MMU6nO3b/qpIw4CIAACIAACEgCxujXol0YFKVeszE+ellbjWnWbDxAFLl81RwQulzIZekSyZ+YSvU0Ke5U6kRzS+epdid6Wqa4IzSPUkoodZKTxTdSD+mbipK1zBRR5GbNAVE78Zve4kq9hl+mqtftyWGmuFd6lnLak5VpDYupUn9yFxHlq2pPm0UUeWTVLttR8k27bl1F97YX1zKlfqt0kuSPjiVGaPEnK2nO6NgnK8duMk2zbeYsqzk0hdxK0UBHKVFv5Wm0CrNhH6+a+kneY1BraileC29ILbVgcyNF7QHe8urfsh2JtIYicvrluR0776Hb52VUkQ9/Zedv6YdHuZJ+ZudbVJffU9RE0sdH3pJOkvwVzxEjZFu9bEeC5qx4bkfiuWfIDvdv11nNoSnkVooG2ksRr7Kf2SnMEkF/T1GijHp7D1Xq5LKInH55i/hAq+NNIM50Y3D3r5yREQEBEAABEAABlYBx56vRLgxU/jJNvnbtgbV0Q/3XvEZyWbMxfuer0Sn0uMuUV+Ov0S9hnCJc+jXdWTdr2l5r4jlpSmIKLyLFvoyQW97Ncdq/k7q3dq2ziPCHptM8xE8RYV7xUvS9h9uCtw/OujqXU6z0rfEDPHCl/vttp6UzLG6R6AsWE71u7t57K3eAyfea036/jcrflrG/r5m52zTNlrHCQ6akzU17Z+42I6tITppCMtAi0raMWGWTNdNpf+wmanbmXvqVjm0zZ1pwRNW7TmNN2LSLGnRa4EpdKZisXstsUHe9+rd0RyKtgYpspsjvKaLKeHzkDe4DuRz2SlPpjsSzRHZXPLuj6WF6uPxZ4eQbVMFnPxN5eDzPSVMqnuVFHJvlzEiKBtrtU9+IAyLCqruniFpYFxlGhTu5Oz7yhmzI+NJhwu20khRMWKXu/pUDGREQAAEQAAEQUAkY33412oWBqFuinr9tyXFZHVfqttqpGpa6jERqDqgZHiTaXSr1jteWSWtS7lsppCBV0qrBmo1xyyCtbu3aKDWr5uLxmo1xeqvjtWWqt/HXmjpqNpL3D/TFG2iZ7VKk1Lh7pedKfWLktHSG11uI8qY1cjlu1V5PNtpX1tj8Ifntr031aoZbV7Yxg9Ra28yZVnNc9uktrsItm84aJ0ZOm1kzc5NZ8LplitZYX2C2jJ1Z8+dN9N3FxIh8b0BzMslOze7ee6vVKIeRrrr06t+S2kRaQyHZU59BK51B5TiLUx92/ndO8bAFTTZ/SH67/n5mp5ph8QJyTn1GbYJaK3243GqOyz69VU4Et2pT1khNlT5crrrR9PD40mELyBsDWkRWRC+ZJy6DJKfdSdXhLoq7+1edlBEHARAAARAAAUnAuGNRFCHjCLhXeqHUt542ESHjCXj179raBEIPIODuXzkjIwICIAACIAACKgHj9kVRhIwj4F7pWcqACf9G6AEEvPp3TU0CoQcQcPevOikjDgIgAAIgAAKSgHHbwihCxhFwr/RcqT+xZQBC5hPw6t+PticQegABd//KGRkREAABEAABEFAJGLcujCJkHAH3Ss+V+uNfDEDIfAJe/fvh9naEHkDA3b/qpIw4CIAACIAACEgCxrdeiSJkHAH3Ss+V+mObByBkPgGv/l1d3Y7QAwi4+1fOyIiAAAiAAAiAgErAuOWVKELGEXCv9Czl1PGfI/QAAl79u7K6HaEHEHD3rzopIw4CIAACIAACkoBx8ytRhIwj4F7puVJ/dNOpCJlPwKt/V1S1I/QAAu7+lTMyIiAAAiAAAiCgEjBuWhBFyDgC7pWeK/XfbTwVIfMJePVvcVU7Qg8g4O5fdVJGHARAAARAAAQkAeObC6IIGUfAvdJzpf7IhlMRMp+AV/9+UNmO0AMIuPtXzsiIgAAIgAAIgIBKwPhGXhQh4wi4V3qu1H9bcSpC5hPw6t/l29oRegABd/+qkzLiIAACIAACICAJGEZuGULGEfivVxqnlbbKXowfaJ1W2vrt2TUZ1xA4nJTAt2fXuPv34fw9STMjMeMIPJy/x9G/6lhGHARAAARAAAQkASj1TH2jcvvsWlWgfGvWdvUS8Uwn4OjQ77y4I9NbBP9VAuhQlQbiIAACIAACRm7ZcQ98ev4TFb9aUPlZZROUeqYKdDzKIAACIAACIAACIAACPZhA1k/L7n8pUtMQjR9oNUy8QAAEQAAEQAAEQAAEQAAEupVAy4GOssroL/Kq2JuQEx78rLYxCqXerX2CykEABEAABEAABEAABEBAIZBX2tjnZ58YuWX3vxiBUlfAIAoCIAACIAACIAACIAAC3U0gr7TRyC3L+mkZlHp3dwXqBwEQAAEQAAEQAAEQAAE7gZ/Pp8dg7Im4AgEQAAEQAAEQAAEQAAEQ6GYCZZVRcmC9m71A9SAAAiAAAiAAAiAAAiAAAnYCzQc6oNTtSHAFAiAAAiAAAiAAAiAAAuEgAKUejn6AFyAAAiAAAiAAAiAAAiBgJwClbueBKxAAARAAARAAARAAARAIBwEo9XD0A7wAARAAARAAARAAARAAATsBKHU7D1yBAAiAAAiAAAiAAAiAQDgIQKmHox/gBQiAAAiAAAiAAAiAAAjYCaRVqW/J32DkluV+ZnfButqTm1s2LD9umvGpE8uIZ2qYuGOLldMUeTZMrbOlygtXXcS44TQisyMCAiAAAiAAAr2dAF066cL62VbbEsyWY7aG1u0Ypq7O9rXVsmCaNL4134LKFvfkC3f+7DIjV81MixE3kue3rCIGAj2aQBcrdfd4dgxvJtzpjJD7mVTqHDkZt97ammlxY/aeZB1EdTkZ82xe2JpvQqkn44Q0EAABEAABEOAE9kydvZWo8Ik7ttB1me6dsXt0MVWUurgl0ulyPyw/nlSpUxVu332jYoAa4Us/lDoeQxBISqCLlTqvU4xk4YJTgitKnb6J3zqV7r6rb+hzPzO9hrqajQt3a4qRAl1GhBP4DQIgAAIgAAIgkJSAtYzOUNIAACAASURBVIyy28o6LkQ5vSHSRaJU6taSPXHHVPd+uchv0ops6zj96zrXCeQu9tST9hASewsBMjq6vq1UJctzL3R82v7IRQequqdu+5MZzS/PzLCtdPFunvjuTmETBCmSbAow+Bmbrm83agABEAABEACBzCBANTfd6parp7LUCkVumiZfxJU98ok7tgjlLZW6WJ3lgRZigS3l+bPZSVfChStyFlFOv0CpZ8ZTAy+7nkCXKnVr2DveLtsuJ1b/znkqfUPu7A1EyrM305+RI3FSqfM5wjoVw2pR3nOLSST3M3aLTRPYU+/6pwk1gAAIgAAIZDIBtvPlo9STNtBHqfMNO3KuRqzR9G/gXjphay47/oo99aS0kdibCHSpUj9EkHT0MkVOJwsPpS4+b8q1O9s1V06rsw11+tHVeP7sDeIgO5T6IXYHsoMACIAACPQyAg6lbttWs31ylCpsa8uMb7QnO6cutt7VzGJjXtmzZwdc5Qa82GuHUu9lTyCa6ybQ9UqdKWnXB0nZ+Bc75WzMb6B753tyc1PuqZviTAsZ9uquOW+dotTV9kKpqzQQBwEQAAEQAAEnAUupO+9Y1yyPXcRvzXfuqcvNckt8WybUWFKRMHsPTr+okBDvzQTSpNTV980Mt206YLvp+fSUy2z5zVDsc6V8/AtNz0rLKYC8WbffMrfkb52aT4ywg+/22cTjzX1vfgTQdhAAARAAARCgBMTSHJ+av8ck35nGT5aqJ8tJRnaChf41m+6OuZU6yUWtUaWeVI6zU+n0lvjSCPGNbVDqeCBBQBBIk1JPLpeFyOaDmY186+OeTI4rB9CF0+S3yJz846Fi5CslsKeuwEAUBEAABEAABFwEmFJnW2D8D9Sz98gF19oXo4ss24PTUuqiImrfvqyL9ZrbYX8qh1IXxPAbBNKk1FPvqZPxSd6aUzEtT5zT0Uslvn1UWzJ9A9s7J3lkKdalYuQrHQylrsBAFARAAARAAARcBJhSJ4qcLcHycDnfHeNHWaiqtrbbyTdA0AzJzqnbTr/oK3XuGnHDpQFcbiMBBHowgVRKfeOO+NhF2y+YsOG4Bz6lilkcHVEOnfujsQR3kuKON+iW4KallPfrcqBSwW2T5vIkjMzDpxjLOPHy0JS6V3uRDgIgAAIgAAKBEzjugU8vmLBh7KLtG3fE/RfWZDkCWbL5KReuy5VVVXwhMlmm2bLON8jYEmzJcVWL07h1S5yHsZll1uTpF/KVL+Lv7cnzJ2t74N0BgyDQFQQ6N8yJJ+7HvqG5PWduZdZPk2hrh+vuss4URXOrt6w37vxbVK2hq95iRdimO30T79o+50aFXmdzB60USt3RWbgEARAAARAIOYGsn5blzK1saG5XV8zU8SCXbFZTXXzqbOdnwOiG19b8uvhs8e/D+aLMhbVYhcVXxFhLtnJa1Qlf+Xs4zW/JeqYESH65r+9NwWlW2U/ELRAIIYFDGubEf8fD39DcfsKDn7GG/SKvqqwy2nKgw5EHlyAAAiAAAiAAAkERaDnQUVYZ/UVeFVt8T3jwM02xjiU7qC6AHRDoagKdG+ZJlHrO3Eojt6zPzz7JK23saqdhHwRAAARAAARAQBLIK23s87NPjFyysy4TU0SwZKeAg1sgEE4ChzTMnUp9w444O/SyADI9nN0Lr0AABEAABHo0gbzSRiO3LOunZb5n1rFk9+gHAY3ryQT0h7lTqY9dtN3ILftFXlVPxoO2gQAIgAAIgECICfx8PjkGM+7V7al9xJKdmg/ugkCYCWgOc6dSv2DCBiO3rKwyGua2wTcQAAEQAAEQ6MEEyiqjRm7ZBRM2pG4jluzUfHAXBMJMQHOYO5U6+0JGfIQ0zF0L30AABEAABHo2geYDHUZu2fG/+ix1M7Fkp+aDuyAQZgKaw9yp1Ml1blmYGwbfQAAEQAAEQKDHE9BZjnXy9HhQaCAIZC4BnSFM8qgt1Cmj5kccBEAABEAABEAgcAI6y7FOnsAdg0EQAIGgCOgMYZJHrU+njJofcRAAARAAARAAgcAJ6CzHOnkCdwwGQQAEgiKgM4RJHrU+nTJqfsRBAARAAARAAAQCJ6CzHOvkCdwxGAQBEAiKgM4QJnnU+nTKqPkRBwEQAAEQAAEQCJyAznKskydwx2AQBEAgKAI6Q5jkUevTKaPmRxwEQAAEQAAEQCBwAjrLsU6ewB2DQRAAgaAI6AxhkketT6eMmh9xEAABEAABEACBwAnoLMc6eQJ3DAZBAASCIqAzhEketT6dMmp+xEEABEAABEAABAInoLMc6+QJ3DEYBAEQCIqAzhAmedT6dMqo+REHARAAARAAARAInIDOcqyTJ3DHYBAEQCAoAjpDmORR69Mpo+ZHHARAAARAAARAIHACOsuxTp7AHYNBEACBoAjoDGGSR61Pp4yaH3EQAAEQAAEQAIHACegsxzp5AncMBkEABIIioDOESR61Pp0ypml2HDTnlDcOn7ul75T1WZPLEUAABEAABEAABFIT6Dtl/fC5W+aUN3YcVBfe5HGd5VgnD5bs1J2CuyAQLIEuGebqJKEz7NfUxvpP3xBsw2ANBEAABEAABHoJgf7TN6ypjamLrzuusxzr5MGS3UseKjQzbASCHObqBOE77DsOmv2nV2RNLj/q6XVXLN59c1HLt1fGEUAABEAABEAABFITuLmo5YrFu496el3W5PL+0zek3lj3XY5N0/TNgyU7dY/gLggETqBLhvkhKfU55Y1Mpt+4rPmOlXEEEAABEAABEAABfQI3LmtmYv2F8kZ1/XXEfVW4jlLHkq3fL8gJAgESCHiYq7OD79QwfO6WrMnlly/effvKOAIIgAAIgAAIgMChErjsjV1Zk8tHzNuirr+OuO9yrKPUsWQfatcgPwgERSDIYa7ODr5TA/sI6TcKW25bEUcAARAAARAAARA4VALfKGjOmlzed8p6df11xH2XYx2ljiX7ULsG+UEgKAJBDnN1dvCdGtiB/VtXxBFAAARAAARAAAQ6R4Atpur664j7Lsc6Sh1Ldud6B6VAIBACgQ1zdXbwnRpYrbesiCOAAAiAAAiAAAh0jkBgS3humbqIO+JYsjvXOygFAoEQCGyYqwNbU6nfXBxHAAEQAAEQAAEQ6ByBwJZwDaXeOQ9RCgRA4DAJBDbMO6HUbyqOI4AACIAACIAACHSOQGBLuIZS75yHKAUCIHCYBAIb5lDqh9kTKA4CIAACIAACh0QgsCUcSj00W4ffLGy6duEX1y784puFTYf0MCBzTyUQ2DDvhFL/5gdxBBAAARAAARAAgc4RCGwJ11DqnfMQpTQJ3Lhs3zkPTv3qRSOOOCLLoK8jjsj66kUjznlw6o3L9mkaQbYeSSCwYd4Jpf6ND+IIIAACIAACIAACnSMQ2BKuodQ75yFK6RC4bOrSY04ZbBjGUX37nTzq7sHfe3Dw9x48edTdR/XtZxjGMacMvmzaMh07yNMjCQQ2zDuh1G/8II4AAiBw+XMrvnbLvSddO/qka0d/6SvZp972IzABARAAAR0CgS3hGkpdxx/k6QSB8x998Yg+R375pNPOf/TFGwqbVQs3FDaf/+iLR2cPOKLPkeePf0m9hXjvIRDYMO+EUr9heRwBBHo5gRGLtvY5+tivXnp99rWjs68dzf7oedWcsl6OBc0HARDQIRDYEq6h1HX8QZ5DJXDJlKVH9Dmy7zmXj1y83avsNYur+55z+RF9jrx06jKvPEjvwQQCG+adUOrXL48jgEAvJ3DB7xcahjGqKMo4jCpoPn7IJYZhMOEuf55yy72XPbtCZfXULnXMqfGDeSX2kVWRMM3EU/7DrW21aZrR9pykOUvaq01qmVizvxxFSE7T3NWmeiviB/KipuoMbYWXbzSzw3hS35AIAr2VQGBLuIZSF6PYPr30VvKB0Lhu6b4vnzL46JNOG7G4mhkcVdgyfNFWt/ERi6uPzh7w5VMGX7d0n3WXTbb2+Vi9Wl1BO4tM2uq6QKd6+6Igp+JkKwudol0zPze+PH690z6ekIAJBDbM1YdD8/vURy2PI4BALydw/hN5RKkrY+GquetPvvE/pUZnka9een2fo48d9mpE5iTzabT9J0rBUcvjP9l2kM3IMtuo5UwcJ8lM8rgmX3Ugm6a5uoLlOZhXQfW3aVZvOyAKkqlfqUjGrWXAeVeI+FE0Ur3tgFweeE4df+xNdlaBuyDQmwgEtoRrKHWMtcAJnP2rqYZhnPu7F6Xls/7fnw3DOPHqb418r1Emssi5j7xgGMbZD05zpI9aTqfcXW08nc6ifKKmY4GuC0Rtswx01j2Yt43Ld5rY9tQusgXjnpOtKZqaJSvC8jibwFdX0MVlVxtdR7yWA7kuINJ5AoENc3WB11Tq1xXFEUCglxM4jyp1fwiFUcMwzp+4UOb8Y71ptrT/xD6ImFKfv9Y5smg6mYVlcVtkPd0mr29jiSzz6vXCCLl7cP56sqdOLTMhbo346m0HiDOpX9S4dE9WQQsm/qi2Ym17NW/Xgfktoo1WovBKLYI4CPRWAoEt4RpK3TZp9FbgwUI44cIRR/Xtd+2yZml20D3/y85AHjPgzIunF8n064ri1y5rPqpvvxMuukZNpHE6J4sJ/Do6n4vZns6i1uScmE92c0w6vSsTrNKbjjnZuqRm+bqwlmzcrF5PLdS30RrZ6oD5uUsIBDbMrSfBNDWV+rVFcQQQ6OUEmFLXgWAYxnlP5Mmcf/AUxwerW8hELHPSCN/n/oNt0DkmcXUQi3hL4t0WEWe/6xOr6UQvzVZvO8Dqoi6R+ZpXTWdzs76NXxYxH0iGpM4zOz+mCwmN84Xkx0XcT1ejREW2RiERBHoRgcCWcA2lLgZyL8LbpU0eubTJOCIre9Tdai2DxzxqGMYp37ov60tfNo44YsDdv7wmv1FmyB519xFZfUYua5YpNMKVOk8USl3kIXertx0gU2vLQXI00f6q3tZK9kTIK/GHIjY5kwgrTudqeknNqkWlUr+W3FJmflFWOIAH5nAJBDbM1f7TVOoji+IIINDLCZxL99R1IJA/kj6RJ3PKCVSmiAjf5xCXdJSJSbZ62wFbuv4YJBbIfD2yqG2Vaa5ab/20bNJa5CWT46vW82F+P5XgdEInZc36tpHKqqB4xXT5wflrabaW9j+wgjS/kg2zBwiAQDywJVxDqWP0BUvgygVfGIZx2ncfVM0Ookr90tlll/9z3fHnXUm+t/Er2SPe38fynPbdBw3DuHLBF2oRNiezGZWk2+fhkXTHZNV6KsFbEquoKJfTMpmlW9rvV6Zix8riuLTXK9YaUiNR6va7uAyMQGDDvBNKfURhDAEEejmBcx6fbxiGDgTDMM55fL6Vk+1YqwPPine8vFYdXPGXyezcUU1+Jp50jDs6rVtFlVh1JE6rayXSvJ4o9SfXJ8z6BFXqNHE9+SmyxUYUkkteBXOvpf1Horon+R8BOl4mB2nMVeuJhzTR5dLa9lWkamqNWGhdpdixCAjLSAGBXksgsCVcQ6n3Wshd1PDL8zYbhjHguw+q9gdSpX7J7LJLXyo//lyu1Ie9t5flGUCV+uV5m+klm9iVKdsdbWn/EZnhO15eSzPXt6p1qXE5FYuJWrUlp2g6J1tGhE1ehbroIB4kgcCGudqrmnvqwwtjCCDQywkMpUpdB4JhGEMfn58yZ3wePdj9Q8fIolq8OhIfLiNqBjrJzltrH4xUZ5MihTFaqmNehCj1VeLIzSqq0dlPno3a/GGkg0wF9e3EE7NDNctv2RN/Twwmfi/8oZfqXOKK17emJGBvhTCLIiDQUwkEtoRrKPWeyrC72jXs/f3GEVn9r7tbdYAp9ZNuGcNOv5x69wNXv9sgM/S/jpx+Gba0SaaQiDpd8xmbbKCwPHzibemoprsqrjmWz9KOqdhmn06kroJmdaSVzPP1rXyNcCwimH6DIxDYMFdXVCh191OOFBBISqBTSp0qcnXIueMt7UKv851pdklnW5uAZvLdbYB8DwCd68lE39L+Q6ryqfgmBukWe8e8tSQulwTaQMs3ezrR0HTNYKI/WYWWzySzXBjcdpKSRCII9EICgS3hUOrB6Sr957DvhSOO7NtPVd6niU+UfnnAmRdMK1RNDVvadOTxX+170TVqIok7tmAclyID2zqxKXJlm4alr6onf+0kEzXdE+GTvyRDLa9aHxtO/+AJpe7sCAkq6Ehgw1xdeDWV+rCCGAII9HICQx4jp190IBiGMeSx+WpOpmVXrpPjiO+p32eNLKabO+atkXlaV5Kxmvi9zLOO/G1UyUBzrmmvMs2qSHxYAbFAIjRF1iVktGKHGaTZrNmgvlV1+D6y426riy8b0hkRoTnNletiMqLaQRwEQIARCGwJ11DqYB44gTMeIN/SePZvX5CWT/8F+ZbGk26576p3GmQii5z12zmGYZzxwDR7OpvSlXmVTOls9hbTPk2h03JHFT0Dyed/ZfLnU3pL+308c8e8NWLbRUzjNA+tiC8QfE99mGLH7ptwQEzsuNs5AoENc2tt1v7ul6sLYggg0MsJDJnwimEYVy9r8eGwrIUo9QmvOLKNoRveY/hQolN2favIY83gIoWOOC6mExNZKWsSVwcxiVdF4qwgqcUkupldTqRHViZSEc+UN01n1ZE/htJLMctTaa7YIRM9u7y6ICZMWSlXF3A7sjpWuzCr5kQcBHo7gcCWcA2lLoctIkERuDJ/79EnD/5S9oDLXq1iNq9a2nzpgn+77V/2atWXsgccffLgK/P3WnfFzoicq8ktOqVbKSxPS/uYNe1V/FyiOtXzCXliPZ3w+XIgVgc+RdNbzA6b3mncqkIodcsxqLtACQQ2zNWe19xTv6oghgACvZzAJa9szTr62L6XXN9v5OgUoe8l12cdfewlr2xNjstS2x1z1/BhNYHoaevSVlDMuSSRTrKyFM8mJuKrCmLUTmICH63xufQo/BgxeMnd+laah0RstZA8ND85uU5uUc1tc8lunNWV1I71NsBVBaYREOi9BAJbwjWUOoZeVxA4969Lj+hz5HHnXH7pq1Ve9i99teq4cy4/4sijzv3rUjXPhEhiJf2bp5pIp3SirVkimWNb2m0ztinmc9fkP2FdYqW8a835HSsjrX/ndsRUzLLJpUepwuaMWCmQeDgEAhvmnVDqVy6LIYAACJw3vbj/TfemkOn9Ro7uf9O9500vBisQAAEQUAkEtoRrKHW1XsQDJHDmb184os+RX+o/4MyH51zxXpNq+Yr3ms58eM6X+g84os+RZ/72RfUW4r2HQGDDvBNK/YplMQQQAAEQAAEQAIHOEQhsCddQ6p3zEKV0CJzz5/ePPnmwYRhH9u3X77q7T/nOg6d858F+1919ZN9+hmEcffLgc/6yVMcO8vRIAoEN804o9cuXxRBAAARAAARAAAQ6RyCwJVxDqXfOQ5TSJHDZu3sHPTDt+AuvOSKrj0FfR2T1Of7CawY9MO2yd/dqGkG2HkkgsGHeCaV+2dIYAgiAAAiAAAiAQOcIBLaEayj1znmIUodK4NJ39184b/OF8zZfmt90qGWRv0cSCGyYd0KpX7o0hgACIAACIAACINA5AoEt4RpKvXMeohQIgMBhEghsmHdCqV+yNIYAAiAAAiAAAiDQOQKBLeEaSr1zHqIUCIDAYRIIbJh3Qqlf/H4MAQRAAARAAARAoHMEAlvCNZR65zxEKRAAgcMkENgw74RSv+j9GAIIgAAIgAAIgEDnCAS2hGso9c55iFIgAAKHSSCwYX5ISr3vlPVZk8vPe6f5ML1HcRAAARAAARDonQTOfbspa3J53ynr1fXXEff9R4Smxr8Vx5LdOx8wtDoMBIIc5urs4Ds1DJ+7JWty+eAFuy58L4YAAiAAAiAAAiBwqAQGL6jPmlw+Yt4Wdf11xH2XYx2ljiX7ULsG+UEgKAJBDnN1dvCdGuaUN2ZNLj/y6XVD3mq64L0YAgiAAAiAAAiAgD6BIW81Hfn0uqzJ5S+UN6rrryPuuxzrKHUs2fr9gpwgECCBgIe5Ojv4Tg0dB83+0zcwsT5wQf3QJU3nvxdDAAEQAAEQAAEQSE1g6JKmgQvqj3yaHCLNnr7hoLr6uuK+y7GOUseSnbpHcBcEAifQJcNcnR90poY1tTEm1tlJefwEARAAARAAARDQJ9B/+oa1tTF18XXHdZZjnTxYsvX7BTlBIEACQQ5zdYLQGfamaXYcNOeUN46Yt4V9WiXAhsEUCIAACIAACPRIAn2nrB8xb8sL5Y2pd9PZoqyzHOvkwZLdI58lNCq0BLpkmHdCqatFEAcBEAABEAABEAiWgI4K18kTrFewBgIgECABnSFM8qhV6pRR8yMOAiAAAiAAAiAQOAGd5VgnT+COwSAIgEBQBHSGMMmj1qdTRs2POAiAAAiAAAiAQOAEdJZjnTyBOwaDIAACQRHQGcIkj1qfThk1P+IgAAIgAAIgAAKBE9BZjnXyBO4YDIIACARFQGcIkzxqfTpl1PyIgwAIgAAIgAAIBE5AZznWyRO4YzAIAiAQFAGdIUzyqPXplFHzIw4CIAACIAACIBA4AZ3lWCdP4I7BIAiAQFAEdIYwyaPWp1OG5W9ubq6rq6uqqqrECwRAAARAAARAwI9AVVVVXV1dc3Ozuux6xXWWY508XvaRDgIg0O0EdIYwyaM6qlMmHo9XV1f7zUi4DwIgAAIgAAIgkIRAdXV1PB5XF193XGc51snjtowUEACBkBDQGcIkj+quThkm06uqqqLRaCKRUIsjDgIgAAIgAAIgkJRAIpGIRqPsb9HV1dVJ88hEneVYJ8+Hk3LyWFUfTrrB9Zr0oWmazhs0kTlSnZfjdWW/Jf2WEatimeQZsfI6fSEeH5qTvJLqvBzRcM9q6Y0PJ5EKSL1KS1MXse7aa2GmrLtmF7RLsa4Rrc7L8WyX6u2Hk25IQitZZ5AOSZJVwxdkSUJAZwiTPGpR3zLNzc2VlZXV1dXt7e1qQcRBAARAAARAAAR8CbS3t7MNr9THYHyXY9M0dfIQIc6UlfgtPRRSzXaDC3B+zy7HbVf0gijB5ALXrmFlnV4R4YP4LfMdspOukjIheUQ2SkZovuTa1WnC3krhq5JLtEf8lrdEXtsN7kJS+LIkiRAN7a+Xae/keXTRh5NyJk3Kcb13ownctM03Ub+9ySIVvztHQGcIkzyqdd8ydXV1lZWV0WhULYU4CIAACIAACICAJoFoNFpZWVlXV5civ+9yrK3Uia4jatqlu/TFIhfkNi0rLqRY99qBFWIwuaKXCA7bSdffBkTF4jdzgPib4iW89FHq+o09/HZJRCTC3J80KekmuJqTZJSKW8RkBi297dVI//cIsh5EUhPQHeaqFd8y7M92OPSiQkMcBEAABEAABPQJJBKJysrKqqqqFEV8l+NDUOqsmhRK3a5cmayne+VCjhMVnJP3oXoWRt5K1ggiBCdNmsTP3STL4ZF2OE66yqp1SHdlhN91XlvJGoLULnjFWx+1Xh53+SbyOtVwMvhJ7bnEt5qL6nnxpoPre6U5UsUz3W/vfuuPJC6nSRX2JquVIn7oBHSHuWrZtwz7aIxaBHEQAAEQAAEQAIFDIuC7mPouxzpKnW0fy51VRasRZy2xqIhwLlz5PUvGMu2dM4kcpnC/bJaJ/KMq0S3qpES0YHGxGIiTfMfZ7Z9yWNtqEvdB6lHBg6a7fbdctmL2XE4DxI9g2mXVyGMptvwpUK7SVf/IewLqDSNu6zKXfSSkh4DuMFe98S3jO7mo1hAHARAAARAAARBwE/BdTH2XYx2lTupVhahLwsptV6d+dSl1YsqWKalWpCKQ6n4uUXmC+PgsuUwmEQN00s3ansJ0KidBfOF1q6JWe+vYXsim1GmtXdaupPT5AXbZqe4NcKLWJ82eNOlDq9GuZ4K8y7JBcuegKUo1dsK40iegO8xVi75lfCcX1RriIAACIAACIAACbgK+i6nvctwJpe7QyExYukUZk6/20y9cBFonI2gx1SA9xmElqBqWVWHdc+NQFK0jm76T7oY4JCazbMlp7iJ9/0EK26Sn6r/LX9+qxF56EO1y1U4SvJS6I7NnK6RjjgKOS81sjlK41CagO8xVg75lfCcX1RriIAACIAACIAACbgK+i6nvcnzISt3thJIi9SvXdvxa7qJTZaicU6f35V3FEI9Ke+5byVL0FKE06uGksKzms8lv+165kLHsqLgzozB2WL+DbZfiSlBKnbXd/pZGkvB8QyJzKB4h2hkCusNcte1bxndyUa0hDgIgAAIgAAIg4Cbgu5j6LseHptSr88jHO6W+kxHumdS24oQLT+Ba3H6l7Oha5YgheiX0r1WZEiPaz7FpTj1givbwnJSQLafUtxK8ydZN5q79xIilrOk5EfJt86lfSrZkbQu0Xaonzg5U7ylx2RlKGo2Khorf8r7CR6bZI/457PlxlYKA7jBXTfiW8Z1cVGvBxZc/dPYjhcGZgyUQAAEQAAEQ6EYCvoup73Ksr9TJjik7O67uhVoa0yYx7TpMlbrinDrJbhmSZkSyQxzyS37XVpWCn1gJxElSgeWd6j5rmPxJt5H5vzyiXyxOmqTkl+1SvLRHqc+Otx20eqt+8mYgmHbZq1beKzlv2K8dnWHdFApd/JZ37P0vk62I5nsEqwBiKQjoDnPVhG8Z38lFtRZcHEo9OJawBAIgAAIg0N0EfBdT3+VYU6kzrZZcXtF7b7Jv5mYaU35ZCZOY8pLh4nksmc6SHaJWFqViWJzYTgk8ECdpvQ7lbPOF6nJbBsVz3jbbbW+flYLuTNbNQNrlrkA/hTmQJL9Q6DZAvMOc/cvfb/C7Sf8mkqQGJOkQ0B3mqi3fMr6Ti2otuDiUenAsYQkEQAAEQKC7Cfgupr7LsaZS7+6Gov5QErCUuuO9ie+eeiibk7FO6Q5ztYG+ZXwnF9PcNmv0uWecTcJDRaZpLn+IxknKw8tJXZHZd5z9yKzn76J5HimUGdhdcvlIYdEjzMIdz2+jqZB+YAAAIABJREFU7ilKXdw6Y/TsiOJ64cOsOlbjXbPYvaJHaKUOH4iHwrJpFj3iMKVYRRQEQAAEQAAEgifgu5j6LsdQ6sH3CiyCQHoJ6A5z1SvfMr6TCxG+XHOrhhUBTZQ6F8qFD597Bj+Avvyhs5m8pqraUu1S7tNz6pHZdwiBHnn+Lkttm1Rws1JFj9wxmt9y5iFvA2gtijpXJL7DYVyCAAiAAAiAQJcQ8F1MfZdjKPUu6RgYBYE0EtAd5qpLvmV8Jxe6ZX6ufZfavstO99TZx0Mjz98lZD3JI/bgrQ+PFj7MND3fUyf55Q693KRnDRBmCx++a1Zk+UNE0G+bNVpsrifZ6ae3RCkVAuIgAAIgAAIg0KUEfBdT3+UYSr1LOwjGQSANBHSHueqKbxnfyYVbo2dUiPImESaXhRZXxHFnlHryDXuTnrqxa/QisQHv9sE02Xa7a9NdhYE4CIAACIAACHQJAd/F1Hc5hlLvko6BURBIIwHdYa665FvGd3Ixi5bL/fI7nt9maXEi0Omuub9SFyfOSU6m8sU5dSvFNItm88PoogFEdivnXh56+BF2PCaJD+y4/OhHHrI23YUV/AYBEAABEACBLibgu5j6LsdQ6l3cRTAPAl1OQHeYq474lvGdXJSPkLJDLOLTnEQWayr1Rx4i59flZ1LZGXd+JMY6ACNOpYuT7uyzquK4i6rp5YdWpQ+kzfRMjucOvUoFcRAAARAAARAIkoDvYuq7HEOpB9kfsAUC3UFAd5irvvmW8Z1cVGudiovt804VRiEQAAEQAAEQCD8B38XUdzmGUg9/L8NDEEhNQHeYq1Z8y/hOLqq1TsWh1DuFDYVAAARAAAQyh4DvYuq7HOsr9Y6D5uzVu6+evOm4Bz5lZvETBECgiwgc98CnV0/eNHv17o6D/vMR8yF1PpJHzeFbxndyUa0hDgIgAAIgAAIg4Cbgu5j6LseaSn3N1pYTf/MvZg0/QQAE0kbgxN/8a83WFvfYV1OYM2qKO07yqKm+ZXwnF9Ua4iAAAiAAAiAAAm4Cvoup73Kso9Q7DppMph/7y0/nfVgX2bk/ihcIgEBXEojs3D/vw7pjf0n+fnXib/51MOXOuu4wV2cQ3zK+k4tqDXEQAAEQAAEQAAE3Ad/F1Hc51lHqs1fvNnLLjv3lpxu376/aG51UERuzNv7tVfFvr4zfIcLtK+My3LYyLsOtK+Jq+NaKOAu3rIjzUBy/WQk3Fcdl+GZxnIQPSPiGEm78IC7DDR/ESVgev14Jo5bHZbhueZyEIhKuVcLIorgM1xTFrymMsTCiMCbD8MIYC8MKYyQUkHC1Eq4qiMlwZUGMhGUkXKGEy5fFZLhsWeyypSRcqoRLlsZkuHhp7OL3rfAf78dYuOj9mAwXvh+78D0eLngvJsP578VkOC8/JsO5+TEe3o2d826UhaHvRIe+0zL0bRKGkNA8ZAkJZy9pPvutJhbOerPprDf3s3DmG/vPfGPfmW/s+/rifV9fvJeE1/eeQcKeM14j4fTX9pz+aiMLgxc1Dl7UMHhRw6BFDYMWNgxauHvQwt0DXxFhwa7TZMirH5BXP2A+CztPnb/z1JdJ+NrLdV+bx8Mpc3fIcPI/a3l4qfakl2pIeLEm+8XtJLxAQv8XqvvP4eHE2VUy9PtHJQ/PV371+W0kzNr2FRIiJMyMnDAzcsLft7LQ9+9b+/5ta9+//bvv3/59/HMsbDn+2S3HsTDji/8jwzObj2Vh+uZjp39+zPTPj5nGwqYvT2Vh49FTZNjwpb+K8JeKo1j4c8VRf15/JAtPrz/y6XV9/rTu1Bkbvrc4srl+/8bt+5lYn7N6t3v4yxTdYS4L6Ax738lFtYY4CIAACIAACICAm4DvYqq7hOeWuY3LlKsnbzJyy+Z9WFe9N3rPR1Sjr4JSJ5JdyvSrmEyHUqdiHUr9mGmHpdT7/Ino9X7T1m+u3z93dZ2RWzZs8iY5Ht0R3WGulvQt4zu5qNYQBwEQAAEQAAEQcBPwXUx9l2OdzTX2EdLIzv2TK2J3Mo0OpU531qHUsafeFXvqTKln/an8u69v3Vq338gtO+6BT93DX6boDnNZQGfY+04uqjXEQQAEQAAEQAAE3AR8F1PdJTzlnjozEo1G71sbh1LH6Recfunq0y9SqZ86Y0M0GvUdxb4ZuDJXZxDfMr6Ti2oNcRAAARAAARAAATcB38XUdznW2VxjRqLR6J2roNRxTh3n1Lv8nLpU6lmTy6HU3fMeUkAABEAABEAgMwhAqeMTpfhEac/7RGmIlPoevEAABEAABEAABDpLAEq91yr1sycWZ+cUf21qo6rUz6KJ2TnF2TnrzhRf/3JufuxMJf3r9Otfhr4TPeuvJTRncfaE7fK7X06fUJyds3bgfPL1L/jul+767pcQKfXM2LKAlyAAAiAAAiAQSgJQ6r1PqTeeMY5odBZUpa7IdHp33JahVKwrMp2nn/1udOiCLafklAzKaxma98UpOcUDnqff0jirPDunhMl0KPVu/JZGKPVQTrdwCgRAAARAAAQOkQCUem9V6iUDJ5IdcUupL9ryNbqVfhb5VvXG06maP2127LyFW04RW+znvts4mKX/Izr0H+uyc9adQb5PffsArtSrB+QUn/KX3fg+9W7/PnUo9UOcCJEdBEAABEAABEJJAEq99yn1GPvPR+dOtSv1OevILvvEGvbPj9g++temNJ43m6eTf370buzr9BjMKVMaqFKXe+olg/J2DxpbnD32i6/jPx/9fSuUOpntfCeXUE6JcAoEQAAEQAAEQkTAdzHFd7/01P9R6lDq51DhLpX60ClUx09pZJHsiTVMqZ9N04lSfyd6BjmSTsIpf919JjmzXjIoD/+jlPybUih1Msf5Ti4hmgjhCgiAAAiAAAiEkoDvYgql3quU+temNrI9dYdSP2VKo1upD32nZSg5/dIyhB5VP+Uvu4eQc+pUvj9RjXPqOKdOppdQzntwCgRAAARAAAQygwCUOk6/sO9+ceypy9Mvjj116/TLO1Gh1HcPGlecPe6LM9lHS2c1nz1/M/mM6Sx898u/8d0vUOqZsRLASxAAARAAgXASgFKHUuff0sjOqY/bMtT6RGnJ6Qtj/Jz6uC1DyDl19onSksGvRIcKpU6/q5Gce6Eb6uWnk3Pq7KOlu/AtjVDqUOrhnPnhFQiAAAiAQGYQgFKHUhffp86/7yV7Ys1Qdmadf0sj/76X7Ik1Q+gh9exxW8i3NDKlzs69/HU3+T51Ei8ZmMf21MlXqkOpQ6lDqWfGSgAvQQAEQAAEwkkASh1KXSj12Pn8ixrZ50SV/3zEv6iRp8v/fDT0HfL9jOTcy9st7D8fnfkX/r+QTvnLLpxTxzl1Mr2Ec+KDVyAAAiAAAiCQEQSg1HutUr/wvdiF78WkTL+AHHqxwnniH5Selx8jnyVl4d3YOfQflJ4j99TZJ0qFUh+yBN/9gu9+ETOf7+QiMuI3CIAACIAACIBAcgK+iym++6WnfvcLlPpJL9WQ8GJN9ovbSXiBhP4vVPefw8OJs6tk6PePSh6er/zq89tImLXtKyRESJgZOWFm5IS/E5mOb2nkc43v5JJ8TkIqCIAACIAACICAIOC7mAar1O9bG79zVfzbMqyM3yHC7SvjMty2Mi7DrSviavjWijgLt6yI81Acv1kJNxXHZfhmcZyED0j4hhJu/CAuA/bU5bY69tR7nlI/dcaGaDTqO4p9M5imSfKIeYP89i3jO7mo1hAHARAAARAAARBwE/BdTH2XY50l+7gHPjVyyyI790+uiEGpX10Qk+GqgpgMVxbESFhGwhVKuHxZTIbLlsUuW0rCpUq4ZGlMhouXxi5+3wr/8X6MhYvej8nA/kcp9tR7w576d1/furVuv5FbdtwDn7qHv0zRHeaygM6w951cVGuIgwAIgAAIgAAIuAn4Lqa6S3humdu4TLl68iYjt2zeh3XVe6P3fIQ9dSj1vV9fvPfrr+89g4Q9Z7xGwumv7Tn91UYWBi9qHLyoYfCihkGLGgYtbBi0cPeghbsHviLCgl2nyZBXPyCvfsB8FnaeOn/nqS+T8LWX6742j4dT5u6Q4eR/1vLwUm2PV+r9pq3fXL9/7uo6I7ds2ORNcjy6I7rDXC3pW8Z3clGtIQ4CIAACIAACIOAm4LuY+i7HOptrs1fvNnLLjv3lpxu376/eG51UERuzlup1cfTlDuXoy+3K0ZfbVtqOvtwqjr58Sx59WRG/RTn6crNy9OUmdvQFp1/otrrcUL/o/Rj21IlY79FKfcCzG763OLK5fv/G7fuP/SX5i9ac1bvdw1+m6A5zWUBn2PtOLqo1xEEABEAABEAABNwEfBdT3SU85Z56x0HzxN/8i4n1uavrttbtj+IFAiDQlQS21pHd9GP/H5HpJ47918GD7tFvpegOc6sEzqmrLBAHARAAARAAga4hkB6lbprmmq0tTKwzTYCfIAAC6SFw4m/+tXZbS+r5g3nin0fN4VvGd3JRrSEOAiAAAiAAAiDgJuC7mPouxzp/Bmf1dhw0Z6/ePWzyJvYB0/TIFNQCAr2TwHEPfDps8qY5q3en3k1nY5Mhcs8PagrJ47xO+ac038lFtYY4CIAACIAACICAm4DvYqq7hKdcst31IgUEQCA8BHSHueqxbxnfyUW1hjgIgAAIgAAIgICbgO9i6rsc6++pu2tHCgiAQBgI6A5z1VffMr6Ti2oNcRAAARAAARAAATcB38XUdzmGUndTRQoIZBYB3WGutsq3jO/kolpDHARAAARAAARAwE3AdzH1XY6h1N1UkQICmUVAd5irrfIt4zu5qNYQBwEQAAEQAAEQcBPwXUx9l2ModTdVpIBAZhHQHeZqq3zL+E4uqjXEQQAEQAAEQAAE3AR8F1Pf5RhK3U0VKSCQWQR0h7naKt8yvpOLag1xEAABEAABEAABNwHfxdR3OdZX6h0HzTnljcPnbuk7ZX3W5HKEEBLoO2X98Llb5pQ3dqT8RzmmaaI3Q9h9qkv6Xak5hMlUoM4gvlOD7+SiWkMcBEAABEAABEDATcB3MfVdjjWX+TW1sf7TN6hKAvEwE+g/fcOa2pj7gWEp6M0w953Dt9RdyTpUd5irD4RvGd/JRbWGOAiAAAiAAAiAgJuA72LquxzrKPWOg2b/6RVZk8uPenrdFYt331zU8u2VcYQQEri5qOWKxbuPenpd1uTy/tM3JN1YR2+GsOPcLul0pZwQdIe5LKAz7H0nF9Ua4iAAAiAAAiAAAm4Cvoup7hKe8j8fzSlvZDL9xmXNd6yMI4ScwI3LmplYf6G80f3MoDdD3n2qe6m7Unau7jCXBaDUVRSIgwAIgAAIgEAXEUiPUh8+d0vW5PLLF+++fWUcISMIXPbGrqzJ5SPmbXE/eOjNjOhB6WSKrpSdC6UuUSACAiAAAiAAAiEikB6lzj5C+o3ClttWxBEygsA3CpqzJpf3nbLe/bCiNzOiB6WTKbpSdi6UukSBCAiAAAiAAAiEiEB6lDr7iNutK+IIGUSA9Zr7YUVvZlAnMle9ulJ2LpS6RIEICIAACIAACISIQDqV+rdWxBEyiICXvGPpGdQQuOrVlXImglKXKBABARAAARAAgRARSKdSv6U4jpBBBLzkHUvPoIbAVa+ulDMRlLpEgQgIgAAIgAAIhIhAOpX6zcVxhAwi4CXvWHoGNQSuenWlnImg1CUKREAABEAABEAgRATSqdRvKo4jZBABL3nH0jOoIXDVqyvlTASlLlEgAgIgAAIgAAIhIpBOpf7ND+IIGUTAS96x9AxqCFz16ko5E0GpSxSIgAAIgAAIgECICKRTqX/jgzhCBhHwkncsvXsbcsPSvZc8veSiCXkXTci75OklNyzd273+hLx2r66UMxGUukSBCAiAAAiAAAiEiEA6lfqNH8QDDstj54x79uRRdx8z4MwTr7zppGtHy2AYxkVPLgq4usD9D7dBL3nH0ruR7fVL9x5/1kWG8jr+rIuuX7q3G10KedVeXSlnIih1iQIREAABEAABEAgRgXQq9RuWx4MN54x9ts8xx2WPvNMwjL7nXZl97WgZmIq78vmSYGvsVda85B1L70YUF/9piWEYI9+oYT6MfKPGMIyL/7REx6XcbQdN8+CCkoAfRZ2quzGPV1fKmQhKXaJABARAAARAAARCRCCdSv365fFgw0mj7s4eeef1y+OGYVzwRJ5q/Nr8hq9efN1Rx3/1iudL1PTrl8ef2uXF/2BeidvDA3lR04y257icp3YSTyU3SNKvr0g4alpdIeyTW6K6kvZq06zedkD4maTGHKIvk7+UgsK4y1Vh+dAyeMk7lt45m4dT6rzx/+x35U3HDDiz73lXGoYh35VlXzuavVU7ZsCZ/a686bzx/7RqKWmvpn3nBdBFr221mby7rw9rN1mN9e53r66UjxSUukSBCAiAAAiAAAiEiEA6lfqo5fFgA9Nqo6hSP+n675z/RJ4MV728YWR+w1eoWL/8HyVqvURhR9t/YnfmJ3SrNa+Eeci1Ms3jFW97ahcR4tXbDkjJzmqxLqlSX11BbVKdt7qCWtvVNkoo9VFc6Hspfu4qdY/kGbVc9YfIyuptB9TWBRj3kncsPcCKNE2dN/6fTKMzva4qdabRmV4/b/w/LYMlbavpGy3Z3faOJl1DU1INSUZYdiuNuPLTJ6pbuslqrP2RVtO9ulI2A0pdokAEBEAABEAABEJEIJ1K/bqieLCBabXrisieuuM14K5fXlcUv+bdBsMwTrrhe2q9f6w3zZb2n9idYQJu/lrm4YH5LTKPV9xqCzFoJv4oDFqX64mUX72e5lxLNs5Xr6fW6tuuI7cOzl/LZeLq9fE/1h+sbmFG1Bp5LSnUZPW2A2rrAox7yTuWHmBF+qbOeyLPMAyv/IZhnPdEnutu22rz4Pxtzr9v0EEou4BEXAXj1xXx90KMfzi7KZnbzrZ4daWciaDUJQpEQAAEQAAEQCBEBNKp1K8tigcb+l87uv+1o1PbdOf5AxHWSV8Hq1uIsL62iGvlHxOHk8ZpIrGR+ENRnBokEeaJdUmVulqTVOrXCqWuOlO97QC1oNbIbf6YbPmzKtS7XEemJtDpu17yjqV32uzhFGRK3csCU+rq3R9vOyioqiSJLpfZKFuaQt5NUcgkwvJwwmHuJtmQFBGvrpQPJ5S6RIEICIAACIAACISIQDqV+siieLCBqfDUNt15pJJ2FaQiuL5tJFPnXr3U0n4/bYi0IyPMoOPSXouoQih1cpdut5st7feziL3e6m0HRhbF7095Tt1eRWCQveQdS++iSlObPZfuqXvlMQzj3Cfy1Lv3r09Um+Yq9qcMO1h+JXpzJH1bVb2t7f61FCC/JPB5CGs3WR5KV10Rr66USKDUJQpEQAAEQAAEQCBEBNKp1K8pjAUb+o8c3X/k6GsKY46jL/LymsKYzGNVnUwQiy7peHmtw8n4y/QkzI9czj9JD708WRijEWGA/048yfO3rjJNs75V1E6t1bdeQ4Qgr4sWd9frcENeevojqpA5DzfiJe9YeuDV6Rg85/H5hmF45TQM45zH5zvu/ijSYba0u7tPzebRBTbUHnm8INvKqnV1S9yrK+VTC6UuUSACAiAAAiAAAiEikE6lPqIwFmw4ceToE0eOHkGVev9R3znn8fky9Bt2q2EYIwpjMk/Kqi1dRbJRKV8didMitltE9lGFPYILdKLIvSy7FXx1pJXo/vrWEUKp0wh/HlZFyFl2x2vV+hit1JFsv6xv9fLhcNK95B1LPxzLnS7LlLpXcabUk99N/vaMvEEi3VSfIG+okrwSL0c6RH/x22HrpuTttT+WXl0pWwylLlEgAgIgAAIgAAIhIpBOpT68MBZsYCp8OFXqQx+frxofSjdfhwulLm7F57X4wW9p/6FQ6rQULdLS/kPq/A+pUp+3ljTk93RPfVW9uWp9jKTXtw4vpBGRmRSnhyhWrY8NLySb69WRVuJAfStN75i3luY3yadXiX1bvWpZwU3KzZYOeqhDpAcNluHykncsXSDtWh8ctchudaSzS8MwHI8B7xEz8XsHW9ZTJukCuylbd8tbtN9D2k3SyRQRr66UgwFKXaJABARAAARAAARCRCCdSn1YQSzYwJT6sAJy+mXIY/NV40MeI8ckhhXwPXX11rACJrLNleukP1yf3cc8XNNeZZpVkTgtZbt1H1Pqa0hBqtSJertvHftekY55a2hmetyF1UjzdMxbExvGbXKlPowUoekqE1u9MZpHdbJ1pWmuXCf8oZUqTZBtCSziJe9YugNpei5ltyatzv0YDCsQuChb18BzdYHMr/aLIx6ybkqKwpHo1ZUSCJS6RIEICIAACIAACISIQDqV+tUFsWDDidfd3e+aO68WSl01ziTd1QWxftfceeJ1d6u3WHwMPb48hrtERLBZ38qzJVd1steIvLu6IDaxnqj5q7lMT0wUrZtIv1uG3GJ2mFkh73gVQqnTS1q7aVbVJ6pkJSKych2FJnT51UJKEs9V+6J2bj+ISy95x9IDrEjflOzWpEWYUrffEj3r4F8QIw8AfbNkz8+VvXgw1Cc2pN1k91912Ip7daV4ykwodYkCERAAARAAARAIEYF0KvWrCmLBhjN+/WyfY47rd82dhmEcd+6V/UaOluG4c8m/sex3zZ19jjnujN8851kv19mmaXbMXePvHpN3as4J6xIrzcQEW9Pic1s6VkZa/06/uH1MAVd4Jssma2xpH1MQm0CP0PDiQk1yb4U6p5XKKuJz6Sdcx/Aa6WV9q2cDbY75N1C14yXvWLqaM23xcyYtMQzjste2u2u87LXt5Jz6pCW2W4LhVexdjXPkkU6nXeC8Ybuubw1zN9na69HdXl0pmwmlLlEgAgIgAAIgAAIhIpBOpX7lsljAYWn0jF8/1++6u7986pknXPFNKdP7jRx9whXf/PKpZ/a77u4zfv3clUujAdcbeENCadBL3rH0bkF6+Tt7jj3zIvndPo7IsWf9x+Xv7FEdu3cr2Tif+1Hsyo/oiaatcXnXuhVK+NLPQCJeXSlnIih1iQIREAABEAABEAgRgXQq9SuWxRAyiICXvGPp3dWQy97ZM+SpJWc9Nt8Rhjy15LJ39uh49cROMQB3turk7wF5vLpSgMDpF0kCERAAARAAARAIE4F0KvXLl8UQMoiAl7xj6RnUELjq1ZVyKsKeukSBCAiAAAiAAAiEiEA6lfplS2MIGUTAS96x9AxqCFz16ko5E0GpSxSIgAAIgAAIgECICKRTqV+6NIaQQQS85B1Lz6CGwFWvrpQzEZS6RIEICIAACIAACISIQDqV+iVLYwgZRMBL3rH0DGoIXPXqSjkTQalLFIiAAAiAAAiAQIgIpFOpX/x+DCGDCHjJO5aeQQ2Bq15dKWciKHWJAhEQAAEQAAEQCBGBdCr1/3g/hpBBBLzkHUvPoIbAVa+ulDMRlLpEgQgIgAAIgAAIhIhAepR63ynrsyaXn/dO80XvxxAygsC5bzdlTS7vO2W9+2FFb2ZED0onU3Sl7FwodYkCERAAARAAARAIEYH0KPXhc7dkTS4fvGDXhe/FEDKCwOAF9VmTy0fM2+J+WNGbGdGD0skUXSk7F0pdokAEBEAABEAABEJEID1KfU55Y9bk8iOfXjfkraYL3oshhJzAkLeajnx6Xdbk8hfKG90PK3oz5N2nupe6K2XnQqlLFIiAAAiAAAiAQIgIpEepdxw0+0/fwMT6wAX1Q5c0nf9eDCGEBIYuaRq4oP7Ip8lppezpGw4me1TRmyHsOLdLOl0puxdKXaJABARAAARAAARCRCA9St00zTW1MSbW2Yfb8DPkBPpP37C2Nub1pKI3Q959qnupu5J1MZS616OOdBAAARAAARDoTgJpU+qmaXYcNOeUN46Yt4V9JFEVE4iHhEDfKetHzNvyQnlj0t109UlFb4aky7zc0O9K0zSh1NVnG3EQAAEQAAEQCAuBdCr1sLQZfoAACNgJQKnbeeAKBEAABEAABMJBAEo9HP0AL0CgOwlAqXcnfdQNAiAAAiAAAl4EoNS9yCAdBHoPASj13tPXaCkIgAAIgEAmEYBSz6Tegq8g0DUEoNS7hiusggAIgAAIgMDhEYBSPzx+KA0CPYEAlHpP6EW0AQRAAARAoOcRgFLveX2KFoHAoRKAUj9UYsgPAiAAAiAAAukgAKWeDsqoAwTCTQBKPdz9A+9AAARAAAR6KwEo9d7a82g3CFgEoNQtFoiBAAiAAAiAQHgIQKmHpy/gCQh0FwEo9e4ij3pBAARAAARAIBUBKPVUdHAPBHoHASj13tHPaCUIgAAIgECmEYBSz7Qeg78gEDwBKPXgmcIiCIAACIAACBw+ASj1w2cICyCQ6QSg1DO9B+E/CIAACIBAzyQApd4z+xWtAoFDIQClfii0kBcEQAAEQAAE0kUASj1dpFEPCISXAJR6ePsGnoEACIAACPRmAlDqvbn30XYQYASg1PEkgAAIgAAIgEAYCUCph7FX4BMIpJcAlHp6eaM2EAABEAABENAjAKWuxwm5QKAnE4BS78m9i7aBAAiAAAhkLgEo9cztO3gOAkERgFIPiiTsgAAIgAAIgECQBKDUg6QJWyCQmQSg1DOz3+A1CIAACIBATycApd7TexjtAwF/AlDq/oyQAwRAAARAAATSTwBKPf3MUSMIhI0AlHrYegT+gAAIgAAIgAAhAKWO5wAEQABKHc8ACIAACIAACISRAJR6GHsFPoFAeglAqaeXN2oDARAAARAAAT0CUOp6nJALBHoyASj1nty7aBsIgAAIgEDmEoBSz9y+g+cgEBQBKPWgSMIOCIAACIAACARJAEo9SJqwBQKZSQBKPTP7DV6DAAiAAAj0dAJQ6j29h9E+EPAnAKXuzwg5QAAEQAAEQCD9BKDU088cNYJA2AhAqYetR+APCIAACIAACBACUOp4DkAABKDU8QyAAAiAAAiAQBgJQKmHsVfgEwiklwCUenqPF39BAAAEDklEQVR5ozYQAAEQAAEQ0CMApa7HCblAoCcTgFLvyb2LtoEACIAACGQuASj1zO07eA4CQRGAUg+KJOyAAAiAAAiAQJAEoNSDpAlbIJCZBLpEqVdVVVVWViYSicxkAq9BAARAAARAoJsJJBKJysrKqqqqFH7oLuG5ZSmM4BYIgECYCegOc7UNvmXq6uoqKyuj0ahaCnEQAAEQAAEQAAFNAtFotLKysq6uLkV+3+XYNE2dPCmqwC0QAIHuJaAzhEke1UvfMs3NzWwnoL29XS2IOAiAAAiAAAiAgC+B9vZ29tfp5ubmFJl9l2Mo9RT0cAsEMoKA7jBXG6NTprq6urKysrq6OhqN4hiMSg9xEAABEAABEPAikEgkotEok+nV1dVe2Vi6znKskyd1LbgLAiDQjQR0hjDJo7qoUyYejzOxzj4Qg58gAAIgAAIgAAL6BKqrq+PxuLr4uuM6y7FOHrdlpIAACISEgM4QJnlUd3XKsPzNzc11dXVsb0B/ekJOEAABEAABEOidBKqqqurq6lIfepErss5yrJNHGkQEBEAgbAR0hjDJo/qtU0bNjzgIgAAIgAAIgEDgBHSWY508gTsGgyAAAkER0BnCJI9an04ZNT/iIAACIAACIAACgRPQWY518gTuGAyCAAgERUBnCJM8an06ZdT8iIMACIAACIAACAROQGc51skTuGMwCAIgEBQBnSFM8qj1HffAp0ZuWcuBDjURcRAAARAAARAAgbQRaD7QYeSWHf+rz1LXiCU7NR/cBYEwE9Ac5k6lfsGEDUZuWVkl/rFRmDsXvoEACIAACPRkAmWVUSO37IIJG1I3Ekt2aj64CwJhJqA5zJ1Kfeyi7UZu2S/yUv2L4zA3G76BAAiAAAiAQKYT+Pn8KiO3bNyr21M3BEt2aj64CwJhJqA5zJ1KfeOOeNZPy4zcsrzSxjA3D76BAAiAAAiAQI8kML+k0cgty/pp2cYdPt+5jiW7Rz4AaFRvIKA/zJ1K3TTNnLmVRm5Zn599ArHeG54VtBEEQAAEQCA8BPJKG/v87BMjtyxnbqWOV1iydSghDwiEisAhDfMkSr2huf2EBz8jN3LLfj6/qqwy2owPmIaqh+EMCIAACIBAzyLQfKCjrDLK/hpu5JZ95df/amhu12kilmwdSsgDAmEg0LlhnkSpm6bZ0NyeM7eSHYNhkh0/QQAEQAAEQAAEuppA1k/JbrqmTGfiA0t2V3cK7INAsAQOaZiTqr3eZ2zcER/36vYLJmw4/ld8iz1YR2ENBEAABEAABECAfSHjBRM2jHt1u+/ZdCzZeGBAIEMJHP+rzzoxzEljvYY90kEABEAABEAABEAABEAABLqLAJR6d5FHvSAAAiAAAiAAAiAAAiCQioCRW/b/AWvDTXIrg3aaAAAAAElFTkSuQmCC;" vertex="1" parent="1">
          <mxGeometry x="-182.5" y="315" width="995" height="300" as="geometry" />
        </mxCell>
        <mxCell id="ggL9RPnJAEUtzASAG6NK-12" value="" style="rounded=1;whiteSpace=wrap;html=1;fillColor=none;dashed=1;strokeWidth=5;strokeColor=light-dark(#ff0000, #ededed);" vertex="1" parent="1">
          <mxGeometry x="-240" y="-90" width="1100" height="1120" as="geometry" />
        </mxCell>
        <mxCell id="ggL9RPnJAEUtzASAG6NK-13" value="&lt;font style=&quot;font-size: 45px;&quot;&gt;瞬态检测模块&lt;/font&gt;" style="rounded=1;whiteSpace=wrap;html=1;fillColor=#f8cecc;strokeColor=#b85450;" vertex="1" parent="1">
          <mxGeometry x="-20" y="200" width="300" height="60" as="geometry" />
        </mxCell>
        <mxCell id="ggL9RPnJAEUtzASAG6NK-14" value="&lt;font style=&quot;font-size: 45px;&quot;&gt;瞬态辨识模块&lt;/font&gt;" style="rounded=1;whiteSpace=wrap;html=1;fillColor=#60a917;strokeColor=#2D7600;fontColor=#ffffff;" vertex="1" parent="1">
          <mxGeometry x="-20" y="490" width="300" height="60" as="geometry" />
        </mxCell>
        <mxCell id="ggL9RPnJAEUtzASAG6NK-15" value="&lt;font style=&quot;font-size: 41px;&quot;&gt;瞬态测距模块&lt;/font&gt;" style="rounded=1;whiteSpace=wrap;html=1;fillColor=#a20025;strokeColor=#6F0000;fontColor=#ffffff;" vertex="1" parent="1">
          <mxGeometry x="200" y="760" width="255" height="60" as="geometry" />
        </mxCell>
        <mxCell id="ggL9RPnJAEUtzASAG6NK-16" value="&lt;font style=&quot;font-size: 45px;&quot;&gt;起止时间&lt;/font&gt;" style="rounded=1;whiteSpace=wrap;html=1;fillColor=#f8cecc;strokeColor=#b85450;" vertex="1" parent="1">
          <mxGeometry x="1070" y="190" width="220" height="60" as="geometry" />
        </mxCell>
        <mxCell id="ggL9RPnJAEUtzASAG6NK-17" value="&lt;font style=&quot;font-size: 45px;&quot;&gt;瞬态类型&lt;/font&gt;" style="rounded=1;whiteSpace=wrap;html=1;fillColor=#60a917;strokeColor=#2D7600;fontColor=#ffffff;" vertex="1" parent="1">
          <mxGeometry x="1070" y="437" width="220" height="60" as="geometry" />
        </mxCell>
        <mxCell id="ggL9RPnJAEUtzASAG6NK-18" value="&lt;font style=&quot;font-size: 45px;&quot;&gt;距离估计&lt;/font&gt;" style="rounded=1;whiteSpace=wrap;html=1;fillColor=#a20025;strokeColor=#6F0000;fontColor=#ffffff;" vertex="1" parent="1">
          <mxGeometry x="1070" y="720" width="220" height="60" as="geometry" />
        </mxCell>
        <mxCell id="ggL9RPnJAEUtzASAG6NK-19" value="" style="endArrow=classic;html=1;rounded=0;entryX=0;entryY=0.5;entryDx=0;entryDy=0;strokeWidth=7;fillColor=#1ba1e2;strokeColor=#006EAF;" edge="1" parent="1" target="ggL9RPnJAEUtzASAG6NK-16">
          <mxGeometry width="50" height="50" relative="1" as="geometry">
            <mxPoint x="860" y="220" as="sourcePoint" />
            <mxPoint x="920" y="170" as="targetPoint" />
          </mxGeometry>
        </mxCell>
        <mxCell id="ggL9RPnJAEUtzASAG6NK-20" value="" style="endArrow=classic;html=1;rounded=0;strokeWidth=7;fillColor=#1ba1e2;strokeColor=#006EAF;exitX=1;exitY=0.5;exitDx=0;exitDy=0;" edge="1" parent="1" source="ggL9RPnJAEUtzASAG6NK-12">
          <mxGeometry width="50" height="50" relative="1" as="geometry">
            <mxPoint x="870" y="480" as="sourcePoint" />
            <mxPoint x="1070" y="470" as="targetPoint" />
          </mxGeometry>
        </mxCell>
        <mxCell id="ggL9RPnJAEUtzASAG6NK-21" value="" style="endArrow=classic;html=1;rounded=0;strokeWidth=7;fillColor=#1ba1e2;strokeColor=#006EAF;exitX=1;exitY=0.5;exitDx=0;exitDy=0;" edge="1" parent="1">
          <mxGeometry width="50" height="50" relative="1" as="geometry">
            <mxPoint x="860" y="760" as="sourcePoint" />
            <mxPoint x="1070" y="760" as="targetPoint" />
          </mxGeometry>
        </mxCell>
        <mxCell id="ggL9RPnJAEUtzASAG6NK-23" value="" style="endArrow=classic;html=1;rounded=0;strokeWidth=7;fillColor=#1ba1e2;strokeColor=#006EAF;exitX=1;exitY=0.5;exitDx=0;exitDy=0;" edge="1" parent="1">
          <mxGeometry width="50" height="50" relative="1" as="geometry">
            <mxPoint x="-450" y="468.75" as="sourcePoint" />
            <mxPoint x="-240" y="468.75" as="targetPoint" />
          </mxGeometry>
        </mxCell>
      </root>
    </mxGraphModel>
  </diagram>
</mxfile>
